solid AW_Case
facet normal -7.218947064989606e-16 -7.471914492721374e-16 1.0
  outer loop
    vertex 63.63357552400964 -55.86316107801423 17.999999999999964
    vertex 63.58246426344324 -61.97493251036044 17.999999999999943
    vertex 63.63357552400964 -62.363161078014215 17.999999999999947
  endloop
endfacet
facet normal -7.218947064989606e-16 -7.471914492721374e-16 1.0
  outer loop
    vertex 63.58246426344324 -61.97493251036044 17.999999999999943
    vertex 63.63357552400964 -55.86316107801423 17.999999999999964
    vertex 63.4326136296863 -61.613161078014215 17.999999999999957
  endloop
endfacet
facet normal -7.218947064989606e-16 -7.471914492721374e-16 1.0
  outer loop
    vertex 63.4326136296863 -61.613161078014215 17.999999999999957
    vertex 63.63357552400964 -55.86316107801423 17.999999999999964
    vertex 63.194235695789466 -61.30250090623439 17.999999999999957
  endloop
endfacet
facet normal -7.218947064989606e-16 -7.471914492721374e-16 1.0
  outer loop
    vertex 63.194235695789466 -61.30250090623439 17.999999999999957
    vertex 63.63357552400964 -55.86316107801423 17.999999999999964
    vertex 62.88357552400964 -61.06412297233756 17.999999999999957
  endloop
endfacet
facet normal -7.218947064989606e-16 -7.471914492721374e-16 1.0
  outer loop
    vertex 62.88357552400964 -61.06412297233756 17.999999999999957
    vertex 63.63357552400964 -55.86316107801423 17.999999999999964
    vertex 62.52180409166342 -60.914272338580616 17.999999999999957
  endloop
endfacet
facet normal -7.218947064989606e-16 -7.471914492721374e-16 1.0
  outer loop
    vertex 62.52180409166342 -60.914272338580616 17.999999999999957
    vertex 63.63357552400964 -55.86316107801423 17.999999999999964
    vertex 62.13357552400964 -60.86316107801422 17.999999999999957
  endloop
endfacet
facet normal -7.218947064989606e-16 -7.471914492721374e-16 1.0
  outer loop
    vertex 62.13357552400964 -60.86316107801422 17.999999999999957
    vertex 63.63357552400964 -55.86316107801423 17.999999999999964
    vertex -16.36642447599036 -55.86316107801423 17.9999999999999
  endloop
endfacet
facet normal -7.218947064989606e-16 -7.471914492721374e-16 1.0
  outer loop
    vertex 62.13357552400964 -60.86316107801422 17.999999999999957
    vertex -16.36642447599036 -55.86316107801423 17.9999999999999
    vertex -14.866424475990362 -60.86316107801422 17.9999999999999
  endloop
endfacet
facet normal -7.218947064989606e-16 -7.471914492721374e-16 1.0
  outer loop
    vertex -14.866424475990362 -60.86316107801422 17.9999999999999
    vertex -16.36642447599036 -55.86316107801423 17.9999999999999
    vertex -15.254653043644142 -60.914272338580616 17.9999999999999
  endloop
endfacet
facet normal -7.218947064989606e-16 -7.471914492721374e-16 1.0
  outer loop
    vertex -15.254653043644142 -60.914272338580616 17.9999999999999
    vertex -16.36642447599036 -55.86316107801423 17.9999999999999
    vertex -15.616424475990362 -61.06412297233756 17.9999999999999
  endloop
endfacet
facet normal -7.218947064989606e-16 -7.471914492721374e-16 1.0
  outer loop
    vertex -15.616424475990362 -61.06412297233756 17.9999999999999
    vertex -16.36642447599036 -55.86316107801423 17.9999999999999
    vertex -15.927084647770187 -61.30250090623439 17.9999999999999
  endloop
endfacet
facet normal -7.218947064989606e-16 -7.471914492721374e-16 1.0
  outer loop
    vertex -15.927084647770187 -61.30250090623439 17.9999999999999
    vertex -16.36642447599036 -55.86316107801423 17.9999999999999
    vertex -16.165462581667025 -61.613161078014215 17.9999999999999
  endloop
endfacet
facet normal -7.218947064989606e-16 -7.471914492721374e-16 1.0
  outer loop
    vertex -16.165462581667025 -61.613161078014215 17.9999999999999
    vertex -16.36642447599036 -55.86316107801423 17.9999999999999
    vertex -16.315313215423966 -61.97493251036044 17.99999999999989
  endloop
endfacet
facet normal -7.218947064989606e-16 -7.471914492721374e-16 1.0
  outer loop
    vertex -16.315313215423966 -61.97493251036044 17.99999999999989
    vertex -16.36642447599036 -55.86316107801423 17.9999999999999
    vertex -16.36642447599036 -62.363161078014215 17.99999999999989
  endloop
endfacet
facet normal -7.218947064989606e-16 -7.471914492721374e-16 1.0
  outer loop
    vertex -16.36642447599036 -62.363161078014215 17.99999999999989
    vertex -16.36642447599036 -55.86316107801423 17.9999999999999
    vertex -17.019055437090614 -55.90593677114518 17.999999999999904
  endloop
endfacet
facet normal -7.218947064989606e-16 -7.471914492721374e-16 1.0
  outer loop
    vertex -16.36642447599036 -62.363161078014215 17.99999999999989
    vertex -17.019055437090614 -55.90593677114518 17.999999999999904
    vertex -16.36642447599036 -109.36316107801423 17.999999999999847
  endloop
endfacet
facet normal -7.218947064989606e-16 -7.471914492721374e-16 1.0
  outer loop
    vertex -16.36642447599036 -109.36316107801423 17.999999999999847
    vertex -17.019055437090614 -55.90593677114518 17.999999999999904
    vertex -16.36642447599036 -115.86316107801424 17.99999999999986
  endloop
endfacet
facet normal -7.218947064989606e-16 -7.471914492721374e-16 1.0
  outer loop
    vertex -16.36642447599036 -115.86316107801424 17.99999999999986
    vertex -17.019055437090614 -55.90593677114518 17.999999999999904
    vertex -17.660519701502963 -115.69279020945957 17.99999999999986
  endloop
endfacet
facet normal -7.218947064989606e-16 -7.471914492721374e-16 1.0
  outer loop
    vertex -17.660519701502963 -115.69279020945957 17.99999999999986
    vertex -17.019055437090614 -55.90593677114518 17.999999999999904
    vertex -17.660519701502963 -56.03353194656889 17.999999999999904
  endloop
endfacet
facet normal -7.218947064989606e-16 -7.471914492721374e-16 1.0
  outer loop
    vertex -17.660519701502963 -115.69279020945957 17.99999999999986
    vertex -17.660519701502963 -56.03353194656889 17.999999999999904
    vertex -18.27984163781581 -56.243763415457806 17.999999999999904
  endloop
endfacet
facet normal -7.218947064989606e-16 -7.471914492721374e-16 1.0
  outer loop
    vertex -17.660519701502963 -115.69279020945957 17.99999999999986
    vertex -18.27984163781581 -56.243763415457806 17.999999999999904
    vertex -18.866424475990367 -115.19328809693641 17.99999999999986
  endloop
endfacet
facet normal -7.218947064989606e-16 -7.471914492721374e-16 1.0
  outer loop
    vertex -18.866424475990367 -115.19328809693641 17.99999999999986
    vertex -18.27984163781581 -56.243763415457806 17.999999999999904
    vertex -18.866424475990357 -56.53303405909203 17.9999999999999
  endloop
endfacet
facet normal -7.218947064989606e-16 -7.471914492721374e-16 1.0
  outer loop
    vertex -18.866424475990367 -115.19328809693641 17.99999999999986
    vertex -18.866424475990357 -56.53303405909203 17.9999999999999
    vertex -19.41023162103396 -56.89639437655805 17.9999999999999
  endloop
endfacet
facet normal -7.218947064989606e-16 -7.471914492721374e-16 1.0
  outer loop
    vertex -18.866424475990367 -115.19328809693641 17.99999999999986
    vertex -19.41023162103396 -56.89639437655805 17.9999999999999
    vertex -19.901958381923095 -114.39869498394695 17.99999999999986
  endloop
endfacet
facet normal -7.218947064989606e-16 -7.471914492721374e-16 1.0
  outer loop
    vertex -19.901958381923095 -114.39869498394695 17.99999999999986
    vertex -19.41023162103396 -56.89639437655805 17.9999999999999
    vertex -19.901958381923095 -57.3276271720815 17.9999999999999
  endloop
endfacet
facet normal -7.218947064989606e-16 -7.471914492721374e-16 1.0
  outer loop
    vertex -19.901958381923095 -114.39869498394695 17.99999999999986
    vertex -19.901958381923095 -57.3276271720815 17.9999999999999
    vertex -20.333191177446533 -57.819353932970614 17.9999999999999
  endloop
endfacet
facet normal -7.218947064989606e-16 -7.471914492721374e-16 1.0
  outer loop
    vertex -19.901958381923095 -114.39869498394695 17.99999999999986
    vertex -20.333191177446533 -57.819353932970614 17.9999999999999
    vertex -20.69655149491255 -113.36316107801423 17.99999999999986
  endloop
endfacet
facet normal -7.218947064989606e-16 -7.471914492721374e-16 1.0
  outer loop
    vertex -20.69655149491255 -113.36316107801423 17.99999999999986
    vertex -20.333191177446533 -57.819353932970614 17.9999999999999
    vertex -20.69655149491255 -58.36316107801422 17.9999999999999
  endloop
endfacet
facet normal -7.218947064989606e-16 -7.471914492721374e-16 1.0
  outer loop
    vertex -20.69655149491255 -113.36316107801423 17.99999999999986
    vertex -20.69655149491255 -58.36316107801422 17.9999999999999
    vertex -20.985822138546787 -58.94974391618878 17.999999999999897
  endloop
endfacet
facet normal -7.218947064989606e-16 -7.471914492721374e-16 1.0
  outer loop
    vertex -20.69655149491255 -113.36316107801423 17.99999999999986
    vertex -20.985822138546787 -58.94974391618878 17.999999999999897
    vertex -21.196053607435708 -112.15725630352684 17.99999999999984
  endloop
endfacet
facet normal -7.218947064989606e-16 -7.471914492721374e-16 1.0
  outer loop
    vertex -21.196053607435708 -112.15725630352684 17.99999999999984
    vertex -20.985822138546787 -58.94974391618878 17.999999999999897
    vertex -21.196053607435697 -59.569065852501616 17.9999999999999
  endloop
endfacet
facet normal -7.218947064989606e-16 -7.471914492721374e-16 1.0
  outer loop
    vertex -21.196053607435708 -112.15725630352684 17.99999999999984
    vertex -21.196053607435697 -59.569065852501616 17.9999999999999
    vertex -21.3236487828594 -60.21053011691396 17.9999999999999
  endloop
endfacet
facet normal -7.218947064989606e-16 -7.471914492721374e-16 1.0
  outer loop
    vertex -21.196053607435708 -112.15725630352684 17.99999999999984
    vertex -21.3236487828594 -60.21053011691396 17.9999999999999
    vertex -21.366424475990364 -110.86316107801426 17.99999999999984
  endloop
endfacet
facet normal -7.218947064989606e-16 -7.471914492721374e-16 1.0
  outer loop
    vertex -21.366424475990364 -110.86316107801426 17.99999999999984
    vertex -21.3236487828594 -60.21053011691396 17.9999999999999
    vertex -21.36642447599035 -60.86316107801422 17.9999999999999
  endloop
endfacet
facet normal -7.218947064989606e-16 -7.471914492721374e-16 1.0
  outer loop
    vertex 68.46320465545497 -59.569065852501616 17.999999999999964
    vertex 68.63357552400963 -110.86316107801426 17.999999999999904
    vertex 68.63357552400964 -60.86316107801422 17.999999999999964
  endloop
endfacet
facet normal -7.218947064989606e-16 -7.471914492721374e-16 1.0
  outer loop
    vertex 68.63357552400963 -110.86316107801426 17.999999999999904
    vertex 68.46320465545497 -59.569065852501616 17.999999999999964
    vertex 68.46320465545497 -112.15725630352684 17.999999999999904
  endloop
endfacet
facet normal -7.218947064989606e-16 -7.471914492721374e-16 1.0
  outer loop
    vertex 68.46320465545497 -112.15725630352684 17.999999999999904
    vertex 68.46320465545497 -59.569065852501616 17.999999999999964
    vertex 67.96370254293183 -58.36316107801422 17.99999999999996
  endloop
endfacet
facet normal -7.218947064989606e-16 -7.471914492721374e-16 1.0
  outer loop
    vertex 68.46320465545497 -112.15725630352684 17.999999999999904
    vertex 67.96370254293183 -58.36316107801422 17.99999999999996
    vertex 67.96370254293183 -113.36316107801423 17.999999999999922
  endloop
endfacet
facet normal -7.218947064989606e-16 -7.471914492721374e-16 1.0
  outer loop
    vertex 67.96370254293183 -113.36316107801423 17.999999999999922
    vertex 67.96370254293183 -58.36316107801422 17.99999999999996
    vertex 67.16910942994238 -57.32762717208147 17.99999999999996
  endloop
endfacet
facet normal -7.218947064989606e-16 -7.471914492721374e-16 1.0
  outer loop
    vertex 67.96370254293183 -113.36316107801423 17.999999999999922
    vertex 67.16910942994238 -57.32762717208147 17.99999999999996
    vertex 67.16910942994238 -114.39869498394695 17.999999999999925
  endloop
endfacet
facet normal -7.218947064989606e-16 -7.471914492721374e-16 1.0
  outer loop
    vertex 67.16910942994238 -114.39869498394695 17.999999999999925
    vertex 67.16910942994238 -57.32762717208147 17.99999999999996
    vertex 66.13357552400964 -56.53303405909203 17.99999999999996
  endloop
endfacet
facet normal -7.218947064989606e-16 -7.471914492721374e-16 1.0
  outer loop
    vertex 67.16910942994238 -114.39869498394695 17.999999999999925
    vertex 66.13357552400964 -56.53303405909203 17.99999999999996
    vertex 66.13357552400963 -115.19328809693641 17.99999999999992
  endloop
endfacet
facet normal -7.218947064989606e-16 -7.471914492721374e-16 1.0
  outer loop
    vertex 66.13357552400963 -115.19328809693641 17.99999999999992
    vertex 66.13357552400964 -56.53303405909203 17.99999999999996
    vertex 64.92767074952225 -56.03353194656887 17.999999999999964
  endloop
endfacet
facet normal -7.218947064989606e-16 -7.471914492721374e-16 1.0
  outer loop
    vertex 66.13357552400963 -115.19328809693641 17.99999999999992
    vertex 64.92767074952225 -56.03353194656887 17.999999999999964
    vertex 64.92767074952225 -115.69279020945957 17.999999999999922
  endloop
endfacet
facet normal -7.218947064989606e-16 -7.471914492721374e-16 1.0
  outer loop
    vertex 64.92767074952225 -115.69279020945957 17.999999999999922
    vertex 64.92767074952225 -56.03353194656887 17.999999999999964
    vertex 63.63357552400964 -55.86316107801423 17.999999999999964
  endloop
endfacet
facet normal -7.218947064989606e-16 -7.471914492721374e-16 1.0
  outer loop
    vertex 64.92767074952225 -115.69279020945957 17.999999999999922
    vertex 63.63357552400964 -55.86316107801423 17.999999999999964
    vertex 63.63357552400964 -115.86316107801424 17.999999999999922
  endloop
endfacet
facet normal -7.218947064989606e-16 -7.471914492721374e-16 1.0
  outer loop
    vertex 63.63357552400964 -115.86316107801424 17.999999999999922
    vertex 63.63357552400964 -55.86316107801423 17.999999999999964
    vertex 63.63357552400964 -62.363161078014215 17.999999999999947
  endloop
endfacet
facet normal -7.218947064989606e-16 -7.471914492721374e-16 1.0
  outer loop
    vertex 63.63357552400964 -115.86316107801424 17.999999999999922
    vertex 63.63357552400964 -62.363161078014215 17.999999999999947
    vertex 63.63357552400964 -109.36316107801423 17.9999999999999
  endloop
endfacet
facet normal -7.218947064989606e-16 -7.471914492721374e-16 1.0
  outer loop
    vertex 63.63357552400964 -115.86316107801424 17.999999999999922
    vertex 63.63357552400964 -109.36316107801423 17.9999999999999
    vertex 63.58246426344324 -109.75138964566803 17.9999999999999
  endloop
endfacet
facet normal -7.218947064989606e-16 -7.471914492721374e-16 1.0
  outer loop
    vertex 63.63357552400964 -115.86316107801424 17.999999999999922
    vertex 63.58246426344324 -109.75138964566803 17.9999999999999
    vertex 63.4326136296863 -110.11316107801424 17.9999999999999
  endloop
endfacet
facet normal -7.218947064989606e-16 -7.471914492721374e-16 1.0
  outer loop
    vertex 63.63357552400964 -115.86316107801424 17.999999999999922
    vertex 63.4326136296863 -110.11316107801424 17.9999999999999
    vertex 63.194235695789466 -110.42382124979407 17.9999999999999
  endloop
endfacet
facet normal -7.218947064989606e-16 -7.471914492721374e-16 1.0
  outer loop
    vertex 63.63357552400964 -115.86316107801424 17.999999999999922
    vertex 63.194235695789466 -110.42382124979407 17.9999999999999
    vertex 62.88357552400964 -110.6621991836909 17.9999999999999
  endloop
endfacet
facet normal -7.218947064989606e-16 -7.471914492721374e-16 1.0
  outer loop
    vertex 63.63357552400964 -115.86316107801424 17.999999999999922
    vertex 62.88357552400964 -110.6621991836909 17.9999999999999
    vertex 62.52180409166342 -110.81204981744783 17.9999999999999
  endloop
endfacet
facet normal -7.218947064989606e-16 -7.471914492721374e-16 1.0
  outer loop
    vertex 63.63357552400964 -115.86316107801424 17.999999999999922
    vertex 62.52180409166342 -110.81204981744783 17.9999999999999
    vertex 62.13357552400964 -110.86316107801426 17.999999999999897
  endloop
endfacet
facet normal -7.218947064989606e-16 -7.471914492721374e-16 1.0
  outer loop
    vertex 63.63357552400964 -115.86316107801424 17.999999999999922
    vertex 62.13357552400964 -110.86316107801426 17.999999999999897
    vertex -16.36642447599036 -115.86316107801424 17.99999999999986
  endloop
endfacet
facet normal -7.218947064989606e-16 -7.471914492721374e-16 1.0
  outer loop
    vertex -16.36642447599036 -115.86316107801424 17.99999999999986
    vertex 62.13357552400964 -110.86316107801426 17.999999999999897
    vertex -14.866424475990362 -110.86316107801426 17.999999999999847
  endloop
endfacet
facet normal -7.218947064989606e-16 -7.471914492721374e-16 1.0
  outer loop
    vertex -16.36642447599036 -115.86316107801424 17.99999999999986
    vertex -14.866424475990362 -110.86316107801426 17.999999999999847
    vertex -15.254653043644142 -110.81204981744783 17.999999999999847
  endloop
endfacet
facet normal -7.218947064989606e-16 -7.471914492721374e-16 1.0
  outer loop
    vertex -16.36642447599036 -115.86316107801424 17.99999999999986
    vertex -15.254653043644142 -110.81204981744783 17.999999999999847
    vertex -15.616424475990362 -110.6621991836909 17.999999999999847
  endloop
endfacet
facet normal -7.218947064989606e-16 -7.471914492721374e-16 1.0
  outer loop
    vertex -16.36642447599036 -115.86316107801424 17.99999999999986
    vertex -15.616424475990362 -110.6621991836909 17.999999999999847
    vertex -15.927084647770187 -110.42382124979403 17.999999999999847
  endloop
endfacet
facet normal -7.218947064989606e-16 -7.471914492721374e-16 1.0
  outer loop
    vertex -16.36642447599036 -115.86316107801424 17.99999999999986
    vertex -15.927084647770187 -110.42382124979403 17.999999999999847
    vertex -16.165462581667015 -110.11316107801424 17.999999999999847
  endloop
endfacet
facet normal -7.218947064989606e-16 -7.471914492721374e-16 1.0
  outer loop
    vertex -16.36642447599036 -115.86316107801424 17.99999999999986
    vertex -16.165462581667015 -110.11316107801424 17.999999999999847
    vertex -16.315313215423966 -109.75138964566803 17.999999999999847
  endloop
endfacet
facet normal -7.218947064989606e-16 -7.471914492721374e-16 1.0
  outer loop
    vertex -16.36642447599036 -115.86316107801424 17.99999999999986
    vertex -16.315313215423966 -109.75138964566803 17.999999999999847
    vertex -16.36642447599036 -109.36316107801423 17.999999999999847
  endloop
endfacet
facet normal -9.101944917174073e-31 1.0 7.147060721024441e-16
  outer loop
    vertex -16.36642447599036 -55.86316107801423 17.9999999999999
    vertex 63.63357552400965 -55.863161078014215 -7.12874204111813e-14
    vertex -16.36642447599035 -55.863161078014215 -1.2901901769168943e-13
  endloop
endfacet
facet normal -9.101944917174073e-31 1.0 7.147060721024441e-16
  outer loop
    vertex 63.63357552400965 -55.863161078014215 -7.12874204111813e-14
    vertex -16.36642447599036 -55.86316107801423 17.9999999999999
    vertex 63.63357552400964 -55.86316107801423 17.999999999999964
  endloop
endfacet
facet normal 1.409983241273958e-16 -1.0 -7.14706072102444e-16
  outer loop
    vertex 63.63357552400964 -115.86316107801424 17.999999999999922
    vertex -16.36642447599035 -115.86316107801424 -1.7190138201783608e-13
    vertex 63.63357552400965 -115.86316107801422 -1.1416978473732794e-13
  endloop
endfacet
facet normal 1.409983241273958e-16 -1.0 -7.14706072102444e-16
  outer loop
    vertex -16.36642447599035 -115.86316107801424 -1.7190138201783608e-13
    vertex 63.63357552400964 -115.86316107801424 17.999999999999922
    vertex -16.36642447599036 -115.86316107801424 17.99999999999986
  endloop
endfacet
facet normal 1.0 -1.6919798895287337e-16 7.216449660063517e-16
  outer loop
    vertex 68.63357552400963 -110.86316107801426 17.999999999999904
    vertex 68.63357552400966 -60.86316107801421 -3.5735303605122116e-15
    vertex 68.63357552400964 -60.86316107801422 17.999999999999964
  endloop
endfacet
facet normal 1.0 -1.6919798895287337e-16 7.216449660063517e-16
  outer loop
    vertex 68.63357552400966 -60.86316107801421 -3.5735303605122116e-15
    vertex 68.63357552400963 -110.86316107801426 17.999999999999904
    vertex 68.63357552400964 -110.86316107801423 -1.0698802954678398e-13
  endloop
endfacet
facet normal -1.0 2.255973186038313e-16 -7.216449660063516e-16
  outer loop
    vertex -21.36642447599035 -110.86316107801423 -1.7193607648735564e-13
    vertex -21.36642447599035 -60.86316107801422 17.9999999999999
    vertex -21.36642447599034 -60.86316107801421 -6.852157730108387e-14
  endloop
endfacet
facet normal -1.0 2.255973186038313e-16 -7.216449660063516e-16
  outer loop
    vertex -21.36642447599035 -60.86316107801422 17.9999999999999
    vertex -21.36642447599035 -110.86316107801423 -1.7193607648735564e-13
    vertex -21.366424475990364 -110.86316107801426 17.99999999999984
  endloop
endfacet
facet normal 6.867553654549885e-16 8.680744418220151e-16 -1.0
  outer loop
    vertex 68.63357552400964 -110.86316107801423 -1.0698802954678398e-13
    vertex 68.463204655455 -59.56906585250161 -2.771579924606166e-15
    vertex 68.63357552400966 -60.86316107801421 -3.5735303605122116e-15
  endloop
endfacet
facet normal 6.867553654549885e-16 8.680744418220151e-16 -1.0
  outer loop
    vertex 68.463204655455 -59.56906585250161 -2.771579924606166e-15
    vertex 68.63357552400964 -110.86316107801423 -1.0698802954678398e-13
    vertex 68.46320465545499 -112.15725630352684 -1.0803587454198322e-13
  endloop
endfacet
facet normal 6.867553654549885e-16 8.680744418220151e-16 -1.0
  outer loop
    vertex 68.463204655455 -59.56906585250161 -2.771579924606166e-15
    vertex 68.46320465545499 -112.15725630352684 -1.0803587454198322e-13
    vertex 67.96370254293184 -58.363161078014215 -2.2701756449145748e-15
  endloop
endfacet
facet normal 6.867553654549885e-16 8.680744418220151e-16 -1.0
  outer loop
    vertex 67.96370254293184 -58.363161078014215 -2.2701756449145748e-15
    vertex 68.46320465545499 -112.15725630352684 -1.0803587454198322e-13
    vertex 67.96370254293184 -113.36316107801423 -1.0925820519169856e-13
  endloop
endfacet
facet normal 6.867553654549885e-16 8.680744418220151e-16 -1.0
  outer loop
    vertex 67.96370254293184 -58.363161078014215 -2.2701756449145748e-15
    vertex 67.96370254293184 -113.36316107801423 -1.0925820519169856e-13
    vertex 67.16910942994238 -114.39869498394695 -1.1057172168214879e-13
  endloop
endfacet
facet normal 6.867553654549885e-16 8.680744418220151e-16 -1.0
  outer loop
    vertex 67.96370254293184 -58.363161078014215 -2.2701756449145748e-15
    vertex 67.16910942994238 -114.39869498394695 -1.1057172168214879e-13
    vertex 67.1691094299424 -57.32762717208146 -6.978268297563817e-14
  endloop
endfacet
facet normal 6.867553654549885e-16 8.680744418220151e-16 -1.0
  outer loop
    vertex 67.1691094299424 -57.32762717208146 -6.978268297563817e-14
    vertex 67.16910942994238 -114.39869498394695 -1.1057172168214879e-13
    vertex 66.13357552400966 -56.53303405909202 -6.996207028327909e-14
  endloop
endfacet
facet normal 6.867553654549885e-16 8.680744418220151e-16 -1.0
  outer loop
    vertex 66.13357552400966 -56.53303405909202 -6.996207028327909e-14
    vertex 67.16910942994238 -114.39869498394695 -1.1057172168214879e-13
    vertex 66.13357552400964 -115.19328809693641 -1.118869100351984e-13
  endloop
endfacet
facet normal 6.867553654549885e-16 8.680744418220151e-16 -1.0
  outer loop
    vertex 66.13357552400966 -56.53303405909202 -6.996207028327909e-14
    vertex 66.13357552400964 -115.19328809693641 -1.118869100351984e-13
    vertex 64.92767074952225 -56.03353194656886 -7.047530820042264e-14
  endloop
endfacet
facet normal 6.867553654549885e-16 8.680744418220151e-16 -1.0
  outer loop
    vertex 64.92767074952225 -56.03353194656886 -7.047530820042264e-14
    vertex 66.13357552400964 -115.19328809693641 -1.118869100351984e-13
    vertex 64.92767074952225 -115.69279020945957 -1.1311414233803854e-13
  endloop
endfacet
facet normal 6.867553654549885e-16 8.680744418220151e-16 -1.0
  outer loop
    vertex 64.92767074952225 -56.03353194656886 -7.047530820042264e-14
    vertex 64.92767074952225 -115.69279020945957 -1.1311414233803854e-13
    vertex 63.63357552400965 -115.86316107801422 -1.1416978473732794e-13
  endloop
endfacet
facet normal 6.867553654549885e-16 8.680744418220151e-16 -1.0
  outer loop
    vertex 64.92767074952225 -56.03353194656886 -7.047530820042264e-14
    vertex 63.63357552400965 -115.86316107801422 -1.1416978473732794e-13
    vertex 63.63357552400965 -55.863161078014215 -7.12874204111813e-14
  endloop
endfacet
facet normal 6.867553654549885e-16 8.680744418220151e-16 -1.0
  outer loop
    vertex 63.63357552400965 -55.863161078014215 -7.12874204111813e-14
    vertex 63.63357552400965 -115.86316107801422 -1.1416978473732794e-13
    vertex -16.36642447599035 -115.86316107801424 -1.7190138201783608e-13
  endloop
endfacet
facet normal 6.867553654549885e-16 8.680744418220151e-16 -1.0
  outer loop
    vertex 63.63357552400965 -55.863161078014215 -7.12874204111813e-14
    vertex -16.36642447599035 -115.86316107801424 -1.7190138201783608e-13
    vertex -16.36642447599035 -55.863161078014215 -1.2901901769168943e-13
  endloop
endfacet
facet normal 6.867553654549885e-16 8.680744418220151e-16 -1.0
  outer loop
    vertex -16.36642447599035 -55.863161078014215 -1.2901901769168943e-13
    vertex -16.36642447599035 -115.86316107801424 -1.7190138201783608e-13
    vertex -17.660519701502952 -115.69279020945957 -1.7271349422859474e-13
  endloop
endfacet
facet normal 6.867553654549885e-16 8.680744418220151e-16 -1.0
  outer loop
    vertex -16.36642447599035 -55.863161078014215 -1.2901901769168943e-13
    vertex -17.660519701502952 -115.69279020945957 -1.7271349422859474e-13
    vertex -17.019055437090604 -55.90593677114517 -1.295205575870464e-13
  endloop
endfacet
facet normal 6.867553654549885e-16 8.680744418220151e-16 -1.0
  outer loop
    vertex -17.019055437090604 -55.90593677114517 -1.295205575870464e-13
    vertex -17.660519701502952 -115.69279020945957 -1.7271349422859474e-13
    vertex -17.660519701502952 -56.033531946568885 -1.3007466009097885e-13
  endloop
endfacet
facet normal 6.867553654549885e-16 8.680744418220151e-16 -1.0
  outer loop
    vertex -17.660519701502952 -56.033531946568885 -1.3007466009097885e-13
    vertex -17.660519701502952 -115.69279020945957 -1.7271349422859474e-13
    vertex -18.866424475990357 -115.19328809693641 -1.732267321457383e-13
  endloop
endfacet
facet normal 6.867553654549885e-16 8.680744418220151e-16 -1.0
  outer loop
    vertex -17.660519701502952 -56.033531946568885 -1.3007466009097885e-13
    vertex -18.866424475990357 -115.19328809693641 -1.732267321457383e-13
    vertex -18.279841637815796 -56.24376341545779 -1.3067184435601824e-13
  endloop
endfacet
facet normal 6.867553654549885e-16 8.680744418220151e-16 -1.0
  outer loop
    vertex -18.279841637815796 -56.24376341545779 -1.3067184435601824e-13
    vertex -18.866424475990357 -115.19328809693641 -1.732267321457383e-13
    vertex -18.866424475990343 -56.53303405909202 -1.3130189239381897e-13
  endloop
endfacet
facet normal 6.867553654549885e-16 8.680744418220151e-16 -1.0
  outer loop
    vertex -18.866424475990343 -56.53303405909202 -1.3130189239381897e-13
    vertex -18.866424475990357 -115.19328809693641 -1.732267321457383e-13
    vertex -19.41023162103395 -56.896394376558035 -1.3195402390777205e-13
  endloop
endfacet
facet normal 6.867553654549885e-16 8.680744418220151e-16 -1.0
  outer loop
    vertex -19.41023162103395 -56.896394376558035 -1.3195402390777205e-13
    vertex -18.866424475990357 -115.19328809693641 -1.732267321457383e-13
    vertex -19.901958381923084 -114.39869498394695 -1.7340611945337923e-13
  endloop
endfacet
facet normal 6.867553654549885e-16 8.680744418220151e-16 -1.0
  outer loop
    vertex -19.41023162103395 -56.896394376558035 -1.3195402390777205e-13
    vertex -19.901958381923084 -114.39869498394695 -1.7340611945337923e-13
    vertex -19.901958381923084 -57.327627172081485 -1.3261708074686863e-13
  endloop
endfacet
facet normal 6.867553654549885e-16 8.680744418220151e-16 -1.0
  outer loop
    vertex -19.901958381923084 -57.327627172081485 -1.3261708074686863e-13
    vertex -19.901958381923084 -114.39869498394695 -1.7340611945337923e-13
    vertex -20.69655149491254 -113.36316107801423 -1.7323943120295325e-13
  endloop
endfacet
facet normal 6.867553654549885e-16 8.680744418220151e-16 -1.0
  outer loop
    vertex -19.901958381923084 -57.327627172081485 -1.3261708074686863e-13
    vertex -20.69655149491254 -113.36316107801423 -1.7323943120295325e-13
    vertex -20.333191177446523 -57.81935393297061 -6.560052224360812e-14
  endloop
endfacet
facet normal 6.867553654549885e-16 8.680744418220151e-16 -1.0
  outer loop
    vertex -20.333191177446523 -57.81935393297061 -6.560052224360812e-14
    vertex -20.69655149491254 -113.36316107801423 -1.7323943120295325e-13
    vertex -20.69655149491254 -58.363161078014215 -6.625140165616929e-14
  endloop
endfacet
facet normal 6.867553654549885e-16 8.680744418220151e-16 -1.0
  outer loop
    vertex -20.69655149491254 -58.363161078014215 -6.625140165616929e-14
    vertex -20.69655149491254 -113.36316107801423 -1.7323943120295325e-13
    vertex -21.196053607435697 -112.15725630352684 -1.727380269232617e-13
  endloop
endfacet
facet normal 6.867553654549885e-16 8.680744418220151e-16 -1.0
  outer loop
    vertex -20.69655149491254 -58.363161078014215 -6.625140165616929e-14
    vertex -21.196053607435697 -112.15725630352684 -1.727380269232617e-13
    vertex -20.985822138546776 -58.94974391618877 -6.687938667619581e-14
  endloop
endfacet
facet normal 6.867553654549885e-16 8.680744418220151e-16 -1.0
  outer loop
    vertex -20.985822138546776 -58.94974391618877 -6.687938667619581e-14
    vertex -21.196053607435697 -112.15725630352684 -1.727380269232617e-13
    vertex -21.196053607435687 -59.56906585250161 -6.747373230588464e-14
  endloop
endfacet
facet normal 6.867553654549885e-16 8.680744418220151e-16 -1.0
  outer loop
    vertex -21.196053607435687 -59.56906585250161 -6.747373230588464e-14
    vertex -21.196053607435697 -112.15725630352684 -1.727380269232617e-13
    vertex -21.32364878285939 -60.210530116913944 -6.802426912672809e-14
  endloop
endfacet
facet normal 6.867553654549885e-16 8.680744418220151e-16 -1.0
  outer loop
    vertex -21.32364878285939 -60.210530116913944 -6.802426912672809e-14
    vertex -21.196053607435697 -112.15725630352684 -1.727380269232617e-13
    vertex -21.36642447599035 -110.86316107801423 -1.7193607648735564e-13
  endloop
endfacet
facet normal 6.867553654549885e-16 8.680744418220151e-16 -1.0
  outer loop
    vertex -21.32364878285939 -60.210530116913944 -6.802426912672809e-14
    vertex -21.36642447599035 -110.86316107801423 -1.7193607648735564e-13
    vertex -21.36642447599034 -60.86316107801421 -6.852157730108387e-14
  endloop
endfacet
facet normal -0.9978589232386034 0.06540312923014675 -6.732481412207689e-16
  outer loop
    vertex -21.36642447599034 -60.86316107801421 -6.852157730108387e-14
    vertex -21.3236487828594 -60.21053011691396 17.9999999999999
    vertex -21.32364878285939 -60.210530116913944 -6.802426912672809e-14
  endloop
endfacet
facet normal -0.9978589232386034 0.06540312923014675 -6.732481412207689e-16
  outer loop
    vertex -21.3236487828594 -60.21053011691396 17.9999999999999
    vertex -21.36642447599034 -60.86316107801421 -6.852157730108387e-14
    vertex -21.36642447599035 -60.86316107801422 17.9999999999999
  endloop
endfacet
facet normal -0.9807852804032325 0.19509032201611845 -5.683465225827799e-16
  outer loop
    vertex -21.32364878285939 -60.210530116913944 -6.802426912672809e-14
    vertex -21.196053607435697 -59.569065852501616 17.9999999999999
    vertex -21.196053607435687 -59.56906585250161 -6.747373230588464e-14
  endloop
endfacet
facet normal -0.9807852804032325 0.19509032201611845 -5.683465225827799e-16
  outer loop
    vertex -21.196053607435697 -59.569065852501616 17.9999999999999
    vertex -21.32364878285939 -60.210530116913944 -6.802426912672809e-14
    vertex -21.3236487828594 -60.21053011691396 17.9999999999999
  endloop
endfacet
facet normal -0.946930129495103 0.3214394653031698 -4.536126234443455e-16
  outer loop
    vertex -21.196053607435687 -59.56906585250161 -6.747373230588464e-14
    vertex -20.985822138546787 -58.94974391618878 17.999999999999897
    vertex -20.985822138546776 -58.94974391618877 -6.687938667619581e-14
  endloop
endfacet
facet normal -0.946930129495103 0.3214394653031698 -4.536126234443455e-16
  outer loop
    vertex -20.985822138546787 -58.94974391618878 17.999999999999897
    vertex -21.196053607435687 -59.56906585250161 -6.747373230588464e-14
    vertex -21.196053607435697 -59.569065852501616 17.9999999999999
  endloop
endfacet
facet normal -0.8968727415326924 0.4422886902189932 -3.311172865536319e-16
  outer loop
    vertex -20.985822138546776 -58.94974391618877 -6.687938667619581e-14
    vertex -20.69655149491255 -58.36316107801422 17.9999999999999
    vertex -20.69655149491254 -58.363161078014215 -6.625140165616929e-14
  endloop
endfacet
facet normal -0.8968727415326924 0.4422886902189932 -3.311172865536319e-16
  outer loop
    vertex -20.69655149491255 -58.36316107801422 17.9999999999999
    vertex -20.985822138546776 -58.94974391618877 -6.687938667619581e-14
    vertex -20.985822138546787 -58.94974391618878 17.999999999999897
  endloop
endfacet
facet normal -0.8314696123025479 0.5555702330195982 -2.0295644108691006e-16
  outer loop
    vertex -20.69655149491254 -58.363161078014215 -6.625140165616929e-14
    vertex -20.333191177446533 -57.819353932970614 17.9999999999999
    vertex -20.333191177446523 -57.81935393297061 -6.560052224360812e-14
  endloop
endfacet
facet normal -0.8314696123025479 0.5555702330195982 -2.0295644108691006e-16
  outer loop
    vertex -20.333191177446533 -57.819353932970614 17.9999999999999
    vertex -20.69655149491254 -58.363161078014215 -6.625140165616929e-14
    vertex -20.69655149491255 -58.36316107801422 17.9999999999999
  endloop
endfacet
facet normal -0.7518398074789683 0.6593458151000793 -7.132295464302003e-17
  outer loop
    vertex -20.333191177446523 -57.81935393297061 -6.560052224360812e-14
    vertex -19.901958381923095 -57.3276271720815 17.9999999999999
    vertex -19.901958381923084 -57.327627172081485 -1.3261708074686863e-13
  endloop
endfacet
facet normal -0.7518398074789683 0.6593458151000793 -7.132295464302003e-17
  outer loop
    vertex -19.901958381923095 -57.3276271720815 17.9999999999999
    vertex -20.333191177446523 -57.81935393297061 -6.560052224360812e-14
    vertex -20.333191177446533 -57.819353932970614 17.9999999999999
  endloop
endfacet
facet normal -0.6593458151000805 0.7518398074789672 6.153088732922253e-17
  outer loop
    vertex -19.901958381923095 -57.3276271720815 17.9999999999999
    vertex -19.41023162103395 -56.896394376558035 -1.3195402390777205e-13
    vertex -19.901958381923084 -57.327627172081485 -1.3261708074686863e-13
  endloop
endfacet
facet normal -0.6593458151000805 0.7518398074789672 6.153088732922253e-17
  outer loop
    vertex -19.41023162103395 -56.896394376558035 -1.3195402390777205e-13
    vertex -19.901958381923095 -57.3276271720815 17.9999999999999
    vertex -19.41023162103396 -56.89639437655805 17.9999999999999
  endloop
endfacet
facet normal -0.5555702330195982 0.8314696123025479 1.9333191875972722e-16
  outer loop
    vertex -19.41023162103396 -56.89639437655805 17.9999999999999
    vertex -18.866424475990343 -56.53303405909202 -1.3130189239381897e-13
    vertex -19.41023162103395 -56.896394376558035 -1.3195402390777205e-13
  endloop
endfacet
facet normal -0.5555702330195982 0.8314696123025479 1.9333191875972722e-16
  outer loop
    vertex -18.866424475990343 -56.53303405909202 -1.3130189239381897e-13
    vertex -19.41023162103396 -56.89639437655805 17.9999999999999
    vertex -18.866424475990357 -56.53303405909203 17.9999999999999
  endloop
endfacet
facet normal -0.4422886902189861 0.8968727415326957 3.2182498745850923e-16
  outer loop
    vertex -18.866424475990343 -56.53303405909202 -1.3130189239381897e-13
    vertex -18.27984163781581 -56.243763415457806 17.999999999999904
    vertex -18.279841637815796 -56.24376341545779 -1.3067184435601824e-13
  endloop
endfacet
facet normal -0.4422886902189861 0.8968727415326957 3.2182498745850923e-16
  outer loop
    vertex -18.27984163781581 -56.243763415457806 17.999999999999904
    vertex -18.866424475990343 -56.53303405909202 -1.3130189239381897e-13
    vertex -18.866424475990357 -56.53303405909203 17.9999999999999
  endloop
endfacet
facet normal -0.32143946530316453 0.9469301294951047 4.44811541395103e-16
  outer loop
    vertex -18.27984163781581 -56.243763415457806 17.999999999999904
    vertex -17.660519701502952 -56.033531946568885 -1.3007466009097885e-13
    vertex -18.279841637815796 -56.24376341545779 -1.3067184435601824e-13
  endloop
endfacet
facet normal -0.32143946530316453 0.9469301294951047 4.44811541395103e-16
  outer loop
    vertex -17.660519701502952 -56.033531946568885 -1.3007466009097885e-13
    vertex -18.27984163781581 -56.243763415457806 17.999999999999904
    vertex -17.660519701502963 -56.03353194656889 17.999999999999904
  endloop
endfacet
facet normal -0.19509032201613172 0.9807852804032299 5.601872465333871e-16
  outer loop
    vertex -17.660519701502952 -56.033531946568885 -1.3007466009097885e-13
    vertex -17.019055437090614 -55.90593677114518 17.999999999999904
    vertex -17.019055437090604 -55.90593677114517 -1.295205575870464e-13
  endloop
endfacet
facet normal -0.19509032201613172 0.9807852804032299 5.601872465333871e-16
  outer loop
    vertex -17.019055437090614 -55.90593677114518 17.999999999999904
    vertex -17.660519701502952 -56.033531946568885 -1.3007466009097885e-13
    vertex -17.660519701502963 -56.03353194656889 17.999999999999904
  endloop
endfacet
facet normal -0.06540312923014789 0.9978589232386034 6.65983237743376e-16
  outer loop
    vertex -17.019055437090614 -55.90593677114518 17.999999999999904
    vertex -16.36642447599035 -55.863161078014215 -1.2901901769168943e-13
    vertex -17.019055437090604 -55.90593677114517 -1.295205575870464e-13
  endloop
endfacet
facet normal -0.06540312923014789 0.9978589232386034 6.65983237743376e-16
  outer loop
    vertex -16.36642447599035 -55.863161078014215 -1.2901901769168943e-13
    vertex -17.019055437090614 -55.90593677114518 17.999999999999904
    vertex -16.36642447599036 -55.86316107801423 17.9999999999999
  endloop
endfacet
facet normal -0.1305261922200476 -0.9914448613738109 -8.027852321262034e-16
  outer loop
    vertex -16.36642447599035 -115.86316107801424 -1.7190138201783608e-13
    vertex -17.660519701502963 -115.69279020945957 17.99999999999986
    vertex -17.660519701502952 -115.69279020945957 -1.7271349422859474e-13
  endloop
endfacet
facet normal -0.1305261922200476 -0.9914448613738109 -8.027852321262034e-16
  outer loop
    vertex -17.660519701502963 -115.69279020945957 17.99999999999986
    vertex -16.36642447599035 -115.86316107801424 -1.7190138201783608e-13
    vertex -16.36642447599036 -115.86316107801424 17.99999999999986
  endloop
endfacet
facet normal -0.3826834323650946 -0.9238795325112849 -9.364638843172854e-16
  outer loop
    vertex -17.660519701502963 -115.69279020945957 17.99999999999986
    vertex -18.866424475990357 -115.19328809693641 -1.732267321457383e-13
    vertex -17.660519701502952 -115.69279020945957 -1.7271349422859474e-13
  endloop
endfacet
facet normal -0.3826834323650946 -0.9238795325112849 -9.364638843172854e-16
  outer loop
    vertex -18.866424475990357 -115.19328809693641 -1.732267321457383e-13
    vertex -17.660519701502963 -115.69279020945957 17.99999999999986
    vertex -18.866424475990367 -115.19328809693641 17.99999999999986
  endloop
endfacet
facet normal -0.6087614290087238 -0.793353340291233 -1.0063240703718795e-15
  outer loop
    vertex -18.866424475990357 -115.19328809693641 -1.732267321457383e-13
    vertex -19.901958381923095 -114.39869498394695 17.99999999999986
    vertex -19.901958381923084 -114.39869498394695 -1.7340611945337923e-13
  endloop
endfacet
facet normal -0.6087614290087238 -0.793353340291233 -1.0063240703718795e-15
  outer loop
    vertex -19.901958381923095 -114.39869498394695 17.99999999999986
    vertex -18.866424475990357 -115.19328809693641 -1.732267321457383e-13
    vertex -18.866424475990367 -115.19328809693641 17.99999999999986
  endloop
endfacet
facet normal -0.7933533402912362 -0.6087614290087197 -1.0076049340597876e-15
  outer loop
    vertex -20.69655149491254 -113.36316107801423 -1.7323943120295325e-13
    vertex -19.901958381923095 -114.39869498394695 17.99999999999986
    vertex -20.69655149491255 -113.36316107801423 17.99999999999986
  endloop
endfacet
facet normal -0.7933533402912362 -0.6087614290087197 -1.0076049340597876e-15
  outer loop
    vertex -19.901958381923095 -114.39869498394695 17.99999999999986
    vertex -20.69655149491254 -113.36316107801423 -1.7323943120295325e-13
    vertex -19.901958381923084 -114.39869498394695 -1.7340611945337923e-13
  endloop
endfacet
facet normal -0.9238795325112836 -0.3826834323650976 -9.402191866374097e-16
  outer loop
    vertex -21.196053607435697 -112.15725630352684 -1.727380269232617e-13
    vertex -20.69655149491255 -113.36316107801423 17.99999999999986
    vertex -21.196053607435708 -112.15725630352684 17.99999999999984
  endloop
endfacet
facet normal -0.9238795325112836 -0.3826834323650976 -9.402191866374097e-16
  outer loop
    vertex -20.69655149491255 -113.36316107801423 17.99999999999986
    vertex -21.196053607435697 -112.15725630352684 -1.727380269232617e-13
    vertex -20.69655149491254 -113.36316107801423 -1.7323943120295325e-13
  endloop
endfacet
facet normal -0.9914448613738109 -0.1305261922200476 -8.087590554313548e-16
  outer loop
    vertex -21.196053607435697 -112.15725630352684 -1.727380269232617e-13
    vertex -21.366424475990364 -110.86316107801426 17.99999999999984
    vertex -21.36642447599035 -110.86316107801423 -1.7193607648735564e-13
  endloop
endfacet
facet normal -0.9914448613738109 -0.1305261922200476 -8.087590554313548e-16
  outer loop
    vertex -21.366424475990364 -110.86316107801426 17.99999999999984
    vertex -21.196053607435697 -112.15725630352684 -1.727380269232617e-13
    vertex -21.196053607435708 -112.15725630352684 17.99999999999984
  endloop
endfacet
facet normal 0.13052619222003914 0.991444861373812 8.027852321261981e-16
  outer loop
    vertex 63.63357552400964 -55.86316107801423 17.999999999999964
    vertex 64.92767074952225 -56.03353194656886 -7.047530820042264e-14
    vertex 63.63357552400965 -55.863161078014215 -7.12874204111813e-14
  endloop
endfacet
facet normal 0.13052619222003914 0.991444861373812 8.027852321261981e-16
  outer loop
    vertex 64.92767074952225 -56.03353194656886 -7.047530820042264e-14
    vertex 63.63357552400964 -55.86316107801423 17.999999999999964
    vertex 64.92767074952225 -56.03353194656887 17.999999999999964
  endloop
endfacet
facet normal 0.3826834323650969 0.923879532511284 9.364638843172866e-16
  outer loop
    vertex 64.92767074952225 -56.03353194656887 17.999999999999964
    vertex 66.13357552400966 -56.53303405909202 -6.996207028327909e-14
    vertex 64.92767074952225 -56.03353194656886 -7.047530820042264e-14
  endloop
endfacet
facet normal 0.3826834323650969 0.923879532511284 9.364638843172866e-16
  outer loop
    vertex 66.13357552400966 -56.53303405909202 -6.996207028327909e-14
    vertex 64.92767074952225 -56.03353194656887 17.999999999999964
    vertex 66.13357552400964 -56.53303405909203 17.99999999999996
  endloop
endfacet
facet normal 0.6087614290087152 0.7933533402912393 1.0063240703718777e-15
  outer loop
    vertex 66.13357552400964 -56.53303405909203 17.99999999999996
    vertex 67.1691094299424 -57.32762717208146 -6.978268297563817e-14
    vertex 66.13357552400966 -56.53303405909202 -6.996207028327909e-14
  endloop
endfacet
facet normal 0.6087614290087152 0.7933533402912393 1.0063240703718777e-15
  outer loop
    vertex 67.1691094299424 -57.32762717208146 -6.978268297563817e-14
    vertex 66.13357552400964 -56.53303405909203 17.99999999999996
    vertex 67.16910942994238 -57.32762717208147 17.99999999999996
  endloop
endfacet
facet normal 0.7933533402912393 0.6087614290087154 1.007604934059787e-15
  outer loop
    vertex 67.96370254293183 -58.36316107801422 17.99999999999996
    vertex 67.1691094299424 -57.32762717208146 -6.978268297563817e-14
    vertex 67.16910942994238 -57.32762717208147 17.99999999999996
  endloop
endfacet
facet normal 0.7933533402912393 0.6087614290087154 1.007604934059787e-15
  outer loop
    vertex 67.1691094299424 -57.32762717208146 -6.978268297563817e-14
    vertex 67.96370254293183 -58.36316107801422 17.99999999999996
    vertex 67.96370254293184 -58.363161078014215 -2.2701756449145748e-15
  endloop
endfacet
facet normal 0.9238795325112866 0.3826834323650902 9.402191866374065e-16
  outer loop
    vertex 68.46320465545497 -59.569065852501616 17.999999999999964
    vertex 67.96370254293184 -58.363161078014215 -2.2701756449145748e-15
    vertex 67.96370254293183 -58.36316107801422 17.99999999999996
  endloop
endfacet
facet normal 0.9238795325112866 0.3826834323650902 9.402191866374065e-16
  outer loop
    vertex 67.96370254293184 -58.363161078014215 -2.2701756449145748e-15
    vertex 68.46320465545497 -59.569065852501616 17.999999999999964
    vertex 68.463204655455 -59.56906585250161 -2.771579924606166e-15
  endloop
endfacet
facet normal 0.9914448613738105 0.13052619222005188 8.087590554313575e-16
  outer loop
    vertex 68.63357552400964 -60.86316107801422 17.999999999999964
    vertex 68.463204655455 -59.56906585250161 -2.771579924606166e-15
    vertex 68.46320465545497 -59.569065852501616 17.999999999999964
  endloop
endfacet
facet normal 0.9914448613738105 0.13052619222005188 8.087590554313575e-16
  outer loop
    vertex 68.463204655455 -59.56906585250161 -2.771579924606166e-15
    vertex 68.63357552400964 -60.86316107801422 17.999999999999964
    vertex 68.63357552400966 -60.86316107801421 -3.5735303605122116e-15
  endloop
endfacet
facet normal 0.9914448613738105 -0.13052619222005185 6.221833311351938e-16
  outer loop
    vertex 68.46320465545497 -112.15725630352684 17.999999999999904
    vertex 68.63357552400964 -110.86316107801423 -1.0698802954678398e-13
    vertex 68.63357552400963 -110.86316107801426 17.999999999999904
  endloop
endfacet
facet normal 0.9914448613738105 -0.13052619222005185 6.221833311351938e-16
  outer loop
    vertex 68.63357552400964 -110.86316107801423 -1.0698802954678398e-13
    vertex 68.46320465545497 -112.15725630352684 17.999999999999904
    vertex 68.46320465545499 -112.15725630352684 -1.0803587454198322e-13
  endloop
endfacet
facet normal 0.9238795325112866 -0.3826834323650902 3.932068410287366e-16
  outer loop
    vertex 67.96370254293183 -113.36316107801423 17.999999999999922
    vertex 68.46320465545499 -112.15725630352684 -1.0803587454198322e-13
    vertex 68.46320465545497 -112.15725630352684 17.999999999999904
  endloop
endfacet
facet normal 0.9238795325112866 -0.3826834323650902 3.932068410287366e-16
  outer loop
    vertex 68.46320465545499 -112.15725630352684 -1.0803587454198322e-13
    vertex 67.96370254293183 -113.36316107801423 17.999999999999922
    vertex 67.96370254293184 -113.36316107801423 -1.0925820519169856e-13
  endloop
endfacet
facet normal 0.7933533402912369 -0.6087614290087182 1.3743395451120332e-16
  outer loop
    vertex 67.16910942994238 -114.39869498394695 17.999999999999925
    vertex 67.96370254293184 -113.36316107801423 -1.0925820519169856e-13
    vertex 67.96370254293183 -113.36316107801423 17.999999999999922
  endloop
endfacet
facet normal 0.7933533402912369 -0.6087614290087182 1.3743395451120332e-16
  outer loop
    vertex 67.96370254293184 -113.36316107801423 -1.0925820519169856e-13
    vertex 67.16910942994238 -114.39869498394695 17.999999999999925
    vertex 67.16910942994238 -114.39869498394695 -1.1057172168214879e-13
  endloop
endfacet
facet normal 0.6087614290087207 -0.7933533402912354 -1.2770482888592655e-16
  outer loop
    vertex 67.16910942994238 -114.39869498394695 17.999999999999925
    vertex 66.13357552400964 -115.19328809693641 -1.118869100351984e-13
    vertex 67.16910942994238 -114.39869498394695 -1.1057172168214879e-13
  endloop
endfacet
facet normal 0.6087614290087207 -0.7933533402912354 -1.2770482888592655e-16
  outer loop
    vertex 66.13357552400964 -115.19328809693641 -1.118869100351984e-13
    vertex 67.16910942994238 -114.39869498394695 17.999999999999925
    vertex 66.13357552400963 -115.19328809693641 17.99999999999992
  endloop
endfacet
facet normal 0.3826834323650902 -0.9238795325112866 -3.8414073923668446e-16
  outer loop
    vertex 66.13357552400963 -115.19328809693641 17.99999999999992
    vertex 64.92767074952225 -115.69279020945957 -1.1311414233803854e-13
    vertex 66.13357552400964 -115.19328809693641 -1.118869100351984e-13
  endloop
endfacet
facet normal 0.3826834323650902 -0.9238795325112866 -3.8414073923668446e-16
  outer loop
    vertex 64.92767074952225 -115.69279020945957 -1.1311414233803854e-13
    vertex 66.13357552400963 -115.19328809693641 17.99999999999992
    vertex 64.92767074952225 -115.69279020945957 17.999999999999922
  endloop
endfacet
facet normal 0.1305261922200476 -0.9914448613738109 -6.143980930310539e-16
  outer loop
    vertex 64.92767074952225 -115.69279020945957 17.999999999999922
    vertex 63.63357552400965 -115.86316107801422 -1.1416978473732794e-13
    vertex 64.92767074952225 -115.69279020945957 -1.1311414233803854e-13
  endloop
endfacet
facet normal 0.1305261922200476 -0.9914448613738109 -6.143980930310539e-16
  outer loop
    vertex 63.63357552400965 -115.86316107801422 -1.1416978473732794e-13
    vertex 64.92767074952225 -115.69279020945957 17.999999999999922
    vertex 63.63357552400964 -115.86316107801424 17.999999999999922
  endloop
endfacet
facet normal -7.216449660063518e-16 -9.23356541461597e-16 1.0
  outer loop
    vertex 63.582464263443256 -61.974932510360425 3.000000000000031
    vertex 63.63357552400965 -109.36316107801423 2.99999999999993
    vertex 63.63357552400965 -62.363161078014215 3.0000000000000315
  endloop
endfacet
facet normal -7.216449660063518e-16 -9.23356541461597e-16 1.0
  outer loop
    vertex 63.63357552400965 -109.36316107801423 2.99999999999993
    vertex 63.582464263443256 -61.974932510360425 3.000000000000031
    vertex 63.582464263443256 -109.75138964566801 2.9999999999999294
  endloop
endfacet
facet normal -7.216449660063518e-16 -9.23356541461597e-16 1.0
  outer loop
    vertex 63.582464263443256 -109.75138964566801 2.9999999999999294
    vertex 63.582464263443256 -61.974932510360425 3.000000000000031
    vertex 63.432613629686315 -61.61316107801421 3.000000000000032
  endloop
endfacet
facet normal -7.216449660063518e-16 -9.23356541461597e-16 1.0
  outer loop
    vertex 63.582464263443256 -109.75138964566801 2.9999999999999294
    vertex 63.432613629686315 -61.61316107801421 3.000000000000032
    vertex 63.432613629686315 -110.11316107801424 2.999999999999929
  endloop
endfacet
facet normal -7.216449660063518e-16 -9.23356541461597e-16 1.0
  outer loop
    vertex 63.432613629686315 -110.11316107801424 2.999999999999929
    vertex 63.432613629686315 -61.61316107801421 3.000000000000032
    vertex 63.19423569578948 -61.30250090623439 3.000000000000032
  endloop
endfacet
facet normal -7.216449660063518e-16 -9.23356541461597e-16 1.0
  outer loop
    vertex 63.432613629686315 -110.11316107801424 2.999999999999929
    vertex 63.19423569578948 -61.30250090623439 3.000000000000032
    vertex 63.19423569578948 -110.42382124979406 2.999999999999929
  endloop
endfacet
facet normal -7.216449660063518e-16 -9.23356541461597e-16 1.0
  outer loop
    vertex 63.19423569578948 -110.42382124979406 2.999999999999929
    vertex 63.19423569578948 -61.30250090623439 3.000000000000032
    vertex 62.88357552400965 -61.06412297233756 3.000000000000032
  endloop
endfacet
facet normal -7.216449660063518e-16 -9.23356541461597e-16 1.0
  outer loop
    vertex 63.19423569578948 -110.42382124979406 2.999999999999929
    vertex 62.88357552400965 -61.06412297233756 3.000000000000032
    vertex 62.88357552400965 -110.6621991836909 2.9999999999999285
  endloop
endfacet
facet normal -7.216449660063518e-16 -9.23356541461597e-16 1.0
  outer loop
    vertex 62.88357552400965 -110.6621991836909 2.9999999999999285
    vertex 62.88357552400965 -61.06412297233756 3.000000000000032
    vertex 62.521804091663434 -60.914272338580616 3.0000000000000315
  endloop
endfacet
facet normal -7.216449660063518e-16 -9.23356541461597e-16 1.0
  outer loop
    vertex 62.88357552400965 -110.6621991836909 2.9999999999999285
    vertex 62.521804091663434 -60.914272338580616 3.0000000000000315
    vertex 62.521804091663434 -110.81204981744783 2.999999999999928
  endloop
endfacet
facet normal -7.216449660063518e-16 -9.23356541461597e-16 1.0
  outer loop
    vertex 62.521804091663434 -110.81204981744783 2.999999999999928
    vertex 62.521804091663434 -60.914272338580616 3.0000000000000315
    vertex 62.13357552400966 -60.86316107801421 3.0000000000000315
  endloop
endfacet
facet normal -7.216449660063518e-16 -9.23356541461597e-16 1.0
  outer loop
    vertex 62.521804091663434 -110.81204981744783 2.999999999999928
    vertex 62.13357552400966 -60.86316107801421 3.0000000000000315
    vertex 62.13357552400966 -110.86316107801423 2.999999999999928
  endloop
endfacet
facet normal -7.216449660063518e-16 -9.23356541461597e-16 1.0
  outer loop
    vertex 62.13357552400966 -110.86316107801423 2.999999999999928
    vertex 62.13357552400966 -60.86316107801421 3.0000000000000315
    vertex -14.866424475990351 -60.86316107801421 2.999999999999976
  endloop
endfacet
facet normal -7.216449660063518e-16 -9.23356541461597e-16 1.0
  outer loop
    vertex 62.13357552400966 -110.86316107801423 2.999999999999928
    vertex -14.866424475990351 -60.86316107801421 2.999999999999976
    vertex -14.866424475990351 -110.86316107801423 2.9999999999998725
  endloop
endfacet
facet normal -7.216449660063518e-16 -9.23356541461597e-16 1.0
  outer loop
    vertex -14.866424475990351 -110.86316107801423 2.9999999999998725
    vertex -14.866424475990351 -60.86316107801421 2.999999999999976
    vertex -15.25465304364413 -60.9142723385806 2.9999999999999756
  endloop
endfacet
facet normal -7.216449660063518e-16 -9.23356541461597e-16 1.0
  outer loop
    vertex -14.866424475990351 -110.86316107801423 2.9999999999998725
    vertex -15.25465304364413 -60.9142723385806 2.9999999999999756
    vertex -15.25465304364413 -110.81204981744783 2.999999999999872
  endloop
endfacet
facet normal -7.216449660063518e-16 -9.23356541461597e-16 1.0
  outer loop
    vertex -15.25465304364413 -110.81204981744783 2.999999999999872
    vertex -15.25465304364413 -60.9142723385806 2.9999999999999756
    vertex -15.61642447599035 -61.06412297233756 2.999999999999975
  endloop
endfacet
facet normal -7.216449660063518e-16 -9.23356541461597e-16 1.0
  outer loop
    vertex -15.25465304364413 -110.81204981744783 2.999999999999872
    vertex -15.61642447599035 -61.06412297233756 2.999999999999975
    vertex -15.61642447599035 -110.6621991836909 2.9999999999998717
  endloop
endfacet
facet normal -7.216449660063518e-16 -9.23356541461597e-16 1.0
  outer loop
    vertex -15.61642447599035 -110.6621991836909 2.9999999999998717
    vertex -15.61642447599035 -61.06412297233756 2.999999999999975
    vertex -15.927084647770176 -61.30250090623439 2.9999999999999747
  endloop
endfacet
facet normal -7.216449660063518e-16 -9.23356541461597e-16 1.0
  outer loop
    vertex -15.61642447599035 -110.6621991836909 2.9999999999998717
    vertex -15.927084647770176 -61.30250090623439 2.9999999999999747
    vertex -15.927084647770176 -110.42382124979406 2.9999999999998717
  endloop
endfacet
facet normal -7.216449660063518e-16 -9.23356541461597e-16 1.0
  outer loop
    vertex -15.927084647770176 -110.42382124979406 2.9999999999998717
    vertex -15.927084647770176 -61.30250090623439 2.9999999999999747
    vertex -16.165462581667015 -61.61316107801421 2.9999999999999742
  endloop
endfacet
facet normal -7.216449660063518e-16 -9.23356541461597e-16 1.0
  outer loop
    vertex -15.927084647770176 -110.42382124979406 2.9999999999998717
    vertex -16.165462581667015 -61.61316107801421 2.9999999999999742
    vertex -16.165462581667 -110.11316107801424 2.9999999999998717
  endloop
endfacet
facet normal -7.216449660063518e-16 -9.23356541461597e-16 1.0
  outer loop
    vertex -16.165462581667 -110.11316107801424 2.9999999999998717
    vertex -16.165462581667015 -61.61316107801421 2.9999999999999742
    vertex -16.315313215423956 -109.75138964566801 2.999999999999872
  endloop
endfacet
facet normal -7.216449660063518e-16 -9.23356541461597e-16 1.0
  outer loop
    vertex -16.315313215423956 -109.75138964566801 2.999999999999872
    vertex -16.165462581667015 -61.61316107801421 2.9999999999999742
    vertex -16.315313215423956 -61.974932510360425 2.9999999999999742
  endloop
endfacet
facet normal -7.216449660063518e-16 -9.23356541461597e-16 1.0
  outer loop
    vertex -16.315313215423956 -109.75138964566801 2.999999999999872
    vertex -16.315313215423956 -61.974932510360425 2.9999999999999742
    vertex -16.36642447599035 -62.363161078014215 2.999999999999974
  endloop
endfacet
facet normal -7.216449660063518e-16 -9.23356541461597e-16 1.0
  outer loop
    vertex -16.315313215423956 -109.75138964566801 2.999999999999872
    vertex -16.36642447599035 -62.363161078014215 2.999999999999974
    vertex -16.36642447599035 -109.36316107801423 2.9999999999998725
  endloop
endfacet
facet normal -1.0 -3.944304526105058e-31 -7.216449660063518e-16
  outer loop
    vertex 63.63357552400965 -62.363161078014215 3.0000000000000315
    vertex 63.63357552400964 -109.36316107801423 17.9999999999999
    vertex 63.63357552400964 -62.363161078014215 17.999999999999947
  endloop
endfacet
facet normal -1.0 -3.944304526105058e-31 -7.216449660063518e-16
  outer loop
    vertex 63.63357552400964 -109.36316107801423 17.9999999999999
    vertex 63.63357552400965 -62.363161078014215 3.0000000000000315
    vertex 63.63357552400965 -109.36316107801423 2.99999999999993
  endloop
endfacet
facet normal -0.9914448613738105 -0.13052619222005213 -7.889907032171248e-16
  outer loop
    vertex 63.63357552400965 -62.363161078014215 3.0000000000000315
    vertex 63.58246426344324 -61.97493251036044 17.999999999999943
    vertex 63.582464263443256 -61.974932510360425 3.000000000000031
  endloop
endfacet
facet normal -0.9914448613738105 -0.13052619222005213 -7.889907032171248e-16
  outer loop
    vertex 63.58246426344324 -61.97493251036044 17.999999999999943
    vertex 63.63357552400965 -62.363161078014215 3.0000000000000315
    vertex 63.63357552400964 -62.363161078014215 17.999999999999947
  endloop
endfacet
facet normal -0.9238795325112874 -0.3826834323650882 -9.312411410792149e-16
  outer loop
    vertex 63.582464263443256 -61.974932510360425 3.000000000000031
    vertex 63.4326136296863 -61.613161078014215 17.999999999999957
    vertex 63.432613629686315 -61.61316107801421 3.000000000000032
  endloop
endfacet
facet normal -0.9238795325112874 -0.3826834323650882 -9.312411410792149e-16
  outer loop
    vertex 63.4326136296863 -61.613161078014215 17.999999999999957
    vertex 63.582464263443256 -61.974932510360425 3.000000000000031
    vertex 63.58246426344324 -61.97493251036044 17.999999999999943
  endloop
endfacet
facet normal -0.7933533402912339 -0.6087614290087225 -9.93543820041948e-16
  outer loop
    vertex 63.19423569578948 -61.30250090623439 3.000000000000032
    vertex 63.4326136296863 -61.613161078014215 17.999999999999957
    vertex 63.194235695789466 -61.30250090623439 17.999999999999957
  endloop
endfacet
facet normal -0.7933533402912339 -0.6087614290087225 -9.93543820041948e-16
  outer loop
    vertex 63.4326136296863 -61.613161078014215 17.999999999999957
    vertex 63.19423569578948 -61.30250090623439 3.000000000000032
    vertex 63.432613629686315 -61.61316107801421 3.000000000000032
  endloop
endfacet
facet normal -0.6087614290087243 -0.7933533402912326 -9.881381295776161e-16
  outer loop
    vertex 63.194235695789466 -61.30250090623439 17.999999999999957
    vertex 62.88357552400965 -61.06412297233756 3.000000000000032
    vertex 63.19423569578948 -61.30250090623439 3.000000000000032
  endloop
endfacet
facet normal -0.6087614290087243 -0.7933533402912326 -9.881381295776161e-16
  outer loop
    vertex 62.88357552400965 -61.06412297233756 3.000000000000032
    vertex 63.194235695789466 -61.30250090623439 17.999999999999957
    vertex 62.88357552400964 -61.06412297233756 17.999999999999957
  endloop
endfacet
facet normal -0.3826834323650895 -0.9238795325112868 -9.153924585580374e-16
  outer loop
    vertex 62.88357552400964 -61.06412297233756 17.999999999999957
    vertex 62.521804091663434 -60.914272338580616 3.0000000000000315
    vertex 62.88357552400965 -61.06412297233756 3.000000000000032
  endloop
endfacet
facet normal -0.3826834323650895 -0.9238795325112868 -9.153924585580374e-16
  outer loop
    vertex 62.521804091663434 -60.914272338580616 3.0000000000000315
    vertex 62.88357552400964 -61.06412297233756 17.999999999999957
    vertex 62.52180409166342 -60.914272338580616 17.999999999999957
  endloop
endfacet
facet normal -0.13052619222005524 -0.99144486137381 -6.534625434617778e-16
  outer loop
    vertex 62.52180409166342 -60.914272338580616 17.999999999999957
    vertex 62.13357552400966 -60.86316107801421 3.0000000000000315
    vertex 62.521804091663434 -60.914272338580616 3.0000000000000315
  endloop
endfacet
facet normal -0.13052619222005524 -0.99144486137381 -6.534625434617778e-16
  outer loop
    vertex 62.13357552400966 -60.86316107801421 3.0000000000000315
    vertex 62.52180409166342 -60.914272338580616 17.999999999999957
    vertex 62.13357552400964 -60.86316107801422 17.999999999999957
  endloop
endfacet
facet normal 8.014333758979725e-31 -1.0 -5.639932965095807e-16
  outer loop
    vertex 62.13357552400964 -60.86316107801422 17.999999999999957
    vertex -14.866424475990351 -60.86316107801421 2.999999999999976
    vertex 62.13357552400966 -60.86316107801421 3.0000000000000315
  endloop
endfacet
facet normal 8.014333758979725e-31 -1.0 -5.639932965095807e-16
  outer loop
    vertex -14.866424475990351 -60.86316107801421 2.999999999999976
    vertex 62.13357552400964 -60.86316107801422 17.999999999999957
    vertex -14.866424475990362 -60.86316107801422 17.9999999999999
  endloop
endfacet
facet normal 0.13052619222005263 -0.9914448613738103 -4.649212933239315e-16
  outer loop
    vertex -14.866424475990362 -60.86316107801422 17.9999999999999
    vertex -15.25465304364413 -60.9142723385806 2.9999999999999756
    vertex -14.866424475990351 -60.86316107801421 2.999999999999976
  endloop
endfacet
facet normal 0.13052619222005263 -0.9914448613738103 -4.649212933239315e-16
  outer loop
    vertex -15.25465304364413 -60.9142723385806 2.9999999999999756
    vertex -14.866424475990362 -60.86316107801422 17.9999999999999
    vertex -15.254653043644142 -60.914272338580616 17.9999999999999
  endloop
endfacet
facet normal 0.38268343236509006 -0.9238795325112867 -3.633192887076126e-16
  outer loop
    vertex -15.254653043644142 -60.914272338580616 17.9999999999999
    vertex -15.61642447599035 -61.06412297233756 2.999999999999975
    vertex -15.25465304364413 -60.9142723385806 2.9999999999999756
  endloop
endfacet
facet normal 0.38268343236509006 -0.9238795325112867 -3.633192887076126e-16
  outer loop
    vertex -15.61642447599035 -61.06412297233756 2.999999999999975
    vertex -15.254653043644142 -60.914272338580616 17.9999999999999
    vertex -15.616424475990362 -61.06412297233756 17.9999999999999
  endloop
endfacet
facet normal 0.608761429008715 -0.7933533402912395 -1.0991654125736017e-16
  outer loop
    vertex -15.616424475990362 -61.06412297233756 17.9999999999999
    vertex -15.927084647770176 -61.30250090623439 2.9999999999999747
    vertex -15.61642447599035 -61.06412297233756 2.999999999999975
  endloop
endfacet
facet normal 0.608761429008715 -0.7933533402912395 -1.0991654125736017e-16
  outer loop
    vertex -15.927084647770176 -61.30250090623439 2.9999999999999747
    vertex -15.616424475990362 -61.06412297233756 17.9999999999999
    vertex -15.927084647770187 -61.30250090623439 17.9999999999999
  endloop
endfacet
facet normal 0.7933533402912339 -0.6087614290087225 1.5097683683392023e-16
  outer loop
    vertex -16.165462581667025 -61.613161078014215 17.9999999999999
    vertex -15.927084647770176 -61.30250090623439 2.9999999999999747
    vertex -15.927084647770187 -61.30250090623439 17.9999999999999
  endloop
endfacet
facet normal 0.7933533402912339 -0.6087614290087225 1.5097683683392023e-16
  outer loop
    vertex -15.927084647770176 -61.30250090623439 2.9999999999999747
    vertex -16.165462581667025 -61.613161078014215 17.9999999999999
    vertex -16.165462581667015 -61.61316107801421 2.9999999999999742
  endloop
endfacet
facet normal 0.92387953251129 -0.3826834323650821 4.015813929959932e-16
  outer loop
    vertex -16.315313215423966 -61.97493251036044 17.99999999999989
    vertex -16.165462581667015 -61.61316107801421 2.9999999999999742
    vertex -16.165462581667025 -61.613161078014215 17.9999999999999
  endloop
endfacet
facet normal 0.92387953251129 -0.3826834323650821 4.015813929959932e-16
  outer loop
    vertex -16.165462581667015 -61.61316107801421 2.9999999999999742
    vertex -16.315313215423966 -61.97493251036044 17.99999999999989
    vertex -16.315313215423956 -61.974932510360425 2.9999999999999742
  endloop
endfacet
facet normal 0.9914448613738114 -0.1305261922200446 6.421057943921193e-16
  outer loop
    vertex -16.36642447599036 -62.363161078014215 17.99999999999989
    vertex -16.315313215423956 -61.974932510360425 2.9999999999999742
    vertex -16.315313215423966 -61.97493251036044 17.99999999999989
  endloop
endfacet
facet normal 0.9914448613738114 -0.1305261922200446 6.421057943921193e-16
  outer loop
    vertex -16.315313215423956 -61.974932510360425 2.9999999999999742
    vertex -16.36642447599036 -62.363161078014215 17.99999999999989
    vertex -16.36642447599035 -62.363161078014215 2.999999999999974
  endloop
endfacet
facet normal 1.0 3.944304526105058e-31 7.216449660063518e-16
  outer loop
    vertex -16.36642447599036 -109.36316107801423 17.999999999999847
    vertex -16.36642447599035 -62.363161078014215 2.999999999999974
    vertex -16.36642447599036 -62.363161078014215 17.99999999999989
  endloop
endfacet
facet normal 1.0 3.944304526105058e-31 7.216449660063518e-16
  outer loop
    vertex -16.36642447599035 -62.363161078014215 2.999999999999974
    vertex -16.36642447599036 -109.36316107801423 17.999999999999847
    vertex -16.36642447599035 -109.36316107801423 2.9999999999998725
  endloop
endfacet
facet normal 0.9914448613738114 0.13052619222004552 7.644896677636513e-16
  outer loop
    vertex -16.315313215423966 -109.75138964566803 17.999999999999847
    vertex -16.36642447599035 -109.36316107801423 2.9999999999998725
    vertex -16.36642447599036 -109.36316107801423 17.999999999999847
  endloop
endfacet
facet normal 0.9914448613738114 0.13052619222004552 7.644896677636513e-16
  outer loop
    vertex -16.36642447599035 -109.36316107801423 2.9999999999998725
    vertex -16.315313215423966 -109.75138964566803 17.999999999999847
    vertex -16.315313215423956 -109.75138964566801 2.999999999999872
  endloop
endfacet
facet normal 0.9238795325112803 0.3826834323651054 9.312411410792216e-16
  outer loop
    vertex -16.165462581667015 -110.11316107801424 17.999999999999847
    vertex -16.315313215423956 -109.75138964566801 2.999999999999872
    vertex -16.315313215423966 -109.75138964566803 17.999999999999847
  endloop
endfacet
facet normal 0.9238795325112803 0.3826834323651054 9.312411410792216e-16
  outer loop
    vertex -16.315313215423956 -109.75138964566801 2.999999999999872
    vertex -16.165462581667015 -110.11316107801424 17.999999999999847
    vertex -16.165462581667 -110.11316107801424 2.9999999999998717
  endloop
endfacet
facet normal 0.7933533402912465 0.6087614290087061 9.935438200419456e-16
  outer loop
    vertex -15.927084647770187 -110.42382124979403 17.999999999999847
    vertex -16.165462581667 -110.11316107801424 2.9999999999998717
    vertex -16.165462581667015 -110.11316107801424 17.999999999999847
  endloop
endfacet
facet normal 0.7933533402912465 0.6087614290087061 9.935438200419456e-16
  outer loop
    vertex -16.165462581667 -110.11316107801424 2.9999999999998717
    vertex -15.927084647770187 -110.42382124979403 17.999999999999847
    vertex -15.927084647770176 -110.42382124979406 2.9999999999998717
  endloop
endfacet
facet normal 0.6087614290087172 0.7933533402912378 9.88138129577615e-16
  outer loop
    vertex -15.927084647770187 -110.42382124979403 17.999999999999847
    vertex -15.61642447599035 -110.6621991836909 2.9999999999998717
    vertex -15.927084647770176 -110.42382124979406 2.9999999999998717
  endloop
endfacet
facet normal 0.6087614290087172 0.7933533402912378 9.88138129577615e-16
  outer loop
    vertex -15.61642447599035 -110.6621991836909 2.9999999999998717
    vertex -15.927084647770187 -110.42382124979403 17.999999999999847
    vertex -15.616424475990362 -110.6621991836909 17.999999999999847
  endloop
endfacet
facet normal 0.38268343236509317 0.9238795325112855 9.153924585580396e-16
  outer loop
    vertex -15.616424475990362 -110.6621991836909 17.999999999999847
    vertex -15.25465304364413 -110.81204981744783 2.999999999999872
    vertex -15.61642447599035 -110.6621991836909 2.9999999999998717
  endloop
endfacet
facet normal 0.38268343236509317 0.9238795325112855 9.153924585580396e-16
  outer loop
    vertex -15.25465304364413 -110.81204981744783 2.999999999999872
    vertex -15.616424475990362 -110.6621991836909 17.999999999999847
    vertex -15.254653043644142 -110.81204981744783 17.999999999999847
  endloop
endfacet
facet normal -0.13052619222004463 0.9914448613738114 2.7860104271432965e-16
  outer loop
    vertex 62.13357552400964 -110.86316107801426 17.999999999999897
    vertex 62.521804091663434 -110.81204981744783 2.999999999999928
    vertex 62.13357552400966 -110.86316107801423 2.999999999999928
  endloop
endfacet
facet normal -0.13052619222004463 0.9914448613738114 2.7860104271432965e-16
  outer loop
    vertex 62.521804091663434 -110.81204981744783 2.999999999999928
    vertex 62.13357552400964 -110.86316107801426 17.999999999999897
    vertex 62.52180409166342 -110.81204981744783 17.9999999999999
  endloop
endfacet
facet normal -0.38268343236509317 0.9238795325112855 3.6331928870760966e-16
  outer loop
    vertex 62.52180409166342 -110.81204981744783 17.9999999999999
    vertex 62.88357552400965 -110.6621991836909 2.9999999999999285
    vertex 62.521804091663434 -110.81204981744783 2.999999999999928
  endloop
endfacet
facet normal -0.38268343236509317 0.9238795325112855 3.6331928870760966e-16
  outer loop
    vertex 62.88357552400965 -110.6621991836909 2.9999999999999285
    vertex 62.52180409166342 -110.81204981744783 17.9999999999999
    vertex 62.88357552400964 -110.6621991836909 17.9999999999999
  endloop
endfacet
facet normal -0.6087614290087152 0.7933533402912396 1.0991654125736017e-16
  outer loop
    vertex 62.88357552400964 -110.6621991836909 17.9999999999999
    vertex 63.19423569578948 -110.42382124979406 2.999999999999929
    vertex 62.88357552400965 -110.6621991836909 2.9999999999999285
  endloop
endfacet
facet normal -0.6087614290087152 0.7933533402912396 1.0991654125736017e-16
  outer loop
    vertex 63.19423569578948 -110.42382124979406 2.999999999999929
    vertex 62.88357552400964 -110.6621991836909 17.9999999999999
    vertex 63.194235695789466 -110.42382124979407 17.9999999999999
  endloop
endfacet
facet normal -0.7933533402912378 0.6087614290087172 -1.5097683683392664e-16
  outer loop
    vertex 63.432613629686315 -110.11316107801424 2.999999999999929
    vertex 63.194235695789466 -110.42382124979407 17.9999999999999
    vertex 63.4326136296863 -110.11316107801424 17.9999999999999
  endloop
endfacet
facet normal -0.7933533402912378 0.6087614290087172 -1.5097683683392664e-16
  outer loop
    vertex 63.194235695789466 -110.42382124979407 17.9999999999999
    vertex 63.432613629686315 -110.11316107801424 2.999999999999929
    vertex 63.19423569578948 -110.42382124979406 2.999999999999929
  endloop
endfacet
facet normal -0.923879532511288 0.38268343236508695 -4.015813929959885e-16
  outer loop
    vertex 63.432613629686315 -110.11316107801424 2.999999999999929
    vertex 63.58246426344324 -109.75138964566803 17.9999999999999
    vertex 63.582464263443256 -109.75138964566801 2.9999999999999294
  endloop
endfacet
facet normal -0.923879532511288 0.38268343236508695 -4.015813929959885e-16
  outer loop
    vertex 63.58246426344324 -109.75138964566803 17.9999999999999
    vertex 63.432613629686315 -110.11316107801424 2.999999999999929
    vertex 63.4326136296863 -110.11316107801424 17.9999999999999
  endloop
endfacet
facet normal -0.9914448613738103 0.13052619222005263 -6.664527188028978e-16
  outer loop
    vertex 63.63357552400965 -109.36316107801423 2.99999999999993
    vertex 63.58246426344324 -109.75138964566803 17.9999999999999
    vertex 63.63357552400964 -109.36316107801423 17.9999999999999
  endloop
endfacet
facet normal -0.9914448613738103 0.13052619222005263 -6.664527188028978e-16
  outer loop
    vertex 63.58246426344324 -109.75138964566803 17.9999999999999
    vertex 63.63357552400965 -109.36316107801423 2.99999999999993
    vertex 63.582464263443256 -109.75138964566801 2.9999999999999294
  endloop
endfacet
facet normal 0.13052619222004552 0.9914448613738114 4.669881818094757e-16
  outer loop
    vertex -15.254653043644142 -110.81204981744783 17.999999999999847
    vertex -14.866424475990351 -110.86316107801423 2.9999999999998725
    vertex -15.25465304364413 -110.81204981744783 2.999999999999872
  endloop
endfacet
facet normal 0.13052619222004552 0.9914448613738114 4.669881818094757e-16
  outer loop
    vertex -14.866424475990351 -110.86316107801423 2.9999999999998725
    vertex -15.254653043644142 -110.81204981744783 17.999999999999847
    vertex -14.866424475990362 -110.86316107801426 17.999999999999847
  endloop
endfacet
facet normal -6.6576573480214996e-31 1.0 3.759955310063868e-16
  outer loop
    vertex -14.866424475990362 -110.86316107801426 17.999999999999847
    vertex 62.13357552400966 -110.86316107801423 2.999999999999928
    vertex -14.866424475990351 -110.86316107801423 2.9999999999998725
  endloop
endfacet
facet normal -6.6576573480214996e-31 1.0 3.759955310063868e-16
  outer loop
    vertex 62.13357552400966 -110.86316107801423 2.999999999999928
    vertex -14.866424475990362 -110.86316107801426 17.999999999999847
    vertex 62.13357552400964 -110.86316107801426 17.999999999999897
  endloop
endfacet
endsolid AW_Case
