solid AW_Stifthalter_v5
facet normal -0.9238795325112868 -0.38268343236508945 0.0
  outer loop
    vertex 25.785222346078108 12.599176227062044 8.999999999999998
    vertex 25.48552107856422 13.32271909175448 6.999999999999998
    vertex 25.785222346078108 12.599176227062044 6.999999999999998
  endloop
endfacet
facet normal -0.9238795325112868 -0.38268343236508945 0.0
  outer loop
    vertex 25.48552107856422 13.32271909175448 6.999999999999998
    vertex 25.785222346078108 12.599176227062044 8.999999999999998
    vertex 25.48552107856422 13.32271909175448 8.999999999999998
  endloop
endfacet
facet normal -0.6087614290087204 -0.7933533402912353 0.0
  outer loop
    vertex 25.008765210770544 13.944039435314126 6.999999999999998
    vertex 24.387444867210903 14.420795303107795 8.999999999999998
    vertex 24.387444867210903 14.420795303107795 6.999999999999998
  endloop
endfacet
facet normal -0.6087614290087204 -0.7933533402912353 0.0
  outer loop
    vertex 24.387444867210903 14.420795303107795 8.999999999999998
    vertex 25.008765210770544 13.944039435314126 6.999999999999998
    vertex 25.008765210770544 13.944039435314126 8.999999999999998
  endloop
endfacet
facet normal 0.13052619222005135 -0.9914448613738105 0.0
  outer loop
    vertex 22.887444867210903 14.82271909175448 6.999999999999998
    vertex 22.11098773190334 14.720496570621686 8.999999999999998
    vertex 22.11098773190334 14.720496570621686 6.999999999999998
  endloop
endfacet
facet normal 0.13052619222005135 -0.9914448613738105 0.0
  outer loop
    vertex 22.11098773190334 14.720496570621686 8.999999999999998
    vertex 22.887444867210903 14.82271909175448 6.999999999999998
    vertex 22.887444867210903 14.82271909175448 8.999999999999998
  endloop
endfacet
facet normal -0.13052619222005224 -0.9914448613738104 0.0
  outer loop
    vertex 23.663902002518466 14.720496570621686 6.999999999999998
    vertex 22.887444867210903 14.82271909175448 8.999999999999998
    vertex 22.887444867210903 14.82271909175448 6.999999999999998
  endloop
endfacet
facet normal -0.13052619222005224 -0.9914448613738104 0.0
  outer loop
    vertex 22.887444867210903 14.82271909175448 8.999999999999998
    vertex 23.663902002518466 14.720496570621686 6.999999999999998
    vertex 23.663902002518466 14.720496570621686 8.999999999999998
  endloop
endfacet
facet normal -0.3826834323650901 -0.9238795325112866 0.0
  outer loop
    vertex 24.387444867210903 14.420795303107795 6.999999999999998
    vertex 23.663902002518466 14.720496570621686 8.999999999999998
    vertex 23.663902002518466 14.720496570621686 6.999999999999998
  endloop
endfacet
facet normal -0.3826834323650901 -0.9238795325112866 0.0
  outer loop
    vertex 23.663902002518466 14.720496570621686 8.999999999999998
    vertex 24.387444867210903 14.420795303107795 6.999999999999998
    vertex 24.387444867210903 14.420795303107795 8.999999999999998
  endloop
endfacet
facet normal 0.9914448613738105 0.13052619222005135 0.0
  outer loop
    vertex 19.88744486721092 11.822719091754482 8.999999999999998
    vertex 19.989667388343715 11.04626195644692 6.999999999999998
    vertex 19.88744486721092 11.822719091754482 6.999999999999998
  endloop
endfacet
facet normal 0.9914448613738105 0.13052619222005135 0.0
  outer loop
    vertex 19.989667388343715 11.04626195644692 6.999999999999998
    vertex 19.88744486721092 11.822719091754482 8.999999999999998
    vertex 19.989667388343715 11.04626195644692 8.999999999999998
  endloop
endfacet
facet normal -0.9914448613738104 0.13052619222005224 0.0
  outer loop
    vertex 25.785222346078108 11.04626195644692 8.999999999999998
    vertex 25.887444867210903 11.82271909175448 6.999999999999998
    vertex 25.785222346078108 11.04626195644692 6.999999999999998
  endloop
endfacet
facet normal -0.9914448613738104 0.13052619222005224 0.0
  outer loop
    vertex 25.887444867210903 11.82271909175448 6.999999999999998
    vertex 25.785222346078108 11.04626195644692 8.999999999999998
    vertex 25.887444867210903 11.82271909175448 8.999999999999998
  endloop
endfacet
facet normal 0.9238795325112866 -0.3826834323650901 0.0
  outer loop
    vertex 20.289368655857587 13.32271909175448 8.999999999999998
    vertex 19.989667388343715 12.599176227062044 6.999999999999998
    vertex 20.289368655857587 13.32271909175448 6.999999999999998
  endloop
endfacet
facet normal 0.9238795325112866 -0.3826834323650901 0.0
  outer loop
    vertex 19.989667388343715 12.599176227062044 6.999999999999998
    vertex 20.289368655857587 13.32271909175448 8.999999999999998
    vertex 19.989667388343715 12.599176227062044 8.999999999999998
  endloop
endfacet
facet normal 0.38268343236509045 -0.9238795325112866 0.0
  outer loop
    vertex 22.11098773190334 14.720496570621686 6.999999999999998
    vertex 21.387444867210903 14.420795303107795 8.999999999999998
    vertex 21.387444867210903 14.420795303107795 6.999999999999998
  endloop
endfacet
facet normal 0.38268343236509045 -0.9238795325112866 0.0
  outer loop
    vertex 21.387444867210903 14.420795303107795 8.999999999999998
    vertex 22.11098773190334 14.720496570621686 6.999999999999998
    vertex 22.11098773190334 14.720496570621686 8.999999999999998
  endloop
endfacet
facet normal -0.9238795325112871 0.3826834323650892 0.0
  outer loop
    vertex 25.48552107856422 10.322719091754482 8.999999999999998
    vertex 25.785222346078108 11.04626195644692 6.999999999999998
    vertex 25.48552107856422 10.322719091754482 6.999999999999998
  endloop
endfacet
facet normal -0.9238795325112871 0.3826834323650892 0.0
  outer loop
    vertex 25.785222346078108 11.04626195644692 6.999999999999998
    vertex 25.48552107856422 10.322719091754482 8.999999999999998
    vertex 25.785222346078108 11.04626195644692 8.999999999999998
  endloop
endfacet
facet normal 0.3826834323650901 0.9238795325112866 0.0
  outer loop
    vertex 22.11098773190334 8.924941612887267 8.999999999999998
    vertex 21.387444867210906 9.224642880401166 6.999999999999998
    vertex 21.387444867210906 9.224642880401166 8.999999999999998
  endloop
endfacet
facet normal 0.3826834323650901 0.9238795325112866 0.0
  outer loop
    vertex 21.387444867210906 9.224642880401166 6.999999999999998
    vertex 22.11098773190334 8.924941612887267 8.999999999999998
    vertex 22.11098773190334 8.924941612887267 6.999999999999998
  endloop
endfacet
facet normal -0.13052619222005113 0.9914448613738105 0.0
  outer loop
    vertex 23.663902002518466 8.924941612887276 8.999999999999998
    vertex 22.887444867210903 8.822719091754472 6.999999999999998
    vertex 22.887444867210903 8.822719091754472 8.999999999999998
  endloop
endfacet
facet normal -0.13052619222005113 0.9914448613738105 0.0
  outer loop
    vertex 22.887444867210903 8.822719091754472 6.999999999999998
    vertex 23.663902002518466 8.924941612887276 8.999999999999998
    vertex 23.663902002518466 8.924941612887276 6.999999999999998
  endloop
endfacet
facet normal -0.60876142900872 0.7933533402912357 0.0
  outer loop
    vertex 25.008765210770544 9.701398748194839 8.999999999999998
    vertex 24.387444867210906 9.224642880401166 6.999999999999998
    vertex 24.387444867210906 9.224642880401166 8.999999999999998
  endloop
endfacet
facet normal -0.60876142900872 0.7933533402912357 0.0
  outer loop
    vertex 24.387444867210906 9.224642880401166 6.999999999999998
    vertex 25.008765210770544 9.701398748194839 8.999999999999998
    vertex 25.008765210770544 9.701398748194839 6.999999999999998
  endloop
endfacet
facet normal 0.13052619222005202 0.9914448613738105 0.0
  outer loop
    vertex 22.887444867210903 8.822719091754472 8.999999999999998
    vertex 22.11098773190334 8.924941612887267 6.999999999999998
    vertex 22.11098773190334 8.924941612887267 8.999999999999998
  endloop
endfacet
facet normal 0.13052619222005202 0.9914448613738105 0.0
  outer loop
    vertex 22.11098773190334 8.924941612887267 6.999999999999998
    vertex 22.887444867210903 8.822719091754472 8.999999999999998
    vertex 22.887444867210903 8.822719091754472 6.999999999999998
  endloop
endfacet
facet normal 0.7933533402912348 0.6087614290087211 0.0
  outer loop
    vertex 20.289368655857604 10.322719091754482 8.999999999999998
    vertex 20.76612452365128 9.70139874819484 6.999999999999998
    vertex 20.289368655857604 10.322719091754482 6.999999999999998
  endloop
endfacet
facet normal 0.7933533402912348 0.6087614290087211 0.0
  outer loop
    vertex 20.76612452365128 9.70139874819484 6.999999999999998
    vertex 20.289368655857604 10.322719091754482 8.999999999999998
    vertex 20.76612452365128 9.70139874819484 8.999999999999998
  endloop
endfacet
facet normal -0.7933533402912339 -0.6087614290087222 0.0
  outer loop
    vertex 25.48552107856422 13.32271909175448 8.999999999999998
    vertex 25.008765210770544 13.944039435314126 6.999999999999998
    vertex 25.48552107856422 13.32271909175448 6.999999999999998
  endloop
endfacet
facet normal -0.7933533402912339 -0.6087614290087222 0.0
  outer loop
    vertex 25.008765210770544 13.944039435314126 6.999999999999998
    vertex 25.48552107856422 13.32271909175448 8.999999999999998
    vertex 25.008765210770544 13.944039435314126 8.999999999999998
  endloop
endfacet
facet normal 0.7933533402912357 -0.6087614290087202 0.0
  outer loop
    vertex 20.76612452365126 13.944039435314126 8.999999999999998
    vertex 20.289368655857587 13.32271909175448 6.999999999999998
    vertex 20.76612452365126 13.944039435314126 6.999999999999998
  endloop
endfacet
facet normal 0.7933533402912357 -0.6087614290087202 0.0
  outer loop
    vertex 20.289368655857587 13.32271909175448 6.999999999999998
    vertex 20.76612452365126 13.944039435314126 8.999999999999998
    vertex 20.289368655857587 13.32271909175448 8.999999999999998
  endloop
endfacet
facet normal -0.7933533402912359 0.6087614290087199 0.0
  outer loop
    vertex 25.008765210770544 9.701398748194839 8.999999999999998
    vertex 25.48552107856422 10.322719091754482 6.999999999999998
    vertex 25.008765210770544 9.701398748194839 6.999999999999998
  endloop
endfacet
facet normal -0.7933533402912359 0.6087614290087199 0.0
  outer loop
    vertex 25.48552107856422 10.322719091754482 6.999999999999998
    vertex 25.008765210770544 9.701398748194839 8.999999999999998
    vertex 25.48552107856422 10.322719091754482 8.999999999999998
  endloop
endfacet
facet normal -0.382683432365091 0.9238795325112863 0.0
  outer loop
    vertex 24.387444867210906 9.224642880401166 8.999999999999998
    vertex 23.663902002518466 8.924941612887276 6.999999999999998
    vertex 23.663902002518466 8.924941612887276 8.999999999999998
  endloop
endfacet
facet normal -0.382683432365091 0.9238795325112863 0.0
  outer loop
    vertex 23.663902002518466 8.924941612887276 6.999999999999998
    vertex 24.387444867210906 9.224642880401166 8.999999999999998
    vertex 24.387444867210906 9.224642880401166 6.999999999999998
  endloop
endfacet
facet normal 0.9914448613738104 -0.13052619222005224 0.0
  outer loop
    vertex 19.989667388343715 12.599176227062044 8.999999999999998
    vertex 19.88744486721092 11.822719091754482 6.999999999999998
    vertex 19.989667388343715 12.599176227062044 6.999999999999998
  endloop
endfacet
facet normal 0.9914448613738104 -0.13052619222005224 0.0
  outer loop
    vertex 19.88744486721092 11.822719091754482 6.999999999999998
    vertex 19.989667388343715 12.599176227062044 8.999999999999998
    vertex 19.88744486721092 11.822719091754482 8.999999999999998
  endloop
endfacet
facet normal -0.9914448613738105 -0.13052619222005113 0.0
  outer loop
    vertex 25.887444867210903 11.82271909175448 8.999999999999998
    vertex 25.785222346078108 12.599176227062044 6.999999999999998
    vertex 25.887444867210903 11.82271909175448 6.999999999999998
  endloop
endfacet
facet normal -0.9914448613738105 -0.13052619222005113 0.0
  outer loop
    vertex 25.785222346078108 12.599176227062044 6.999999999999998
    vertex 25.887444867210903 11.82271909175448 8.999999999999998
    vertex 25.785222346078108 12.599176227062044 8.999999999999998
  endloop
endfacet
facet normal 0.9238795325112868 0.38268343236508945 0.0
  outer loop
    vertex 19.989667388343715 11.04626195644692 8.999999999999998
    vertex 20.289368655857604 10.322719091754482 6.999999999999998
    vertex 19.989667388343715 11.04626195644692 6.999999999999998
  endloop
endfacet
facet normal 0.9238795325112868 0.38268343236508945 0.0
  outer loop
    vertex 20.289368655857604 10.322719091754482 6.999999999999998
    vertex 19.989667388343715 11.04626195644692 8.999999999999998
    vertex 20.289368655857604 10.322719091754482 8.999999999999998
  endloop
endfacet
facet normal 0.6087614290087217 0.7933533402912346 0.0
  outer loop
    vertex 21.387444867210906 9.224642880401166 8.999999999999998
    vertex 20.76612452365128 9.70139874819484 6.999999999999998
    vertex 20.76612452365128 9.70139874819484 8.999999999999998
  endloop
endfacet
facet normal 0.6087614290087217 0.7933533402912346 0.0
  outer loop
    vertex 20.76612452365128 9.70139874819484 6.999999999999998
    vertex 21.387444867210906 9.224642880401166 8.999999999999998
    vertex 21.387444867210906 9.224642880401166 6.999999999999998
  endloop
endfacet
facet normal 0.6087614290087203 -0.7933533402912354 0.0
  outer loop
    vertex 21.387444867210903 14.420795303107795 6.999999999999998
    vertex 20.76612452365126 13.944039435314126 8.999999999999998
    vertex 20.76612452365126 13.944039435314126 6.999999999999998
  endloop
endfacet
facet normal 0.6087614290087203 -0.7933533402912354 0.0
  outer loop
    vertex 20.76612452365126 13.944039435314126 8.999999999999998
    vertex 21.387444867210903 14.420795303107795 6.999999999999998
    vertex 21.387444867210903 14.420795303107795 8.999999999999998
  endloop
endfacet
facet normal 0.3826834323650901 0.9238795325112866 0.0
  outer loop
    vertex 22.11098773190334 8.924941612887267 15.999999999999998
    vertex 21.387444867210906 9.224642880401166 14.000000000000005
    vertex 21.387444867210906 9.224642880401166 15.999999999999998
  endloop
endfacet
facet normal 0.3826834323650901 0.9238795325112866 0.0
  outer loop
    vertex 21.387444867210906 9.224642880401166 14.000000000000005
    vertex 22.11098773190334 8.924941612887267 15.999999999999998
    vertex 22.11098773190334 8.924941612887267 14.000000000000005
  endloop
endfacet
facet normal 0.6087614290087217 0.7933533402912346 0.0
  outer loop
    vertex 21.387444867210906 9.224642880401166 15.999999999999998
    vertex 20.76612452365128 9.70139874819484 14.000000000000005
    vertex 20.76612452365128 9.70139874819484 15.999999999999998
  endloop
endfacet
facet normal 0.6087614290087217 0.7933533402912346 0.0
  outer loop
    vertex 20.76612452365128 9.70139874819484 14.000000000000005
    vertex 21.387444867210906 9.224642880401166 15.999999999999998
    vertex 21.387444867210906 9.224642880401166 14.000000000000005
  endloop
endfacet
facet normal -1.0 3.3306690738754696e-16 0.0
  outer loop
    vertex 15.387444867210919 0.3227190917544819 0.9999999999999998
    vertex 15.387444867210908 4.32271909175448 1.9999999999999996
    vertex 15.387444867210908 21.322719091754482 0.9999999999999998
  endloop
endfacet
facet normal -1.0 3.3306690738754696e-16 0.0
  outer loop
    vertex 15.387444867210908 4.32271909175448 1.9999999999999996
    vertex 15.387444867210919 0.3227190917544819 0.9999999999999998
    vertex 15.387444867210919 0.3227190917544819 14.999999999999998
  endloop
endfacet
facet normal -1.0 3.3306690738754696e-16 0.0
  outer loop
    vertex 15.387444867210908 4.32271909175448 1.9999999999999996
    vertex 15.387444867210919 0.3227190917544819 14.999999999999998
    vertex 15.387444867210908 4.32271909175448 7.0
  endloop
endfacet
facet normal -1.0 3.3306690738754696e-16 0.0
  outer loop
    vertex 15.387444867210908 4.32271909175448 7.0
    vertex 15.387444867210919 0.3227190917544819 14.999999999999998
    vertex 15.387444867210903 7.522719091754483 8.999999999999998
  endloop
endfacet
facet normal -1.0 3.3306690738754696e-16 0.0
  outer loop
    vertex 15.387444867210908 4.32271909175448 7.0
    vertex 15.387444867210903 7.522719091754483 8.999999999999998
    vertex 15.387444867210908 21.322719091754482 7.0
  endloop
endfacet
facet normal -1.0 3.3306690738754696e-16 0.0
  outer loop
    vertex 15.387444867210903 7.522719091754483 8.999999999999998
    vertex 15.387444867210919 0.3227190917544819 14.999999999999998
    vertex 15.387444867210903 7.522719091754483 14.0
  endloop
endfacet
facet normal -1.0 3.3306690738754696e-16 0.0
  outer loop
    vertex 15.387444867210903 7.522719091754483 14.0
    vertex 15.387444867210919 0.3227190917544819 14.999999999999998
    vertex 15.387444867210904 16.122719091754483 14.0
  endloop
endfacet
facet normal -1.0 3.3306690738754696e-16 0.0
  outer loop
    vertex 15.387444867210908 21.322719091754482 7.0
    vertex 15.387444867210904 16.122719091754483 8.999999999999998
    vertex 15.387444867210908 21.322719091754482 14.999999999999998
  endloop
endfacet
facet normal -1.0 3.3306690738754696e-16 0.0
  outer loop
    vertex 15.387444867210904 16.122719091754483 8.999999999999998
    vertex 15.387444867210908 21.322719091754482 7.0
    vertex 15.387444867210903 7.522719091754483 8.999999999999998
  endloop
endfacet
facet normal -1.0 3.3306690738754696e-16 0.0
  outer loop
    vertex 15.387444867210908 21.322719091754482 14.999999999999998
    vertex 15.387444867210904 16.122719091754483 8.999999999999998
    vertex 15.387444867210904 16.122719091754483 14.0
  endloop
endfacet
facet normal -1.0 3.3306690738754696e-16 0.0
  outer loop
    vertex 15.387444867210908 21.322719091754482 14.999999999999998
    vertex 15.387444867210904 16.122719091754483 14.0
    vertex 15.387444867210919 0.3227190917544819 14.999999999999998
  endloop
endfacet
facet normal -1.0 3.3306690738754696e-16 0.0
  outer loop
    vertex 15.387444867210908 21.322719091754482 1.9999999999999996
    vertex 15.387444867210908 21.322719091754482 0.9999999999999998
    vertex 15.387444867210908 4.32271909175448 1.9999999999999996
  endloop
endfacet
facet normal -3.3306690738754696e-16 -1.0 0.0
  outer loop
    vertex 30.3874448672109 0.3227190917544762 0.9999999999999998
    vertex 15.387444867210919 0.3227190917544819 14.999999999999998
    vertex 15.387444867210919 0.3227190917544819 0.9999999999999998
  endloop
endfacet
facet normal -3.3306690738754696e-16 -1.0 0.0
  outer loop
    vertex 15.387444867210919 0.3227190917544819 14.999999999999998
    vertex 30.3874448672109 0.3227190917544762 0.9999999999999998
    vertex 30.3874448672109 0.3227190917544762 14.999999999999998
  endloop
endfacet
facet normal 1.0 -3.3306690738754696e-16 0.0
  outer loop
    vertex 30.387444867210913 21.32271909175448 14.999999999999998
    vertex 30.3874448672109 4.322719091754474 7.0
    vertex 30.387444867210913 21.32271909175448 7.0
  endloop
endfacet
facet normal 1.0 -3.3306690738754696e-16 0.0
  outer loop
    vertex 30.387444867210913 21.32271909175448 1.9999999999999998
    vertex 30.3874448672109 0.3227190917544762 0.9999999999999998
    vertex 30.387444867210913 21.32271909175448 0.9999999999999998
  endloop
endfacet
facet normal 1.0 -3.3306690738754696e-16 0.0
  outer loop
    vertex 30.3874448672109 0.3227190917544762 0.9999999999999998
    vertex 30.387444867210913 21.32271909175448 1.9999999999999998
    vertex 30.3874448672109 4.322719091754474 1.9999999999999998
  endloop
endfacet
facet normal 1.0 -3.3306690738754696e-16 0.0
  outer loop
    vertex 30.3874448672109 0.3227190917544762 0.9999999999999998
    vertex 30.3874448672109 4.322719091754474 1.9999999999999998
    vertex 30.3874448672109 0.3227190917544762 14.999999999999998
  endloop
endfacet
facet normal 1.0 -3.3306690738754696e-16 0.0
  outer loop
    vertex 30.3874448672109 0.3227190917544762 14.999999999999998
    vertex 30.3874448672109 4.322719091754474 1.9999999999999998
    vertex 30.3874448672109 4.322719091754474 7.0
  endloop
endfacet
facet normal 1.0 -3.3306690738754696e-16 0.0
  outer loop
    vertex 30.3874448672109 0.3227190917544762 14.999999999999998
    vertex 30.3874448672109 4.322719091754474 7.0
    vertex 30.387444867210913 21.32271909175448 14.999999999999998
  endloop
endfacet
facet normal -2.3499720687899144e-17 7.826979293989725e-33 1.0
  outer loop
    vertex 15.387444867210908 4.32271909175448 1.9999999999999996
    vertex 30.387444867210913 21.32271909175448 1.9999999999999998
    vertex 15.387444867210908 21.322719091754482 1.9999999999999996
  endloop
endfacet
facet normal -2.3499720687899144e-17 7.826979293989725e-33 1.0
  outer loop
    vertex 30.387444867210913 21.32271909175448 1.9999999999999998
    vertex 15.387444867210908 4.32271909175448 1.9999999999999996
    vertex 30.3874448672109 4.322719091754474 1.9999999999999998
  endloop
endfacet
facet normal 0.0 -0.0 -1.0
  outer loop
    vertex 30.387444867210913 21.32271909175448 7.0
    vertex 24.387444867210903 14.420795303107795 6.999999999999998
    vertex 15.387444867210908 21.322719091754482 7.0
  endloop
endfacet
facet normal 0.0 -0.0 -1.0
  outer loop
    vertex 24.387444867210903 14.420795303107795 6.999999999999998
    vertex 30.387444867210913 21.32271909175448 7.0
    vertex 25.008765210770544 13.944039435314126 6.999999999999998
  endloop
endfacet
facet normal 0.0 -0.0 -1.0
  outer loop
    vertex 25.008765210770544 13.944039435314126 6.999999999999998
    vertex 30.387444867210913 21.32271909175448 7.0
    vertex 25.48552107856422 13.32271909175448 6.999999999999998
  endloop
endfacet
facet normal 0.0 -0.0 -1.0
  outer loop
    vertex 25.48552107856422 13.32271909175448 6.999999999999998
    vertex 30.387444867210913 21.32271909175448 7.0
    vertex 30.3874448672109 4.322719091754474 7.0
  endloop
endfacet
facet normal 0.0 -0.0 -1.0
  outer loop
    vertex 15.387444867210908 21.322719091754482 7.0
    vertex 24.387444867210903 14.420795303107795 6.999999999999998
    vertex 23.663902002518466 14.720496570621686 6.999999999999998
  endloop
endfacet
facet normal 0.0 -0.0 -1.0
  outer loop
    vertex 15.387444867210908 21.322719091754482 7.0
    vertex 23.663902002518466 14.720496570621686 6.999999999999998
    vertex 22.887444867210903 14.82271909175448 6.999999999999998
  endloop
endfacet
facet normal 0.0 -0.0 -1.0
  outer loop
    vertex 25.48552107856422 13.32271909175448 6.999999999999998
    vertex 30.3874448672109 4.322719091754474 7.0
    vertex 25.785222346078108 12.599176227062044 6.999999999999998
  endloop
endfacet
facet normal 0.0 -0.0 -1.0
  outer loop
    vertex 25.785222346078108 12.599176227062044 6.999999999999998
    vertex 30.3874448672109 4.322719091754474 7.0
    vertex 25.887444867210903 11.82271909175448 6.999999999999998
  endloop
endfacet
facet normal 0.0 -0.0 -1.0
  outer loop
    vertex 25.887444867210903 11.82271909175448 6.999999999999998
    vertex 30.3874448672109 4.322719091754474 7.0
    vertex 25.785222346078108 11.04626195644692 6.999999999999998
  endloop
endfacet
facet normal 0.0 -0.0 -1.0
  outer loop
    vertex 25.785222346078108 11.04626195644692 6.999999999999998
    vertex 30.3874448672109 4.322719091754474 7.0
    vertex 25.48552107856422 10.322719091754482 6.999999999999998
  endloop
endfacet
facet normal 0.0 -0.0 -1.0
  outer loop
    vertex 25.48552107856422 10.322719091754482 6.999999999999998
    vertex 30.3874448672109 4.322719091754474 7.0
    vertex 25.008765210770544 9.701398748194839 6.999999999999998
  endloop
endfacet
facet normal 0.0 -0.0 -1.0
  outer loop
    vertex 25.008765210770544 9.701398748194839 6.999999999999998
    vertex 30.3874448672109 4.322719091754474 7.0
    vertex 24.387444867210906 9.224642880401166 6.999999999999998
  endloop
endfacet
facet normal 0.0 -0.0 -1.0
  outer loop
    vertex 24.387444867210906 9.224642880401166 6.999999999999998
    vertex 30.3874448672109 4.322719091754474 7.0
    vertex 23.663902002518466 8.924941612887276 6.999999999999998
  endloop
endfacet
facet normal 0.0 -0.0 -1.0
  outer loop
    vertex 23.663902002518466 8.924941612887276 6.999999999999998
    vertex 30.3874448672109 4.322719091754474 7.0
    vertex 22.887444867210903 8.822719091754472 6.999999999999998
  endloop
endfacet
facet normal 0.0 -0.0 -1.0
  outer loop
    vertex 15.387444867210908 21.322719091754482 7.0
    vertex 20.289368655857587 13.32271909175448 6.999999999999998
    vertex 15.387444867210908 4.32271909175448 7.0
  endloop
endfacet
facet normal 0.0 -0.0 -1.0
  outer loop
    vertex 20.289368655857587 13.32271909175448 6.999999999999998
    vertex 15.387444867210908 21.322719091754482 7.0
    vertex 20.76612452365126 13.944039435314126 6.999999999999998
  endloop
endfacet
facet normal 0.0 -0.0 -1.0
  outer loop
    vertex 20.76612452365126 13.944039435314126 6.999999999999998
    vertex 15.387444867210908 21.322719091754482 7.0
    vertex 21.387444867210903 14.420795303107795 6.999999999999998
  endloop
endfacet
facet normal 0.0 -0.0 -1.0
  outer loop
    vertex 21.387444867210903 14.420795303107795 6.999999999999998
    vertex 15.387444867210908 21.322719091754482 7.0
    vertex 22.11098773190334 14.720496570621686 6.999999999999998
  endloop
endfacet
facet normal 0.0 -0.0 -1.0
  outer loop
    vertex 22.11098773190334 14.720496570621686 6.999999999999998
    vertex 15.387444867210908 21.322719091754482 7.0
    vertex 22.887444867210903 14.82271909175448 6.999999999999998
  endloop
endfacet
facet normal 0.0 -0.0 -1.0
  outer loop
    vertex 15.387444867210908 4.32271909175448 7.0
    vertex 20.289368655857587 13.32271909175448 6.999999999999998
    vertex 19.989667388343715 12.599176227062044 6.999999999999998
  endloop
endfacet
facet normal 0.0 -0.0 -1.0
  outer loop
    vertex 15.387444867210908 4.32271909175448 7.0
    vertex 19.989667388343715 12.599176227062044 6.999999999999998
    vertex 19.88744486721092 11.822719091754482 6.999999999999998
  endloop
endfacet
facet normal 0.0 -0.0 -1.0
  outer loop
    vertex 15.387444867210908 4.32271909175448 7.0
    vertex 19.88744486721092 11.822719091754482 6.999999999999998
    vertex 19.989667388343715 11.04626195644692 6.999999999999998
  endloop
endfacet
facet normal 0.0 -0.0 -1.0
  outer loop
    vertex 15.387444867210908 4.32271909175448 7.0
    vertex 19.989667388343715 11.04626195644692 6.999999999999998
    vertex 20.289368655857604 10.322719091754482 6.999999999999998
  endloop
endfacet
facet normal 0.0 -0.0 -1.0
  outer loop
    vertex 15.387444867210908 4.32271909175448 7.0
    vertex 20.289368655857604 10.322719091754482 6.999999999999998
    vertex 20.76612452365128 9.70139874819484 6.999999999999998
  endloop
endfacet
facet normal 0.0 -0.0 -1.0
  outer loop
    vertex 15.387444867210908 4.32271909175448 7.0
    vertex 20.76612452365128 9.70139874819484 6.999999999999998
    vertex 21.387444867210906 9.224642880401166 6.999999999999998
  endloop
endfacet
facet normal 0.0 -0.0 -1.0
  outer loop
    vertex 15.387444867210908 4.32271909175448 7.0
    vertex 21.387444867210906 9.224642880401166 6.999999999999998
    vertex 22.11098773190334 8.924941612887267 6.999999999999998
  endloop
endfacet
facet normal 0.0 -0.0 -1.0
  outer loop
    vertex 15.387444867210908 4.32271909175448 7.0
    vertex 22.11098773190334 8.924941612887267 6.999999999999998
    vertex 22.887444867210903 8.822719091754472 6.999999999999998
  endloop
endfacet
facet normal 0.0 -0.0 -1.0
  outer loop
    vertex 15.387444867210908 4.32271909175448 7.0
    vertex 22.887444867210903 8.822719091754472 6.999999999999998
    vertex 30.3874448672109 4.322719091754474 7.0
  endloop
endfacet
facet normal 0.7933533402912348 0.6087614290087211 0.0
  outer loop
    vertex 20.289368655857604 10.322719091754482 15.999999999999998
    vertex 20.76612452365128 9.70139874819484 14.000000000000005
    vertex 20.289368655857604 10.322719091754482 14.000000000000005
  endloop
endfacet
facet normal 0.7933533402912348 0.6087614290087211 0.0
  outer loop
    vertex 20.76612452365128 9.70139874819484 14.000000000000005
    vertex 20.289368655857604 10.322719091754482 15.999999999999998
    vertex 20.76612452365128 9.70139874819484 15.999999999999998
  endloop
endfacet
facet normal 0.9238795325112868 0.38268343236508945 0.0
  outer loop
    vertex 19.989667388343715 11.04626195644692 15.999999999999998
    vertex 20.289368655857604 10.322719091754482 14.000000000000005
    vertex 19.989667388343715 11.04626195644692 14.000000000000005
  endloop
endfacet
facet normal 0.9238795325112868 0.38268343236508945 0.0
  outer loop
    vertex 20.289368655857604 10.322719091754482 14.000000000000005
    vertex 19.989667388343715 11.04626195644692 15.999999999999998
    vertex 20.289368655857604 10.322719091754482 15.999999999999998
  endloop
endfacet
facet normal -2.375224364791295e-16 -0.7071067811865471 -0.707106781186548
  outer loop
    vertex 29.387444867210903 1.3227190917544744 0.0
    vertex 15.387444867210919 0.3227190917544819 0.9999999999999998
    vertex 16.387444867210917 1.3227190917544829 0.0
  endloop
endfacet
facet normal -2.375224364791295e-16 -0.7071067811865471 -0.707106781186548
  outer loop
    vertex 15.387444867210919 0.3227190917544819 0.9999999999999998
    vertex 29.387444867210903 1.3227190917544744 0.0
    vertex 30.3874448672109 0.3227190917544762 0.9999999999999998
  endloop
endfacet
facet normal 3.3306690738754696e-16 1.0 0.0
  outer loop
    vertex 16.38744486721091 21.322719091754482 15.999999999999998
    vertex 15.387444867210908 21.322719091754482 7.0
    vertex 15.387444867210908 21.322719091754482 14.999999999999998
  endloop
endfacet
facet normal 3.3306690738754696e-16 1.0 0.0
  outer loop
    vertex 15.387444867210908 21.322719091754482 7.0
    vertex 16.38744486721091 21.322719091754482 15.999999999999998
    vertex 30.387444867210913 21.32271909175448 7.0
  endloop
endfacet
facet normal 3.3306690738754696e-16 1.0 0.0
  outer loop
    vertex 30.387444867210913 21.32271909175448 7.0
    vertex 16.38744486721091 21.322719091754482 15.999999999999998
    vertex 29.387444867210913 21.32271909175446 15.999999999999998
  endloop
endfacet
facet normal 3.3306690738754696e-16 1.0 0.0
  outer loop
    vertex 30.387444867210913 21.32271909175448 7.0
    vertex 29.387444867210913 21.32271909175446 15.999999999999998
    vertex 30.387444867210913 21.32271909175448 14.999999999999998
  endloop
endfacet
facet normal 0.9914448613738105 0.13052619222005135 0.0
  outer loop
    vertex 19.88744486721092 11.822719091754482 15.999999999999998
    vertex 19.989667388343715 11.04626195644692 14.000000000000005
    vertex 19.88744486721092 11.822719091754482 14.000000000000005
  endloop
endfacet
facet normal 0.9914448613738105 0.13052619222005135 0.0
  outer loop
    vertex 19.989667388343715 11.04626195644692 14.000000000000005
    vertex 19.88744486721092 11.822719091754482 15.999999999999998
    vertex 19.989667388343715 11.04626195644692 15.999999999999998
  endloop
endfacet
facet normal 0.9914448613738104 -0.13052619222005224 0.0
  outer loop
    vertex 19.989667388343715 12.599176227062044 15.999999999999998
    vertex 19.88744486721092 11.822719091754482 14.000000000000005
    vertex 19.989667388343715 12.599176227062044 14.000000000000005
  endloop
endfacet
facet normal 0.9914448613738104 -0.13052619222005224 0.0
  outer loop
    vertex 19.88744486721092 11.822719091754482 14.000000000000005
    vertex 19.989667388343715 12.599176227062044 15.999999999999998
    vertex 19.88744486721092 11.822719091754482 15.999999999999998
  endloop
endfacet
facet normal 0.9238795325112866 -0.3826834323650901 0.0
  outer loop
    vertex 20.289368655857587 13.32271909175448 15.999999999999998
    vertex 19.989667388343715 12.599176227062044 14.000000000000005
    vertex 20.289368655857587 13.32271909175448 14.000000000000005
  endloop
endfacet
facet normal 0.9238795325112866 -0.3826834323650901 0.0
  outer loop
    vertex 19.989667388343715 12.599176227062044 14.000000000000005
    vertex 20.289368655857587 13.32271909175448 15.999999999999998
    vertex 19.989667388343715 12.599176227062044 15.999999999999998
  endloop
endfacet
facet normal 3.3306690738754696e-16 1.0 0.0
  outer loop
    vertex 30.3874448672109 4.322719091754474 7.0
    vertex 15.387444867210908 4.32271909175448 1.9999999999999996
    vertex 15.387444867210908 4.32271909175448 7.0
  endloop
endfacet
facet normal 3.3306690738754696e-16 1.0 0.0
  outer loop
    vertex 15.387444867210908 4.32271909175448 1.9999999999999996
    vertex 30.3874448672109 4.322719091754474 7.0
    vertex 30.3874448672109 4.322719091754474 1.9999999999999998
  endloop
endfacet
facet normal 0.7933533402912357 -0.6087614290087202 0.0
  outer loop
    vertex 20.76612452365126 13.944039435314126 15.999999999999998
    vertex 20.289368655857587 13.32271909175448 14.000000000000005
    vertex 20.76612452365126 13.944039435314126 14.000000000000005
  endloop
endfacet
facet normal 0.7933533402912357 -0.6087614290087202 0.0
  outer loop
    vertex 20.289368655857587 13.32271909175448 14.000000000000005
    vertex 20.76612452365126 13.944039435314126 15.999999999999998
    vertex 20.289368655857587 13.32271909175448 15.999999999999998
  endloop
endfacet
facet normal 0.0 0.0 -1.0
  outer loop
    vertex 27.887444867210906 16.12271909175448 14.0
    vertex 23.663902002518466 14.720496570621686 14.000000000000005
    vertex 15.387444867210904 16.122719091754483 14.0
  endloop
endfacet
facet normal 0.0 0.0 -1.0
  outer loop
    vertex 23.663902002518466 14.720496570621686 14.000000000000005
    vertex 27.887444867210906 16.12271909175448 14.0
    vertex 24.387444867210903 14.420795303107795 14.000000000000005
  endloop
endfacet
facet normal 0.0 0.0 -1.0
  outer loop
    vertex 24.387444867210903 14.420795303107795 14.000000000000005
    vertex 27.887444867210906 16.12271909175448 14.0
    vertex 25.008765210770544 13.944039435314126 14.000000000000005
  endloop
endfacet
facet normal 0.0 0.0 -1.0
  outer loop
    vertex 25.008765210770544 13.944039435314126 14.000000000000005
    vertex 27.887444867210906 16.12271909175448 14.0
    vertex 25.48552107856422 13.32271909175448 14.000000000000005
  endloop
endfacet
facet normal 0.0 0.0 -1.0
  outer loop
    vertex 25.48552107856422 13.32271909175448 14.000000000000005
    vertex 27.887444867210906 16.12271909175448 14.0
    vertex 25.785222346078108 12.599176227062044 14.000000000000005
  endloop
endfacet
facet normal 0.0 0.0 -1.0
  outer loop
    vertex 25.785222346078108 12.599176227062044 14.000000000000005
    vertex 27.887444867210906 16.12271909175448 14.0
    vertex 27.887444867210938 7.522719091754483 14.0
  endloop
endfacet
facet normal 0.0 0.0 -1.0
  outer loop
    vertex 15.387444867210904 16.122719091754483 14.0
    vertex 23.663902002518466 14.720496570621686 14.000000000000005
    vertex 22.887444867210903 14.82271909175448 14.000000000000005
  endloop
endfacet
facet normal 0.0 0.0 -1.0
  outer loop
    vertex 25.785222346078108 12.599176227062044 14.000000000000005
    vertex 27.887444867210938 7.522719091754483 14.0
    vertex 25.887444867210903 11.82271909175448 14.000000000000005
  endloop
endfacet
facet normal 0.0 0.0 -1.0
  outer loop
    vertex 25.887444867210903 11.82271909175448 14.000000000000005
    vertex 27.887444867210938 7.522719091754483 14.0
    vertex 25.785222346078108 11.04626195644692 14.000000000000005
  endloop
endfacet
facet normal 0.0 0.0 -1.0
  outer loop
    vertex 25.785222346078108 11.04626195644692 14.000000000000005
    vertex 27.887444867210938 7.522719091754483 14.0
    vertex 25.48552107856422 10.322719091754482 14.000000000000005
  endloop
endfacet
facet normal 0.0 0.0 -1.0
  outer loop
    vertex 25.48552107856422 10.322719091754482 14.000000000000005
    vertex 27.887444867210938 7.522719091754483 14.0
    vertex 25.008765210770544 9.701398748194839 14.000000000000005
  endloop
endfacet
facet normal 0.0 0.0 -1.0
  outer loop
    vertex 25.008765210770544 9.701398748194839 14.000000000000005
    vertex 27.887444867210938 7.522719091754483 14.0
    vertex 24.387444867210906 9.224642880401166 14.000000000000005
  endloop
endfacet
facet normal 0.0 0.0 -1.0
  outer loop
    vertex 24.387444867210906 9.224642880401166 14.000000000000005
    vertex 27.887444867210938 7.522719091754483 14.0
    vertex 23.663902002518466 8.924941612887276 14.000000000000005
  endloop
endfacet
facet normal 0.0 0.0 -1.0
  outer loop
    vertex 23.663902002518466 8.924941612887276 14.000000000000005
    vertex 27.887444867210938 7.522719091754483 14.0
    vertex 22.887444867210903 8.822719091754472 14.000000000000005
  endloop
endfacet
facet normal 0.0 0.0 -1.0
  outer loop
    vertex 15.387444867210904 16.122719091754483 14.0
    vertex 20.76612452365126 13.944039435314126 14.000000000000005
    vertex 15.387444867210903 7.522719091754483 14.0
  endloop
endfacet
facet normal 0.0 0.0 -1.0
  outer loop
    vertex 20.76612452365126 13.944039435314126 14.000000000000005
    vertex 15.387444867210904 16.122719091754483 14.0
    vertex 21.387444867210903 14.420795303107795 14.000000000000005
  endloop
endfacet
facet normal 0.0 0.0 -1.0
  outer loop
    vertex 21.387444867210903 14.420795303107795 14.000000000000005
    vertex 15.387444867210904 16.122719091754483 14.0
    vertex 22.11098773190334 14.720496570621686 14.000000000000005
  endloop
endfacet
facet normal 0.0 0.0 -1.0
  outer loop
    vertex 22.11098773190334 14.720496570621686 14.000000000000005
    vertex 15.387444867210904 16.122719091754483 14.0
    vertex 22.887444867210903 14.82271909175448 14.000000000000005
  endloop
endfacet
facet normal 0.0 0.0 -1.0
  outer loop
    vertex 15.387444867210903 7.522719091754483 14.0
    vertex 20.76612452365126 13.944039435314126 14.000000000000005
    vertex 20.289368655857587 13.32271909175448 14.000000000000005
  endloop
endfacet
facet normal 0.0 0.0 -1.0
  outer loop
    vertex 15.387444867210903 7.522719091754483 14.0
    vertex 20.289368655857587 13.32271909175448 14.000000000000005
    vertex 19.989667388343715 12.599176227062044 14.000000000000005
  endloop
endfacet
facet normal 0.0 0.0 -1.0
  outer loop
    vertex 15.387444867210903 7.522719091754483 14.0
    vertex 19.989667388343715 12.599176227062044 14.000000000000005
    vertex 19.88744486721092 11.822719091754482 14.000000000000005
  endloop
endfacet
facet normal 0.0 0.0 -1.0
  outer loop
    vertex 15.387444867210903 7.522719091754483 14.0
    vertex 19.88744486721092 11.822719091754482 14.000000000000005
    vertex 19.989667388343715 11.04626195644692 14.000000000000005
  endloop
endfacet
facet normal 0.0 0.0 -1.0
  outer loop
    vertex 15.387444867210903 7.522719091754483 14.0
    vertex 19.989667388343715 11.04626195644692 14.000000000000005
    vertex 20.289368655857604 10.322719091754482 14.000000000000005
  endloop
endfacet
facet normal 0.0 0.0 -1.0
  outer loop
    vertex 15.387444867210903 7.522719091754483 14.0
    vertex 20.289368655857604 10.322719091754482 14.000000000000005
    vertex 20.76612452365128 9.70139874819484 14.000000000000005
  endloop
endfacet
facet normal 0.0 0.0 -1.0
  outer loop
    vertex 15.387444867210903 7.522719091754483 14.0
    vertex 20.76612452365128 9.70139874819484 14.000000000000005
    vertex 21.387444867210906 9.224642880401166 14.000000000000005
  endloop
endfacet
facet normal 0.0 0.0 -1.0
  outer loop
    vertex 15.387444867210903 7.522719091754483 14.0
    vertex 21.387444867210906 9.224642880401166 14.000000000000005
    vertex 22.11098773190334 8.924941612887267 14.000000000000005
  endloop
endfacet
facet normal 0.0 0.0 -1.0
  outer loop
    vertex 15.387444867210903 7.522719091754483 14.0
    vertex 22.11098773190334 8.924941612887267 14.000000000000005
    vertex 22.887444867210903 8.822719091754472 14.000000000000005
  endloop
endfacet
facet normal 0.0 0.0 -1.0
  outer loop
    vertex 15.387444867210903 7.522719091754483 14.0
    vertex 22.887444867210903 8.822719091754472 14.000000000000005
    vertex 27.887444867210938 7.522719091754483 14.0
  endloop
endfacet
facet normal 0.6087614290087203 -0.7933533402912354 0.0
  outer loop
    vertex 21.387444867210903 14.420795303107795 14.000000000000005
    vertex 20.76612452365126 13.944039435314126 15.999999999999998
    vertex 20.76612452365126 13.944039435314126 14.000000000000005
  endloop
endfacet
facet normal 0.6087614290087203 -0.7933533402912354 0.0
  outer loop
    vertex 20.76612452365126 13.944039435314126 15.999999999999998
    vertex 21.387444867210903 14.420795303107795 14.000000000000005
    vertex 21.387444867210903 14.420795303107795 15.999999999999998
  endloop
endfacet
facet normal 3.3306690738754696e-16 1.0 0.0
  outer loop
    vertex 27.887444867210938 7.522719091754483 14.0
    vertex 15.387444867210903 7.522719091754483 8.999999999999998
    vertex 15.387444867210903 7.522719091754483 14.0
  endloop
endfacet
facet normal 3.3306690738754696e-16 1.0 0.0
  outer loop
    vertex 15.387444867210903 7.522719091754483 8.999999999999998
    vertex 27.887444867210938 7.522719091754483 14.0
    vertex 27.887444867210938 7.522719091754483 8.999999999999998
  endloop
endfacet
facet normal 0.38268343236509045 -0.9238795325112866 0.0
  outer loop
    vertex 22.11098773190334 14.720496570621686 14.000000000000005
    vertex 21.387444867210903 14.420795303107795 15.999999999999998
    vertex 21.387444867210903 14.420795303107795 14.000000000000005
  endloop
endfacet
facet normal 0.38268343236509045 -0.9238795325112866 0.0
  outer loop
    vertex 21.387444867210903 14.420795303107795 15.999999999999998
    vertex 22.11098773190334 14.720496570621686 14.000000000000005
    vertex 22.11098773190334 14.720496570621686 15.999999999999998
  endloop
endfacet
facet normal 0.13052619222005135 -0.9914448613738105 0.0
  outer loop
    vertex 22.887444867210903 14.82271909175448 14.000000000000005
    vertex 22.11098773190334 14.720496570621686 15.999999999999998
    vertex 22.11098773190334 14.720496570621686 14.000000000000005
  endloop
endfacet
facet normal 0.13052619222005135 -0.9914448613738105 0.0
  outer loop
    vertex 22.11098773190334 14.720496570621686 15.999999999999998
    vertex 22.887444867210903 14.82271909175448 14.000000000000005
    vertex 22.887444867210903 14.82271909175448 15.999999999999998
  endloop
endfacet
facet normal -0.13052619222005224 -0.9914448613738104 0.0
  outer loop
    vertex 23.663902002518466 14.720496570621686 14.000000000000005
    vertex 22.887444867210903 14.82271909175448 15.999999999999998
    vertex 22.887444867210903 14.82271909175448 14.000000000000005
  endloop
endfacet
facet normal -0.13052619222005224 -0.9914448613738104 0.0
  outer loop
    vertex 22.887444867210903 14.82271909175448 15.999999999999998
    vertex 23.663902002518466 14.720496570621686 14.000000000000005
    vertex 23.663902002518466 14.720496570621686 15.999999999999998
  endloop
endfacet
facet normal 0.0 0.0 1.0
  outer loop
    vertex 15.387444867210904 16.122719091754483 8.999999999999998
    vertex 22.11098773190334 14.720496570621686 8.999999999999998
    vertex 27.887444867210906 16.12271909175448 8.999999999999998
  endloop
endfacet
facet normal 0.0 0.0 1.0
  outer loop
    vertex 22.11098773190334 14.720496570621686 8.999999999999998
    vertex 15.387444867210904 16.122719091754483 8.999999999999998
    vertex 21.387444867210903 14.420795303107795 8.999999999999998
  endloop
endfacet
facet normal 0.0 0.0 1.0
  outer loop
    vertex 21.387444867210903 14.420795303107795 8.999999999999998
    vertex 15.387444867210904 16.122719091754483 8.999999999999998
    vertex 20.76612452365126 13.944039435314126 8.999999999999998
  endloop
endfacet
facet normal 0.0 0.0 1.0
  outer loop
    vertex 20.76612452365126 13.944039435314126 8.999999999999998
    vertex 15.387444867210904 16.122719091754483 8.999999999999998
    vertex 15.387444867210903 7.522719091754483 8.999999999999998
  endloop
endfacet
facet normal 0.0 0.0 1.0
  outer loop
    vertex 27.887444867210906 16.12271909175448 8.999999999999998
    vertex 22.11098773190334 14.720496570621686 8.999999999999998
    vertex 22.887444867210903 14.82271909175448 8.999999999999998
  endloop
endfacet
facet normal 0.0 0.0 1.0
  outer loop
    vertex 20.76612452365126 13.944039435314126 8.999999999999998
    vertex 15.387444867210903 7.522719091754483 8.999999999999998
    vertex 20.289368655857587 13.32271909175448 8.999999999999998
  endloop
endfacet
facet normal 0.0 0.0 1.0
  outer loop
    vertex 20.289368655857587 13.32271909175448 8.999999999999998
    vertex 15.387444867210903 7.522719091754483 8.999999999999998
    vertex 19.989667388343715 12.599176227062044 8.999999999999998
  endloop
endfacet
facet normal 0.0 0.0 1.0
  outer loop
    vertex 19.989667388343715 12.599176227062044 8.999999999999998
    vertex 15.387444867210903 7.522719091754483 8.999999999999998
    vertex 19.88744486721092 11.822719091754482 8.999999999999998
  endloop
endfacet
facet normal 0.0 0.0 1.0
  outer loop
    vertex 19.88744486721092 11.822719091754482 8.999999999999998
    vertex 15.387444867210903 7.522719091754483 8.999999999999998
    vertex 19.989667388343715 11.04626195644692 8.999999999999998
  endloop
endfacet
facet normal 0.0 0.0 1.0
  outer loop
    vertex 19.989667388343715 11.04626195644692 8.999999999999998
    vertex 15.387444867210903 7.522719091754483 8.999999999999998
    vertex 20.289368655857604 10.322719091754482 8.999999999999998
  endloop
endfacet
facet normal 0.0 0.0 1.0
  outer loop
    vertex 20.289368655857604 10.322719091754482 8.999999999999998
    vertex 15.387444867210903 7.522719091754483 8.999999999999998
    vertex 20.76612452365128 9.70139874819484 8.999999999999998
  endloop
endfacet
facet normal 0.0 0.0 1.0
  outer loop
    vertex 20.76612452365128 9.70139874819484 8.999999999999998
    vertex 15.387444867210903 7.522719091754483 8.999999999999998
    vertex 21.387444867210906 9.224642880401166 8.999999999999998
  endloop
endfacet
facet normal 0.0 0.0 1.0
  outer loop
    vertex 21.387444867210906 9.224642880401166 8.999999999999998
    vertex 15.387444867210903 7.522719091754483 8.999999999999998
    vertex 22.11098773190334 8.924941612887267 8.999999999999998
  endloop
endfacet
facet normal 0.0 0.0 1.0
  outer loop
    vertex 22.11098773190334 8.924941612887267 8.999999999999998
    vertex 15.387444867210903 7.522719091754483 8.999999999999998
    vertex 22.887444867210903 8.822719091754472 8.999999999999998
  endloop
endfacet
facet normal 0.0 0.0 1.0
  outer loop
    vertex 22.887444867210903 8.822719091754472 8.999999999999998
    vertex 15.387444867210903 7.522719091754483 8.999999999999998
    vertex 27.887444867210938 7.522719091754483 8.999999999999998
  endloop
endfacet
facet normal 0.0 0.0 1.0
  outer loop
    vertex 27.887444867210906 16.12271909175448 8.999999999999998
    vertex 25.785222346078108 12.599176227062044 8.999999999999998
    vertex 27.887444867210938 7.522719091754483 8.999999999999998
  endloop
endfacet
facet normal 0.0 0.0 1.0
  outer loop
    vertex 25.785222346078108 12.599176227062044 8.999999999999998
    vertex 27.887444867210906 16.12271909175448 8.999999999999998
    vertex 25.48552107856422 13.32271909175448 8.999999999999998
  endloop
endfacet
facet normal 0.0 0.0 1.0
  outer loop
    vertex 25.48552107856422 13.32271909175448 8.999999999999998
    vertex 27.887444867210906 16.12271909175448 8.999999999999998
    vertex 25.008765210770544 13.944039435314126 8.999999999999998
  endloop
endfacet
facet normal 0.0 0.0 1.0
  outer loop
    vertex 25.008765210770544 13.944039435314126 8.999999999999998
    vertex 27.887444867210906 16.12271909175448 8.999999999999998
    vertex 24.387444867210903 14.420795303107795 8.999999999999998
  endloop
endfacet
facet normal 0.0 0.0 1.0
  outer loop
    vertex 24.387444867210903 14.420795303107795 8.999999999999998
    vertex 27.887444867210906 16.12271909175448 8.999999999999998
    vertex 23.663902002518466 14.720496570621686 8.999999999999998
  endloop
endfacet
facet normal 0.0 0.0 1.0
  outer loop
    vertex 23.663902002518466 14.720496570621686 8.999999999999998
    vertex 27.887444867210906 16.12271909175448 8.999999999999998
    vertex 22.887444867210903 14.82271909175448 8.999999999999998
  endloop
endfacet
facet normal 0.0 0.0 1.0
  outer loop
    vertex 27.887444867210938 7.522719091754483 8.999999999999998
    vertex 25.785222346078108 12.599176227062044 8.999999999999998
    vertex 25.887444867210903 11.82271909175448 8.999999999999998
  endloop
endfacet
facet normal 0.0 0.0 1.0
  outer loop
    vertex 27.887444867210938 7.522719091754483 8.999999999999998
    vertex 25.887444867210903 11.82271909175448 8.999999999999998
    vertex 25.785222346078108 11.04626195644692 8.999999999999998
  endloop
endfacet
facet normal 0.0 0.0 1.0
  outer loop
    vertex 27.887444867210938 7.522719091754483 8.999999999999998
    vertex 25.785222346078108 11.04626195644692 8.999999999999998
    vertex 25.48552107856422 10.322719091754482 8.999999999999998
  endloop
endfacet
facet normal 0.0 0.0 1.0
  outer loop
    vertex 27.887444867210938 7.522719091754483 8.999999999999998
    vertex 25.48552107856422 10.322719091754482 8.999999999999998
    vertex 25.008765210770544 9.701398748194839 8.999999999999998
  endloop
endfacet
facet normal 0.0 0.0 1.0
  outer loop
    vertex 27.887444867210938 7.522719091754483 8.999999999999998
    vertex 25.008765210770544 9.701398748194839 8.999999999999998
    vertex 24.387444867210906 9.224642880401166 8.999999999999998
  endloop
endfacet
facet normal 0.0 0.0 1.0
  outer loop
    vertex 27.887444867210938 7.522719091754483 8.999999999999998
    vertex 24.387444867210906 9.224642880401166 8.999999999999998
    vertex 23.663902002518466 8.924941612887276 8.999999999999998
  endloop
endfacet
facet normal 0.0 0.0 1.0
  outer loop
    vertex 27.887444867210938 7.522719091754483 8.999999999999998
    vertex 23.663902002518466 8.924941612887276 8.999999999999998
    vertex 22.887444867210903 8.822719091754472 8.999999999999998
  endloop
endfacet
facet normal -0.3826834323650901 -0.9238795325112866 0.0
  outer loop
    vertex 24.387444867210903 14.420795303107795 14.000000000000005
    vertex 23.663902002518466 14.720496570621686 15.999999999999998
    vertex 23.663902002518466 14.720496570621686 14.000000000000005
  endloop
endfacet
facet normal -0.3826834323650901 -0.9238795325112866 0.0
  outer loop
    vertex 23.663902002518466 14.720496570621686 15.999999999999998
    vertex 24.387444867210903 14.420795303107795 14.000000000000005
    vertex 24.387444867210903 14.420795303107795 15.999999999999998
  endloop
endfacet
facet normal -0.6087614290087204 -0.7933533402912353 0.0
  outer loop
    vertex 25.008765210770544 13.944039435314126 14.000000000000005
    vertex 24.387444867210903 14.420795303107795 15.999999999999998
    vertex 24.387444867210903 14.420795303107795 14.000000000000005
  endloop
endfacet
facet normal -0.6087614290087204 -0.7933533402912353 0.0
  outer loop
    vertex 24.387444867210903 14.420795303107795 15.999999999999998
    vertex 25.008765210770544 13.944039435314126 14.000000000000005
    vertex 25.008765210770544 13.944039435314126 15.999999999999998
  endloop
endfacet
facet normal -0.7933533402912339 -0.6087614290087222 0.0
  outer loop
    vertex 25.48552107856422 13.32271909175448 15.999999999999998
    vertex 25.008765210770544 13.944039435314126 14.000000000000005
    vertex 25.48552107856422 13.32271909175448 14.000000000000005
  endloop
endfacet
facet normal -0.7933533402912339 -0.6087614290087222 0.0
  outer loop
    vertex 25.008765210770544 13.944039435314126 14.000000000000005
    vertex 25.48552107856422 13.32271909175448 15.999999999999998
    vertex 25.008765210770544 13.944039435314126 15.999999999999998
  endloop
endfacet
facet normal 3.3306690738754696e-16 1.0 0.0
  outer loop
    vertex 30.387444867210913 21.32271909175448 1.9999999999999998
    vertex 15.387444867210908 21.322719091754482 0.9999999999999998
    vertex 15.387444867210908 21.322719091754482 1.9999999999999996
  endloop
endfacet
facet normal 3.3306690738754696e-16 1.0 0.0
  outer loop
    vertex 15.387444867210908 21.322719091754482 0.9999999999999998
    vertex 30.387444867210913 21.32271909175448 1.9999999999999998
    vertex 16.38744486721091 21.322719091754482 0.0
  endloop
endfacet
facet normal 3.3306690738754696e-16 1.0 0.0
  outer loop
    vertex 16.38744486721091 21.322719091754482 0.0
    vertex 30.387444867210913 21.32271909175448 1.9999999999999998
    vertex 29.387444867210913 21.32271909175446 0.0
  endloop
endfacet
facet normal 3.3306690738754696e-16 1.0 0.0
  outer loop
    vertex 29.387444867210913 21.32271909175446 0.0
    vertex 30.387444867210913 21.32271909175448 1.9999999999999998
    vertex 30.387444867210913 21.32271909175448 0.9999999999999998
  endloop
endfacet
facet normal -0.9238795325112868 -0.38268343236508945 0.0
  outer loop
    vertex 25.785222346078108 12.599176227062044 15.999999999999998
    vertex 25.48552107856422 13.32271909175448 14.000000000000005
    vertex 25.785222346078108 12.599176227062044 14.000000000000005
  endloop
endfacet
facet normal -0.9238795325112868 -0.38268343236508945 0.0
  outer loop
    vertex 25.48552107856422 13.32271909175448 14.000000000000005
    vertex 25.785222346078108 12.599176227062044 15.999999999999998
    vertex 25.48552107856422 13.32271909175448 15.999999999999998
  endloop
endfacet
facet normal -0.9914448613738105 -0.13052619222005113 0.0
  outer loop
    vertex 25.887444867210903 11.82271909175448 15.999999999999998
    vertex 25.785222346078108 12.599176227062044 14.000000000000005
    vertex 25.887444867210903 11.82271909175448 14.000000000000005
  endloop
endfacet
facet normal -0.9914448613738105 -0.13052619222005113 0.0
  outer loop
    vertex 25.785222346078108 12.599176227062044 14.000000000000005
    vertex 25.887444867210903 11.82271909175448 15.999999999999998
    vertex 25.785222346078108 12.599176227062044 15.999999999999998
  endloop
endfacet
facet normal -0.9914448613738104 0.13052619222005224 0.0
  outer loop
    vertex 25.785222346078108 11.04626195644692 15.999999999999998
    vertex 25.887444867210903 11.82271909175448 14.000000000000005
    vertex 25.785222346078108 11.04626195644692 14.000000000000005
  endloop
endfacet
facet normal -0.9914448613738104 0.13052619222005224 0.0
  outer loop
    vertex 25.887444867210903 11.82271909175448 14.000000000000005
    vertex 25.785222346078108 11.04626195644692 15.999999999999998
    vertex 25.887444867210903 11.82271909175448 15.999999999999998
  endloop
endfacet
facet normal -0.9238795325112871 0.3826834323650892 0.0
  outer loop
    vertex 25.48552107856422 10.322719091754482 15.999999999999998
    vertex 25.785222346078108 11.04626195644692 14.000000000000005
    vertex 25.48552107856422 10.322719091754482 14.000000000000005
  endloop
endfacet
facet normal -0.9238795325112871 0.3826834323650892 0.0
  outer loop
    vertex 25.785222346078108 11.04626195644692 14.000000000000005
    vertex 25.48552107856422 10.322719091754482 15.999999999999998
    vertex 25.785222346078108 11.04626195644692 15.999999999999998
  endloop
endfacet
facet normal -3.3306690738754696e-16 -1.0 0.0
  outer loop
    vertex 27.887444867210906 16.12271909175448 8.999999999999998
    vertex 15.387444867210904 16.122719091754483 14.0
    vertex 15.387444867210904 16.122719091754483 8.999999999999998
  endloop
endfacet
facet normal -3.3306690738754696e-16 -1.0 0.0
  outer loop
    vertex 15.387444867210904 16.122719091754483 14.0
    vertex 27.887444867210906 16.12271909175448 8.999999999999998
    vertex 27.887444867210906 16.12271909175448 14.0
  endloop
endfacet
facet normal -1.0 3.3306690738754696e-16 0.0
  outer loop
    vertex 27.887444867210938 7.522719091754483 14.0
    vertex 27.887444867210906 16.12271909175448 8.999999999999998
    vertex 27.887444867210938 7.522719091754483 8.999999999999998
  endloop
endfacet
facet normal -1.0 3.3306690738754696e-16 0.0
  outer loop
    vertex 27.887444867210906 16.12271909175448 8.999999999999998
    vertex 27.887444867210938 7.522719091754483 14.0
    vertex 27.887444867210906 16.12271909175448 14.0
  endloop
endfacet
facet normal -0.7933533402912359 0.6087614290087199 0.0
  outer loop
    vertex 25.008765210770544 9.701398748194839 15.999999999999998
    vertex 25.48552107856422 10.322719091754482 14.000000000000005
    vertex 25.008765210770544 9.701398748194839 14.000000000000005
  endloop
endfacet
facet normal -0.7933533402912359 0.6087614290087199 0.0
  outer loop
    vertex 25.48552107856422 10.322719091754482 14.000000000000005
    vertex 25.008765210770544 9.701398748194839 15.999999999999998
    vertex 25.48552107856422 10.322719091754482 15.999999999999998
  endloop
endfacet
facet normal -0.60876142900872 0.7933533402912357 0.0
  outer loop
    vertex 25.008765210770544 9.701398748194839 15.999999999999998
    vertex 24.387444867210906 9.224642880401166 14.000000000000005
    vertex 24.387444867210906 9.224642880401166 15.999999999999998
  endloop
endfacet
facet normal -0.60876142900872 0.7933533402912357 0.0
  outer loop
    vertex 24.387444867210906 9.224642880401166 14.000000000000005
    vertex 25.008765210770544 9.701398748194839 15.999999999999998
    vertex 25.008765210770544 9.701398748194839 14.000000000000005
  endloop
endfacet
facet normal -0.382683432365091 0.9238795325112863 0.0
  outer loop
    vertex 24.387444867210906 9.224642880401166 15.999999999999998
    vertex 23.663902002518466 8.924941612887276 14.000000000000005
    vertex 23.663902002518466 8.924941612887276 15.999999999999998
  endloop
endfacet
facet normal -0.382683432365091 0.9238795325112863 0.0
  outer loop
    vertex 23.663902002518466 8.924941612887276 14.000000000000005
    vertex 24.387444867210906 9.224642880401166 15.999999999999998
    vertex 24.387444867210906 9.224642880401166 14.000000000000005
  endloop
endfacet
facet normal 0.13052619222005202 0.9914448613738105 0.0
  outer loop
    vertex 22.887444867210903 8.822719091754472 15.999999999999998
    vertex 22.11098773190334 8.924941612887267 14.000000000000005
    vertex 22.11098773190334 8.924941612887267 15.999999999999998
  endloop
endfacet
facet normal 0.13052619222005202 0.9914448613738105 0.0
  outer loop
    vertex 22.11098773190334 8.924941612887267 14.000000000000005
    vertex 22.887444867210903 8.822719091754472 15.999999999999998
    vertex 22.887444867210903 8.822719091754472 14.000000000000005
  endloop
endfacet
facet normal -0.13052619222005113 0.9914448613738105 0.0
  outer loop
    vertex 23.663902002518466 8.924941612887276 15.999999999999998
    vertex 22.887444867210903 8.822719091754472 14.000000000000005
    vertex 22.887444867210903 8.822719091754472 15.999999999999998
  endloop
endfacet
facet normal -0.13052619222005113 0.9914448613738105 0.0
  outer loop
    vertex 22.887444867210903 8.822719091754472 14.000000000000005
    vertex 23.663902002518466 8.924941612887276 15.999999999999998
    vertex 23.663902002518466 8.924941612887276 14.000000000000005
  endloop
endfacet
facet normal 0.0 0.0 1.0
  outer loop
    vertex 16.38744486721091 21.322719091754482 15.999999999999998
    vertex 20.76612452365126 13.944039435314126 15.999999999999998
    vertex 29.387444867210913 21.32271909175446 15.999999999999998
  endloop
endfacet
facet normal 0.0 0.0 1.0
  outer loop
    vertex 20.76612452365126 13.944039435314126 15.999999999999998
    vertex 16.38744486721091 21.322719091754482 15.999999999999998
    vertex 20.289368655857587 13.32271909175448 15.999999999999998
  endloop
endfacet
facet normal 0.0 0.0 1.0
  outer loop
    vertex 20.289368655857587 13.32271909175448 15.999999999999998
    vertex 16.38744486721091 21.322719091754482 15.999999999999998
    vertex 19.989667388343715 12.599176227062044 15.999999999999998
  endloop
endfacet
facet normal 0.0 0.0 1.0
  outer loop
    vertex 19.989667388343715 12.599176227062044 15.999999999999998
    vertex 16.38744486721091 21.322719091754482 15.999999999999998
    vertex 16.387444867210917 1.3227190917544829 15.999999999999998
  endloop
endfacet
facet normal 0.0 0.0 1.0
  outer loop
    vertex 29.387444867210913 21.32271909175446 15.999999999999998
    vertex 20.76612452365126 13.944039435314126 15.999999999999998
    vertex 21.387444867210903 14.420795303107795 15.999999999999998
  endloop
endfacet
facet normal 0.0 0.0 1.0
  outer loop
    vertex 29.387444867210913 21.32271909175446 15.999999999999998
    vertex 21.387444867210903 14.420795303107795 15.999999999999998
    vertex 22.11098773190334 14.720496570621686 15.999999999999998
  endloop
endfacet
facet normal 0.0 0.0 1.0
  outer loop
    vertex 29.387444867210913 21.32271909175446 15.999999999999998
    vertex 22.11098773190334 14.720496570621686 15.999999999999998
    vertex 22.887444867210903 14.82271909175448 15.999999999999998
  endloop
endfacet
facet normal 0.0 0.0 1.0
  outer loop
    vertex 19.989667388343715 12.599176227062044 15.999999999999998
    vertex 16.387444867210917 1.3227190917544829 15.999999999999998
    vertex 19.88744486721092 11.822719091754482 15.999999999999998
  endloop
endfacet
facet normal 0.0 0.0 1.0
  outer loop
    vertex 19.88744486721092 11.822719091754482 15.999999999999998
    vertex 16.387444867210917 1.3227190917544829 15.999999999999998
    vertex 19.989667388343715 11.04626195644692 15.999999999999998
  endloop
endfacet
facet normal 0.0 0.0 1.0
  outer loop
    vertex 19.989667388343715 11.04626195644692 15.999999999999998
    vertex 16.387444867210917 1.3227190917544829 15.999999999999998
    vertex 20.289368655857604 10.322719091754482 15.999999999999998
  endloop
endfacet
facet normal 0.0 0.0 1.0
  outer loop
    vertex 20.289368655857604 10.322719091754482 15.999999999999998
    vertex 16.387444867210917 1.3227190917544829 15.999999999999998
    vertex 20.76612452365128 9.70139874819484 15.999999999999998
  endloop
endfacet
facet normal 0.0 0.0 1.0
  outer loop
    vertex 20.76612452365128 9.70139874819484 15.999999999999998
    vertex 16.387444867210917 1.3227190917544829 15.999999999999998
    vertex 21.387444867210906 9.224642880401166 15.999999999999998
  endloop
endfacet
facet normal 0.0 0.0 1.0
  outer loop
    vertex 21.387444867210906 9.224642880401166 15.999999999999998
    vertex 16.387444867210917 1.3227190917544829 15.999999999999998
    vertex 22.11098773190334 8.924941612887267 15.999999999999998
  endloop
endfacet
facet normal 0.0 0.0 1.0
  outer loop
    vertex 22.11098773190334 8.924941612887267 15.999999999999998
    vertex 16.387444867210917 1.3227190917544829 15.999999999999998
    vertex 22.887444867210903 8.822719091754472 15.999999999999998
  endloop
endfacet
facet normal 0.0 0.0 1.0
  outer loop
    vertex 29.387444867210913 21.32271909175446 15.999999999999998
    vertex 25.785222346078108 12.599176227062044 15.999999999999998
    vertex 29.387444867210903 1.3227190917544744 15.999999999999998
  endloop
endfacet
facet normal 0.0 0.0 1.0
  outer loop
    vertex 25.785222346078108 12.599176227062044 15.999999999999998
    vertex 29.387444867210913 21.32271909175446 15.999999999999998
    vertex 25.48552107856422 13.32271909175448 15.999999999999998
  endloop
endfacet
facet normal 0.0 0.0 1.0
  outer loop
    vertex 25.48552107856422 13.32271909175448 15.999999999999998
    vertex 29.387444867210913 21.32271909175446 15.999999999999998
    vertex 25.008765210770544 13.944039435314126 15.999999999999998
  endloop
endfacet
facet normal 0.0 0.0 1.0
  outer loop
    vertex 25.008765210770544 13.944039435314126 15.999999999999998
    vertex 29.387444867210913 21.32271909175446 15.999999999999998
    vertex 24.387444867210903 14.420795303107795 15.999999999999998
  endloop
endfacet
facet normal 0.0 0.0 1.0
  outer loop
    vertex 24.387444867210903 14.420795303107795 15.999999999999998
    vertex 29.387444867210913 21.32271909175446 15.999999999999998
    vertex 23.663902002518466 14.720496570621686 15.999999999999998
  endloop
endfacet
facet normal 0.0 0.0 1.0
  outer loop
    vertex 23.663902002518466 14.720496570621686 15.999999999999998
    vertex 29.387444867210913 21.32271909175446 15.999999999999998
    vertex 22.887444867210903 14.82271909175448 15.999999999999998
  endloop
endfacet
facet normal 0.0 0.0 1.0
  outer loop
    vertex 29.387444867210903 1.3227190917544744 15.999999999999998
    vertex 25.785222346078108 12.599176227062044 15.999999999999998
    vertex 25.887444867210903 11.82271909175448 15.999999999999998
  endloop
endfacet
facet normal 0.0 0.0 1.0
  outer loop
    vertex 29.387444867210903 1.3227190917544744 15.999999999999998
    vertex 25.887444867210903 11.82271909175448 15.999999999999998
    vertex 25.785222346078108 11.04626195644692 15.999999999999998
  endloop
endfacet
facet normal 0.0 0.0 1.0
  outer loop
    vertex 29.387444867210903 1.3227190917544744 15.999999999999998
    vertex 25.785222346078108 11.04626195644692 15.999999999999998
    vertex 25.48552107856422 10.322719091754482 15.999999999999998
  endloop
endfacet
facet normal 0.0 0.0 1.0
  outer loop
    vertex 29.387444867210903 1.3227190917544744 15.999999999999998
    vertex 25.48552107856422 10.322719091754482 15.999999999999998
    vertex 25.008765210770544 9.701398748194839 15.999999999999998
  endloop
endfacet
facet normal 0.0 0.0 1.0
  outer loop
    vertex 29.387444867210903 1.3227190917544744 15.999999999999998
    vertex 25.008765210770544 9.701398748194839 15.999999999999998
    vertex 24.387444867210906 9.224642880401166 15.999999999999998
  endloop
endfacet
facet normal 0.0 0.0 1.0
  outer loop
    vertex 29.387444867210903 1.3227190917544744 15.999999999999998
    vertex 24.387444867210906 9.224642880401166 15.999999999999998
    vertex 23.663902002518466 8.924941612887276 15.999999999999998
  endloop
endfacet
facet normal 0.0 0.0 1.0
  outer loop
    vertex 29.387444867210903 1.3227190917544744 15.999999999999998
    vertex 23.663902002518466 8.924941612887276 15.999999999999998
    vertex 22.887444867210903 8.822719091754472 15.999999999999998
  endloop
endfacet
facet normal 0.0 0.0 1.0
  outer loop
    vertex 29.387444867210903 1.3227190917544744 15.999999999999998
    vertex 22.887444867210903 8.822719091754472 15.999999999999998
    vertex 16.387444867210917 1.3227190917544829 15.999999999999998
  endloop
endfacet
facet normal 0.7071067811865476 -2.363895231436068e-16 0.7071067811865476
  outer loop
    vertex 29.387444867210913 21.32271909175446 15.999999999999998
    vertex 30.3874448672109 0.3227190917544762 14.999999999999998
    vertex 30.387444867210913 21.32271909175448 14.999999999999998
  endloop
endfacet
facet normal 0.7071067811865476 -2.363895231436068e-16 0.7071067811865476
  outer loop
    vertex 30.3874448672109 0.3227190917544762 14.999999999999998
    vertex 29.387444867210913 21.32271909175446 15.999999999999998
    vertex 29.387444867210903 1.3227190917544744 15.999999999999998
  endloop
endfacet
facet normal -0.7071067811865478 2.4777302957713306e-16 0.7071067811865472
  outer loop
    vertex 16.387444867210917 1.3227190917544829 15.999999999999998
    vertex 15.387444867210908 21.322719091754482 14.999999999999998
    vertex 15.387444867210919 0.3227190917544819 14.999999999999998
  endloop
endfacet
facet normal -0.7071067811865478 2.4777302957713306e-16 0.7071067811865472
  outer loop
    vertex 15.387444867210908 21.322719091754482 14.999999999999998
    vertex 16.387444867210917 1.3227190917544829 15.999999999999998
    vertex 16.38744486721091 21.322719091754482 15.999999999999998
  endloop
endfacet
facet normal -2.355138688025663e-16 -0.7071067811865476 0.7071067811865476
  outer loop
    vertex 30.3874448672109 0.3227190917544762 14.999999999999998
    vertex 16.387444867210917 1.3227190917544829 15.999999999999998
    vertex 15.387444867210919 0.3227190917544819 14.999999999999998
  endloop
endfacet
facet normal -2.355138688025663e-16 -0.7071067811865476 0.7071067811865476
  outer loop
    vertex 16.387444867210917 1.3227190917544829 15.999999999999998
    vertex 30.3874448672109 0.3227190917544762 14.999999999999998
    vertex 29.387444867210903 1.3227190917544744 15.999999999999998
  endloop
endfacet
facet normal 0.0 -0.0 -1.0
  outer loop
    vertex 29.387444867210913 21.32271909175446 0.0
    vertex 16.387444867210917 1.3227190917544829 0.0
    vertex 16.38744486721091 21.322719091754482 0.0
  endloop
endfacet
facet normal 0.0 -0.0 -1.0
  outer loop
    vertex 16.387444867210917 1.3227190917544829 0.0
    vertex 29.387444867210913 21.32271909175446 0.0
    vertex 29.387444867210903 1.3227190917544744 0.0
  endloop
endfacet
facet normal 0.7071067811865471 -2.3463821446152564e-16 -0.7071067811865479
  outer loop
    vertex 30.3874448672109 0.3227190917544762 0.9999999999999998
    vertex 29.387444867210913 21.32271909175446 0.0
    vertex 30.387444867210913 21.32271909175448 0.9999999999999998
  endloop
endfacet
facet normal 0.7071067811865471 -2.3463821446152564e-16 -0.7071067811865479
  outer loop
    vertex 29.387444867210913 21.32271909175446 0.0
    vertex 30.3874448672109 0.3227190917544762 0.9999999999999998
    vertex 29.387444867210903 1.3227190917544744 0.0
  endloop
endfacet
facet normal -0.7071067811865476 2.363895231436068e-16 -0.7071067811865476
  outer loop
    vertex 15.387444867210919 0.3227190917544819 0.9999999999999998
    vertex 16.38744486721091 21.322719091754482 0.0
    vertex 16.387444867210917 1.3227190917544829 0.0
  endloop
endfacet
facet normal -0.7071067811865476 2.363895231436068e-16 -0.7071067811865476
  outer loop
    vertex 16.38744486721091 21.322719091754482 0.0
    vertex 15.387444867210919 0.3227190917544819 0.9999999999999998
    vertex 15.387444867210908 21.322719091754482 0.9999999999999998
  endloop
endfacet
facet normal 0.8762159086766469 -0.4819187497721561 0.0
  outer loop
    vertex 9.387444867210913 30.322719091754482 20.0
    vertex 7.187444867210913 26.32271909175448 0.0
    vertex 9.387444867210913 30.322719091754482 0.0
  endloop
endfacet
facet normal 0.8762159086766469 -0.4819187497721561 0.0
  outer loop
    vertex 7.187444867210913 26.32271909175448 0.0
    vertex 9.387444867210913 30.322719091754482 20.0
    vertex 7.187444867210913 26.32271909175448 20.0
  endloop
endfacet
facet normal -3.3306690738754696e-16 -1.0 0.0
  outer loop
    vertex 13.387444867210915 30.322719091754482 0.0
    vertex 9.387444867210913 30.322719091754482 20.0
    vertex 9.387444867210913 30.322719091754482 0.0
  endloop
endfacet
facet normal -3.3306690738754696e-16 -1.0 0.0
  outer loop
    vertex 9.387444867210913 30.322719091754482 20.0
    vertex 13.387444867210915 30.322719091754482 0.0
    vertex 13.387444867210915 30.322719091754482 20.0
  endloop
endfacet
facet normal -0.8762159086766473 -0.48191874977215554 0.0
  outer loop
    vertex 15.58744486721091 26.32271909175448 20.0
    vertex 13.387444867210915 30.322719091754482 0.0
    vertex 15.58744486721091 26.32271909175448 0.0
  endloop
endfacet
facet normal -0.8762159086766473 -0.48191874977215554 0.0
  outer loop
    vertex 13.387444867210915 30.322719091754482 0.0
    vertex 15.58744486721091 26.32271909175448 20.0
    vertex 13.387444867210915 30.322719091754482 20.0
  endloop
endfacet
facet normal -0.8762159086766469 0.4819187497721559 0.0
  outer loop
    vertex 13.387444867210911 22.322719091754482 20.0
    vertex 15.58744486721091 26.32271909175448 0.0
    vertex 13.387444867210911 22.322719091754482 0.0
  endloop
endfacet
facet normal -0.8762159086766469 0.4819187497721559 0.0
  outer loop
    vertex 15.58744486721091 26.32271909175448 0.0
    vertex 13.387444867210911 22.322719091754482 20.0
    vertex 15.58744486721091 26.32271909175448 20.0
  endloop
endfacet
facet normal 3.3306690738754696e-16 1.0 0.0
  outer loop
    vertex 13.387444867210911 22.322719091754482 20.0
    vertex 9.38744486721091 22.322719091754482 0.0
    vertex 9.38744486721091 22.322719091754482 20.0
  endloop
endfacet
facet normal 3.3306690738754696e-16 1.0 0.0
  outer loop
    vertex 9.38744486721091 22.322719091754482 0.0
    vertex 13.387444867210911 22.322719091754482 20.0
    vertex 13.387444867210911 22.322719091754482 0.0
  endloop
endfacet
facet normal 0.8762159086766473 0.48191874977215565 0.0
  outer loop
    vertex 7.187444867210913 26.32271909175448 20.0
    vertex 9.38744486721091 22.322719091754482 0.0
    vertex 7.187444867210913 26.32271909175448 0.0
  endloop
endfacet
facet normal 0.8762159086766473 0.48191874977215565 0.0
  outer loop
    vertex 9.38744486721091 22.322719091754482 0.0
    vertex 7.187444867210913 26.32271909175448 20.0
    vertex 9.38744486721091 22.322719091754482 20.0
  endloop
endfacet
facet normal -0.6195782108087906 -0.3407680159448344 0.7071067811865469
  outer loop
    vertex 8.137444867210908 21.322719091754482 19.0
    vertex 6.528716088262244 26.32271909175448 20.0
    vertex 5.387444867210911 26.32271909175448 19.0
  endloop
endfacet
facet normal -0.6195782108087906 -0.3407680159448344 0.7071067811865469
  outer loop
    vertex 6.528716088262244 26.32271909175448 20.0
    vertex 8.137444867210908 21.322719091754482 19.0
    vertex 8.728716088262242 22.322719091754482 20.0
  endloop
endfacet
facet normal 0.31622776601683805 -2.159521745172067e-17 0.9486832980505138
  outer loop
    vertex 20.387444867210913 21.32271909175448 19.0
    vertex 29.387444867210913 22.322719091754475 15.999999999999998
    vertex 20.387444867210917 31.322719091754475 19.0
  endloop
endfacet
facet normal 0.31622776601683805 -2.159521745172067e-17 0.9486832980505138
  outer loop
    vertex 29.387444867210913 22.322719091754475 15.999999999999998
    vertex 20.387444867210913 21.32271909175448 19.0
    vertex 29.387444867210913 21.32271909175447 15.999999999999998
  endloop
endfacet
facet normal 0.7071067811865476 -2.355138688025663e-16 0.7071067811865476
  outer loop
    vertex 29.387444867210913 21.32271909175447 15.999999999999998
    vertex 30.387444867210913 21.322719091754475 14.999999999999998
    vertex 29.387444867210913 22.322719091754475 15.999999999999998
  endloop
endfacet
facet normal 0.0 -0.0 -1.0
  outer loop
    vertex 7.187444867210913 26.32271909175448 0.0
    vertex 8.728716088262246 30.322719091754482 0.0
    vertex 9.387444867210913 30.322719091754482 0.0
  endloop
endfacet
facet normal 0.0 -0.0 -1.0
  outer loop
    vertex 8.728716088262246 30.322719091754482 0.0
    vertex 7.187444867210913 26.32271909175448 0.0
    vertex 6.528716088262244 26.32271909175448 0.0
  endloop
endfacet
facet normal 0.0 -0.0 -1.0
  outer loop
    vertex 6.528716088262244 26.32271909175448 0.0
    vertex 7.187444867210913 26.32271909175448 0.0
    vertex 9.38744486721091 22.322719091754482 0.0
  endloop
endfacet
facet normal 0.0 -0.0 -1.0
  outer loop
    vertex 6.528716088262244 26.32271909175448 0.0
    vertex 9.38744486721091 22.322719091754482 0.0
    vertex 8.72871608826224 22.322719091754482 0.0
  endloop
endfacet
facet normal 0.0 -0.0 -1.0
  outer loop
    vertex 29.387444867210913 21.32271909175447 0.0
    vertex 13.387444867210915 30.322719091754482 0.0
    vertex 20.38744486721092 30.32271909175448 0.0
  endloop
endfacet
facet normal 0.0 -0.0 -1.0
  outer loop
    vertex 13.387444867210915 30.322719091754482 0.0
    vertex 29.387444867210913 21.32271909175447 0.0
    vertex 15.58744486721091 26.32271909175448 0.0
  endloop
endfacet
facet normal 0.0 -0.0 -1.0
  outer loop
    vertex 15.58744486721091 26.32271909175448 0.0
    vertex 29.387444867210913 21.32271909175447 0.0
    vertex 16.38744486721091 22.322719091754475 0.0
  endloop
endfacet
facet normal 0.0 -0.0 -1.0
  outer loop
    vertex 15.58744486721091 26.32271909175448 0.0
    vertex 16.38744486721091 22.322719091754475 0.0
    vertex 13.387444867210911 22.322719091754482 0.0
  endloop
endfacet
facet normal 0.0 -0.0 -1.0
  outer loop
    vertex 16.38744486721091 22.322719091754475 0.0
    vertex 29.387444867210913 21.32271909175447 0.0
    vertex 16.38744486721091 21.32271909175448 0.0
  endloop
endfacet
facet normal 2.1796623463049e-16 1.0 0.0
  outer loop
    vertex 20.387444867210917 31.322719091754475 19.0
    vertex 8.13744486721091 31.322719091754482 1.0065584812138841
    vertex 8.13744486721091 31.322719091754482 19.0
  endloop
endfacet
facet normal 2.1796623463049e-16 1.0 0.0
  outer loop
    vertex 8.13744486721091 31.322719091754482 1.0065584812138841
    vertex 20.387444867210917 31.322719091754475 19.0
    vertex 20.387444867210917 31.322719091754475 1.0065584812138841
  endloop
endfacet
facet normal -0.8762159086766473 -0.4819187497721553 0.0
  outer loop
    vertex 8.137444867210908 21.322719091754482 19.0
    vertex 5.387444867210911 26.32271909175448 1.0065584812138841
    vertex 8.137444867210908 21.322719091754482 1.0065584812138841
  endloop
endfacet
facet normal -0.8762159086766473 -0.4819187497721553 0.0
  outer loop
    vertex 5.387444867210911 26.32271909175448 1.0065584812138841
    vertex 8.137444867210908 21.322719091754482 19.0
    vertex 5.387444867210911 26.32271909175448 19.0
  endloop
endfacet
facet normal 0.7071067811865478 0.7071067811865472 1.9612682580100478e-17
  outer loop
    vertex 20.387444867210917 31.322719091754475 19.0
    vertex 30.387444867210913 21.322719091754475 1.0065584812138841
    vertex 20.387444867210917 31.322719091754475 1.0065584812138841
  endloop
endfacet
facet normal 0.7071067811865478 0.7071067811865472 1.9612682580100478e-17
  outer loop
    vertex 30.387444867210913 21.322719091754475 1.0065584812138841
    vertex 20.387444867210917 31.322719091754475 19.0
    vertex 30.387444867210913 21.322719091754475 14.999999999999998
  endloop
endfacet
facet normal 0.7071067811865478 0.7071067811865472 1.9612682580100478e-17
  outer loop
    vertex 30.387444867210913 21.322719091754475 14.999999999999998
    vertex 20.387444867210917 31.322719091754475 19.0
    vertex 29.387444867210913 22.322719091754475 15.999999999999998
  endloop
endfacet
facet normal -0.8762159086766471 0.4819187497721559 0.0
  outer loop
    vertex 5.387444867210911 26.32271909175448 19.0
    vertex 8.13744486721091 31.322719091754482 1.0065584812138841
    vertex 5.387444867210911 26.32271909175448 1.0065584812138841
  endloop
endfacet
facet normal -0.8762159086766471 0.4819187497721559 0.0
  outer loop
    vertex 8.13744486721091 31.322719091754482 1.0065584812138841
    vertex 5.387444867210911 26.32271909175448 19.0
    vertex 8.13744486721091 31.322719091754482 19.0
  endloop
endfacet
facet normal -3.3306690738754696e-16 -1.0 0.0
  outer loop
    vertex 15.387444867210911 21.32271909175448 1.0065584812138841
    vertex 8.137444867210908 21.322719091754482 19.0
    vertex 8.137444867210908 21.322719091754482 1.0065584812138841
  endloop
endfacet
facet normal -3.3306690738754696e-16 -1.0 0.0
  outer loop
    vertex 8.137444867210908 21.322719091754482 19.0
    vertex 15.387444867210911 21.32271909175448 1.0065584812138841
    vertex 20.387444867210913 21.32271909175448 19.0
  endloop
endfacet
facet normal -3.3306690738754696e-16 -1.0 0.0
  outer loop
    vertex 20.387444867210913 21.32271909175448 19.0
    vertex 15.387444867210911 21.32271909175448 1.0065584812138841
    vertex 16.38744486721091 21.32271909175448 0.0
  endloop
endfacet
facet normal -3.3306690738754696e-16 -1.0 0.0
  outer loop
    vertex 20.387444867210913 21.32271909175448 19.0
    vertex 16.38744486721091 21.32271909175448 0.0
    vertex 29.387444867210913 21.32271909175447 0.0
  endloop
endfacet
facet normal -3.3306690738754696e-16 -1.0 0.0
  outer loop
    vertex 20.387444867210913 21.32271909175448 19.0
    vertex 29.387444867210913 21.32271909175447 0.0
    vertex 29.387444867210913 21.32271909175447 15.999999999999998
  endloop
endfacet
facet normal -3.3306690738754696e-16 -1.0 0.0
  outer loop
    vertex 29.387444867210913 21.32271909175447 15.999999999999998
    vertex 29.387444867210913 21.32271909175447 0.0
    vertex 30.387444867210913 21.322719091754475 1.0065584812138841
  endloop
endfacet
facet normal -3.3306690738754696e-16 -1.0 0.0
  outer loop
    vertex 29.387444867210913 21.32271909175447 15.999999999999998
    vertex 30.387444867210913 21.322719091754475 1.0065584812138841
    vertex 30.387444867210913 21.322719091754475 14.999999999999998
  endloop
endfacet
facet normal -0.6215999956880173 0.3418799976284096 -0.704791822159037
  outer loop
    vertex 8.728716088262246 30.322719091754482 0.0
    vertex 5.387444867210911 26.32271909175448 1.0065584812138841
    vertex 8.13744486721091 31.322719091754482 1.0065584812138841
  endloop
endfacet
facet normal -0.6215999956880173 0.3418799976284096 -0.704791822159037
  outer loop
    vertex 5.387444867210911 26.32271909175448 1.0065584812138841
    vertex 8.728716088262246 30.322719091754482 0.0
    vertex 6.528716088262244 26.32271909175448 0.0
  endloop
endfacet
facet normal -0.6215999956880176 -0.34187999762840915 -0.704791822159037
  outer loop
    vertex 8.72871608826224 22.322719091754482 0.0
    vertex 5.387444867210911 26.32271909175448 1.0065584812138841
    vertex 6.528716088262244 26.32271909175448 0.0
  endloop
endfacet
facet normal -0.6215999956880176 -0.34187999762840915 -0.704791822159037
  outer loop
    vertex 5.387444867210911 26.32271909175448 1.0065584812138841
    vertex 8.72871608826224 22.322719091754482 0.0
    vertex 8.137444867210908 21.322719091754482 1.0065584812138841
  endloop
endfacet
facet normal -2.451865005258576e-16 -0.7094141860843663 -0.7047918221590372
  outer loop
    vertex 8.72871608826224 22.322719091754482 0.0
    vertex 15.387444867210911 21.32271909175448 1.0065584812138841
    vertex 8.137444867210908 21.322719091754482 1.0065584812138841
  endloop
endfacet
facet normal -2.451865005258576e-16 -0.7094141860843663 -0.7047918221590372
  outer loop
    vertex 15.387444867210911 21.32271909175448 1.0065584812138841
    vertex 8.72871608826224 22.322719091754482 0.0
    vertex 9.38744486721091 22.322719091754482 0.0
  endloop
endfacet
facet normal -2.451865005258576e-16 -0.7094141860843663 -0.7047918221590372
  outer loop
    vertex 15.387444867210911 21.32271909175448 1.0065584812138841
    vertex 9.38744486721091 22.322719091754482 0.0
    vertex 13.387444867210911 22.322719091754482 0.0
  endloop
endfacet
facet normal -2.451865005258576e-16 -0.7094141860843663 -0.7047918221590372
  outer loop
    vertex 15.387444867210911 21.32271909175448 1.0065584812138841
    vertex 13.387444867210911 22.322719091754482 0.0
    vertex 16.38744486721091 22.322719091754475 0.0
  endloop
endfacet
facet normal 1.9604467915878153e-16 0.7094141860843663 -0.7047918221590372
  outer loop
    vertex 20.387444867210917 31.322719091754475 1.0065584812138841
    vertex 8.728716088262246 30.322719091754482 0.0
    vertex 8.13744486721091 31.322719091754482 1.0065584812138841
  endloop
endfacet
facet normal 1.9604467915878153e-16 0.7094141860843663 -0.7047918221590372
  outer loop
    vertex 8.728716088262246 30.322719091754482 0.0
    vertex 20.387444867210917 31.322719091754475 1.0065584812138841
    vertex 9.387444867210913 30.322719091754482 0.0
  endloop
endfacet
facet normal 1.9604467915878153e-16 0.7094141860843663 -0.7047918221590372
  outer loop
    vertex 9.387444867210913 30.322719091754482 0.0
    vertex 20.387444867210917 31.322719091754475 1.0065584812138841
    vertex 13.387444867210915 30.322719091754482 0.0
  endloop
endfacet
facet normal 1.9604467915878153e-16 0.7094141860843663 -0.7047918221590372
  outer loop
    vertex 13.387444867210915 30.322719091754482 0.0
    vertex 20.387444867210917 31.322719091754475 1.0065584812138841
    vertex 20.38744486721092 30.32271909175448 0.0
  endloop
endfacet
facet normal 0.5786042135638445 0.5786042135638441 -0.5748341744297487
  outer loop
    vertex 30.387444867210913 21.322719091754475 1.0065584812138841
    vertex 20.38744486721092 30.32271909175448 0.0
    vertex 20.387444867210917 31.322719091754475 1.0065584812138841
  endloop
endfacet
facet normal 0.5786042135638445 0.5786042135638441 -0.5748341744297487
  outer loop
    vertex 20.38744486721092 30.32271909175448 0.0
    vertex 30.387444867210913 21.322719091754475 1.0065584812138841
    vertex 29.387444867210913 21.32271909175447 0.0
  endloop
endfacet
facet normal -0.7094141860843665 3.288562295712602e-16 -0.7047918221590371
  outer loop
    vertex 15.387444867210911 21.32271909175448 1.0065584812138841
    vertex 16.38744486721091 22.322719091754475 0.0
    vertex 16.38744486721091 21.32271909175448 0.0
  endloop
endfacet
facet normal 0.0 0.0 1.0
  outer loop
    vertex 15.58744486721091 26.32271909175448 20.0
    vertex 19.387444867210913 30.32271909175448 20.0
    vertex 13.387444867210915 30.322719091754482 20.0
  endloop
endfacet
facet normal 0.0 0.0 1.0
  outer loop
    vertex 19.387444867210913 30.32271909175448 20.0
    vertex 15.58744486721091 26.32271909175448 20.0
    vertex 19.387444867210913 22.322719091754475 20.0
  endloop
endfacet
facet normal 0.0 0.0 1.0
  outer loop
    vertex 19.387444867210913 22.322719091754475 20.0
    vertex 15.58744486721091 26.32271909175448 20.0
    vertex 13.387444867210911 22.322719091754482 20.0
  endloop
endfacet
facet normal 0.0 0.0 1.0
  outer loop
    vertex 6.528716088262244 26.32271909175448 20.0
    vertex 9.387444867210913 30.322719091754482 20.0
    vertex 8.728716088262242 30.322719091754482 20.0
  endloop
endfacet
facet normal 0.0 0.0 1.0
  outer loop
    vertex 9.387444867210913 30.322719091754482 20.0
    vertex 6.528716088262244 26.32271909175448 20.0
    vertex 7.187444867210913 26.32271909175448 20.0
  endloop
endfacet
facet normal 0.0 0.0 1.0
  outer loop
    vertex 7.187444867210913 26.32271909175448 20.0
    vertex 6.528716088262244 26.32271909175448 20.0
    vertex 8.728716088262242 22.322719091754482 20.0
  endloop
endfacet
facet normal 0.0 0.0 1.0
  outer loop
    vertex 7.187444867210913 26.32271909175448 20.0
    vertex 8.728716088262242 22.322719091754482 20.0
    vertex 9.38744486721091 22.322719091754482 20.0
  endloop
endfacet
facet normal -0.6195782108087898 0.3407680159448344 0.7071067811865476
  outer loop
    vertex 5.387444867210911 26.32271909175448 19.0
    vertex 8.728716088262242 30.322719091754482 20.0
    vertex 8.13744486721091 31.322719091754482 19.0
  endloop
endfacet
facet normal -0.6195782108087898 0.3407680159448344 0.7071067811865476
  outer loop
    vertex 8.728716088262242 30.322719091754482 20.0
    vertex 5.387444867210911 26.32271909175448 19.0
    vertex 6.528716088262244 26.32271909175448 20.0
  endloop
endfacet
facet normal 1.451868642273715e-16 0.707106781186548 0.7071067811865471
  outer loop
    vertex 8.728716088262242 30.322719091754482 20.0
    vertex 20.387444867210917 31.322719091754475 19.0
    vertex 8.13744486721091 31.322719091754482 19.0
  endloop
endfacet
facet normal 1.451868642273715e-16 0.707106781186548 0.7071067811865471
  outer loop
    vertex 20.387444867210917 31.322719091754475 19.0
    vertex 8.728716088262242 30.322719091754482 20.0
    vertex 9.387444867210913 30.322719091754482 20.0
  endloop
endfacet
facet normal 1.451868642273715e-16 0.707106781186548 0.7071067811865471
  outer loop
    vertex 20.387444867210917 31.322719091754475 19.0
    vertex 9.387444867210913 30.322719091754482 20.0
    vertex 13.387444867210915 30.322719091754482 20.0
  endloop
endfacet
facet normal 1.451868642273715e-16 0.707106781186548 0.7071067811865471
  outer loop
    vertex 20.387444867210917 31.322719091754475 19.0
    vertex 13.387444867210915 30.322719091754482 20.0
    vertex 19.387444867210913 30.32271909175448 20.0
  endloop
endfacet
facet normal -2.240639668141614e-16 -0.7071067811865479 0.7071067811865472
  outer loop
    vertex 20.387444867210913 21.32271909175448 19.0
    vertex 8.728716088262242 22.322719091754482 20.0
    vertex 8.137444867210908 21.322719091754482 19.0
  endloop
endfacet
facet normal -2.240639668141614e-16 -0.7071067811865479 0.7071067811865472
  outer loop
    vertex 8.728716088262242 22.322719091754482 20.0
    vertex 20.387444867210913 21.32271909175448 19.0
    vertex 9.38744486721091 22.322719091754482 20.0
  endloop
endfacet
facet normal -2.240639668141614e-16 -0.7071067811865479 0.7071067811865472
  outer loop
    vertex 9.38744486721091 22.322719091754482 20.0
    vertex 20.387444867210913 21.32271909175448 19.0
    vertex 13.387444867210911 22.322719091754482 20.0
  endloop
endfacet
facet normal -2.240639668141614e-16 -0.7071067811865479 0.7071067811865472
  outer loop
    vertex 13.387444867210911 22.322719091754482 20.0
    vertex 20.387444867210913 21.32271909175448 19.0
    vertex 19.387444867210913 22.322719091754475 20.0
  endloop
endfacet
facet normal 0.707106781186548 -2.3551386880256644e-16 0.7071067811865471
  outer loop
    vertex 19.387444867210913 30.32271909175448 20.0
    vertex 20.387444867210913 21.32271909175448 19.0
    vertex 20.387444867210917 31.322719091754475 19.0
  endloop
endfacet
facet normal 0.707106781186548 -2.3551386880256644e-16 0.7071067811865471
  outer loop
    vertex 20.387444867210913 21.32271909175448 19.0
    vertex 19.387444867210913 30.32271909175448 20.0
    vertex 19.387444867210913 22.322719091754475 20.0
  endloop
endfacet
endsolid AW_Stifthalter_v5
