solid AW_Case
facet normal 0.8762159086766469 -0.4819187497721563 0.0
  outer loop
    vertex -0.33537534199924535 3.769805136256389 6.999999999999998
    vertex -3.085375341999249 -1.2301948637436129 17.999999999999996
    vertex -3.085375341999249 -1.2301948637436129 6.999999999999998
  endloop
endfacet
facet normal 0.8762159086766469 -0.4819187497721563 0.0
  outer loop
    vertex -3.085375341999249 -1.2301948637436129 17.999999999999996
    vertex -0.33537534199924535 3.769805136256389 6.999999999999998
    vertex -0.33537534199924535 3.769805136256389 17.999999999999996
  endloop
endfacet
facet normal -4.604026910282282e-16 -1.0 0.0
  outer loop
    vertex 11.914624658000754 3.7698051362563834 17.999999999999996
    vertex -0.33537534199924535 3.769805136256389 6.999999999999998
    vertex 11.914624658000754 3.7698051362563834 6.999999999999998
  endloop
endfacet
facet normal -4.604026910282282e-16 -1.0 0.0
  outer loop
    vertex -0.33537534199924535 3.769805136256389 6.999999999999998
    vertex 11.914624658000754 3.7698051362563834 17.999999999999996
    vertex -0.33537534199924535 3.769805136256389 17.999999999999996
  endloop
endfacet
facet normal 1.0 3.7801159283483883e-16 -1.86473089214485e-32
  outer loop
    vertex 6.914624658000736 -6.230194863743615 6.999999999999998
    vertex 6.914624658000747 -27.230194863743616 17.999999999999996
    vertex 6.914624658000747 -27.230194863743616 6.999999999999998
  endloop
endfacet
facet normal 1.0 3.7801159283483883e-16 -1.86473089214485e-32
  outer loop
    vertex 6.914624658000747 -27.230194863743616 17.999999999999996
    vertex 6.914624658000736 -6.230194863743615 6.999999999999998
    vertex 6.914624658000736 -6.230194863743615 17.999999999999996
  endloop
endfacet
facet normal -1.127986593019159e-15 1.0 0.0
  outer loop
    vertex 32.91123593853384 -27.230194863743623 17.999999999999996
    vertex 52.91123593853384 -27.2301948637436 6.999999999999998
    vertex 32.91123593853384 -27.230194863743623 6.999999999999998
  endloop
endfacet
facet normal -1.127986593019159e-15 1.0 0.0
  outer loop
    vertex 52.91123593853384 -27.2301948637436 6.999999999999998
    vertex 32.91123593853384 -27.230194863743623 17.999999999999996
    vertex 52.91123593853384 -27.2301948637436 17.999999999999996
  endloop
endfacet
facet normal 7.779217882890766e-16 1.0 0.0
  outer loop
    vertex -0.33537534199925095 -6.230194863743609 17.999999999999996
    vertex 6.914624658000736 -6.230194863743615 6.999999999999998
    vertex -0.33537534199925095 -6.230194863743609 6.999999999999998
  endloop
endfacet
facet normal 7.779217882890766e-16 1.0 0.0
  outer loop
    vertex 6.914624658000736 -6.230194863743615 6.999999999999998
    vertex -0.33537534199925095 -6.230194863743609 17.999999999999996
    vertex 6.914624658000736 -6.230194863743615 17.999999999999996
  endloop
endfacet
facet normal 3.759955310063867e-16 1.0 0.0
  outer loop
    vertex 6.914624658000747 -27.230194863743616 17.999999999999996
    vertex 21.91462465800073 -27.230194863743623 6.999999999999998
    vertex 6.914624658000747 -27.230194863743616 6.999999999999998
  endloop
endfacet
facet normal 3.759955310063867e-16 1.0 0.0
  outer loop
    vertex 21.91462465800073 -27.230194863743623 6.999999999999998
    vertex 6.914624658000747 -27.230194863743616 17.999999999999996
    vertex 21.91462465800073 -27.230194863743623 17.999999999999996
  endloop
endfacet
facet normal 0.876215908676647 0.4819187497721558 0.0
  outer loop
    vertex -3.085375341999249 -1.2301948637436129 6.999999999999998
    vertex -0.33537534199925095 -6.230194863743609 17.999999999999996
    vertex -0.33537534199925095 -6.230194863743609 6.999999999999998
  endloop
endfacet
facet normal 0.876215908676647 0.4819187497721558 0.0
  outer loop
    vertex -0.33537534199925095 -6.230194863743609 17.999999999999996
    vertex -3.085375341999249 -1.2301948637436129 6.999999999999998
    vertex -3.085375341999249 -1.2301948637436129 17.999999999999996
  endloop
endfacet
facet normal -0.7071067811865482 -0.7071067811865468 0.0
  outer loop
    vertex 11.914624658000754 3.7698051362563834 17.999999999999996
    vertex 21.914624658000736 -6.230194863743621 6.999999999999998
    vertex 21.914624658000736 -6.230194863743621 17.999999999999996
  endloop
endfacet
facet normal -0.7071067811865482 -0.7071067811865468 0.0
  outer loop
    vertex 21.914624658000736 -6.230194863743621 6.999999999999998
    vertex 11.914624658000754 3.7698051362563834 17.999999999999996
    vertex 11.914624658000754 3.7698051362563834 6.999999999999998
  endloop
endfacet
facet normal -1.0 2.8728881055447756e-16 7.302305750866449e-33
  outer loop
    vertex 21.914624658000736 -6.230194863743621 17.999999999999996
    vertex 21.91462465800073 -27.230194863743623 6.999999999999998
    vertex 21.91462465800073 -27.230194863743623 17.999999999999996
  endloop
endfacet
facet normal -1.0 2.8728881055447756e-16 7.302305750866449e-33
  outer loop
    vertex 21.91462465800073 -27.230194863743623 6.999999999999998
    vertex 21.914624658000736 -6.230194863743621 17.999999999999996
    vertex 21.914624658000736 -6.230194863743621 6.999999999999998
  endloop
endfacet
facet normal 8.007271955386268e-18 1.2196734856835482e-17 1.0
  outer loop
    vertex -16.36642447599035 -42.434747486311814 14.999999999999998
    vertex -16.366424475990353 -35.93474748631181 14.999999999999998
    vertex -17.660519701502952 -42.26437661775716 14.999999999999998
  endloop
endfacet
facet normal 8.007271955386268e-18 1.2196734856835482e-17 1.0
  outer loop
    vertex -16.366424475990353 -35.93474748631181 14.999999999999998
    vertex -16.36642447599035 -42.434747486311814 14.999999999999998
    vertex -16.315313215423956 -36.32297605396559 14.999999999999998
  endloop
endfacet
facet normal 8.007271955386268e-18 1.2196734856835482e-17 1.0
  outer loop
    vertex -16.315313215423956 -36.32297605396559 14.999999999999998
    vertex -16.36642447599035 -42.434747486311814 14.999999999999998
    vertex -16.165462581667015 -36.68474748631181 14.999999999999998
  endloop
endfacet
facet normal 8.007271955386268e-18 1.2196734856835482e-17 1.0
  outer loop
    vertex -16.165462581667015 -36.68474748631181 14.999999999999998
    vertex -16.36642447599035 -42.434747486311814 14.999999999999998
    vertex -15.927084647770176 -36.99540765809163 14.999999999999998
  endloop
endfacet
facet normal 8.007271955386268e-18 1.2196734856835482e-17 1.0
  outer loop
    vertex -15.927084647770176 -36.99540765809163 14.999999999999998
    vertex -16.36642447599035 -42.434747486311814 14.999999999999998
    vertex -15.616424475990355 -37.23378559198847 14.999999999999998
  endloop
endfacet
facet normal 8.007271955386268e-18 1.2196734856835482e-17 1.0
  outer loop
    vertex -15.616424475990355 -37.23378559198847 14.999999999999998
    vertex -16.36642447599035 -42.434747486311814 14.999999999999998
    vertex -15.254653043644138 -37.38363622574542 14.999999999999998
  endloop
endfacet
facet normal 8.007271955386268e-18 1.2196734856835482e-17 1.0
  outer loop
    vertex -15.254653043644138 -37.38363622574542 14.999999999999998
    vertex -16.36642447599035 -42.434747486311814 14.999999999999998
    vertex -14.866424475990357 -37.434747486311814 14.999999999999998
  endloop
endfacet
facet normal 8.007271955386268e-18 1.2196734856835482e-17 1.0
  outer loop
    vertex -14.866424475990357 -37.434747486311814 14.999999999999998
    vertex -16.36642447599035 -42.434747486311814 14.999999999999998
    vertex 63.63357552400964 -42.43474748631182 14.999999999999998
  endloop
endfacet
facet normal 8.007271955386268e-18 1.2196734856835482e-17 1.0
  outer loop
    vertex -14.866424475990357 -37.434747486311814 14.999999999999998
    vertex 63.63357552400964 -42.43474748631182 14.999999999999998
    vertex 62.13357552400964 -37.434747486311814 15.0
  endloop
endfacet
facet normal 8.007271955386268e-18 1.2196734856835482e-17 1.0
  outer loop
    vertex 62.13357552400964 -37.434747486311814 15.0
    vertex 63.63357552400964 -42.43474748631182 14.999999999999998
    vertex 62.52180409166342 -37.38363622574542 15.0
  endloop
endfacet
facet normal 8.007271955386268e-18 1.2196734856835482e-17 1.0
  outer loop
    vertex 62.52180409166342 -37.38363622574542 15.0
    vertex 63.63357552400964 -42.43474748631182 14.999999999999998
    vertex 62.88357552400964 -37.23378559198847 15.0
  endloop
endfacet
facet normal 8.007271955386268e-18 1.2196734856835482e-17 1.0
  outer loop
    vertex 62.88357552400964 -37.23378559198847 15.0
    vertex 63.63357552400964 -42.43474748631182 14.999999999999998
    vertex 63.194235695789466 -36.99540765809163 15.0
  endloop
endfacet
facet normal 8.007271955386268e-18 1.2196734856835482e-17 1.0
  outer loop
    vertex 63.194235695789466 -36.99540765809163 15.0
    vertex 63.63357552400964 -42.43474748631182 14.999999999999998
    vertex 63.432613629686294 -36.684747486311814 15.0
  endloop
endfacet
facet normal 8.007271955386268e-18 1.2196734856835482e-17 1.0
  outer loop
    vertex 63.432613629686294 -36.684747486311814 15.0
    vertex 63.63357552400964 -42.43474748631182 14.999999999999998
    vertex 63.58246426344324 -36.32297605396559 15.0
  endloop
endfacet
facet normal 8.007271955386268e-18 1.2196734856835482e-17 1.0
  outer loop
    vertex 63.58246426344324 -36.32297605396559 15.0
    vertex 63.63357552400964 -42.43474748631182 14.999999999999998
    vertex 63.63357552400964 -35.934747486311814 15.0
  endloop
endfacet
facet normal 8.007271955386268e-18 1.2196734856835482e-17 1.0
  outer loop
    vertex 63.63357552400964 -35.934747486311814 15.0
    vertex 63.63357552400964 -42.43474748631182 14.999999999999998
    vertex 64.92767074952225 -42.26437661775716 14.999999999999998
  endloop
endfacet
facet normal 8.007271955386268e-18 1.2196734856835482e-17 1.0
  outer loop
    vertex 63.63357552400964 -35.934747486311814 15.0
    vertex 64.92767074952225 -42.26437661775716 14.999999999999998
    vertex 63.63357552400964 11.065252513688172 14.999999999999998
  endloop
endfacet
facet normal 8.007271955386268e-18 1.2196734856835482e-17 1.0
  outer loop
    vertex 63.63357552400964 11.065252513688172 14.999999999999998
    vertex 64.92767074952225 -42.26437661775716 14.999999999999998
    vertex 63.63357552400964 17.565252513688172 14.999999999999995
  endloop
endfacet
facet normal 8.007271955386268e-18 1.2196734856835482e-17 1.0
  outer loop
    vertex 63.63357552400964 17.565252513688172 14.999999999999995
    vertex 64.92767074952225 -42.26437661775716 14.999999999999998
    vertex 64.92767074952225 17.39488164513352 14.999999999999995
  endloop
endfacet
facet normal 8.007271955386268e-18 1.2196734856835482e-17 1.0
  outer loop
    vertex 64.92767074952225 17.39488164513352 14.999999999999995
    vertex 64.92767074952225 -42.26437661775716 14.999999999999998
    vertex 66.13357552400963 -41.76487450523401 14.999999999999998
  endloop
endfacet
facet normal 8.007271955386268e-18 1.2196734856835482e-17 1.0
  outer loop
    vertex 64.92767074952225 17.39488164513352 14.999999999999995
    vertex 66.13357552400963 -41.76487450523401 14.999999999999998
    vertex 66.13357552400963 16.89537953261036 14.999999999999995
  endloop
endfacet
facet normal 8.007271955386268e-18 1.2196734856835482e-17 1.0
  outer loop
    vertex 66.13357552400963 16.89537953261036 14.999999999999995
    vertex 66.13357552400963 -41.76487450523401 14.999999999999998
    vertex 67.16910942994238 -40.97028139224456 14.999999999999998
  endloop
endfacet
facet normal 8.007271955386268e-18 1.2196734856835482e-17 1.0
  outer loop
    vertex 66.13357552400963 16.89537953261036 14.999999999999995
    vertex 67.16910942994238 -40.97028139224456 14.999999999999998
    vertex 67.16910942994238 16.100786419620917 14.999999999999995
  endloop
endfacet
facet normal 8.007271955386268e-18 1.2196734856835482e-17 1.0
  outer loop
    vertex 67.16910942994238 16.100786419620917 14.999999999999995
    vertex 67.16910942994238 -40.97028139224456 14.999999999999998
    vertex 67.96370254293183 -39.93474748631182 14.999999999999998
  endloop
endfacet
facet normal 8.007271955386268e-18 1.2196734856835482e-17 1.0
  outer loop
    vertex 67.16910942994238 16.100786419620917 14.999999999999995
    vertex 67.96370254293183 -39.93474748631182 14.999999999999998
    vertex 67.96370254293183 15.065252513688165 14.999999999999995
  endloop
endfacet
facet normal 8.007271955386268e-18 1.2196734856835482e-17 1.0
  outer loop
    vertex 67.96370254293183 15.065252513688165 14.999999999999995
    vertex 67.96370254293183 -39.93474748631182 14.999999999999998
    vertex 68.46320465545497 -38.72884271182443 14.999999999999998
  endloop
endfacet
facet normal 8.007271955386268e-18 1.2196734856835482e-17 1.0
  outer loop
    vertex 67.96370254293183 15.065252513688165 14.999999999999995
    vertex 68.46320465545497 -38.72884271182443 14.999999999999998
    vertex 68.46320465545497 13.859347739200773 14.999999999999995
  endloop
endfacet
facet normal 8.007271955386268e-18 1.2196734856835482e-17 1.0
  outer loop
    vertex 68.46320465545497 13.859347739200773 14.999999999999995
    vertex 68.46320465545497 -38.72884271182443 14.999999999999998
    vertex 68.63357552400964 -37.43474748631182 14.999999999999998
  endloop
endfacet
facet normal 8.007271955386268e-18 1.2196734856835482e-17 1.0
  outer loop
    vertex 68.46320465545497 13.859347739200773 14.999999999999995
    vertex 68.63357552400964 -37.43474748631182 14.999999999999998
    vertex 68.63357552400964 12.56525251368817 14.999999999999995
  endloop
endfacet
facet normal 8.007271955386268e-18 1.2196734856835482e-17 1.0
  outer loop
    vertex -21.196053607435694 -38.72884271182442 14.999999999999998
    vertex -21.36642447599035 12.56525251368817 14.999999999999998
    vertex -21.36642447599035 -37.43474748631182 14.999999999999998
  endloop
endfacet
facet normal 8.007271955386268e-18 1.2196734856835482e-17 1.0
  outer loop
    vertex -21.36642447599035 12.56525251368817 14.999999999999998
    vertex -21.196053607435694 -38.72884271182442 14.999999999999998
    vertex -21.196053607435694 13.859347739200773 14.999999999999998
  endloop
endfacet
facet normal 8.007271955386268e-18 1.2196734856835482e-17 1.0
  outer loop
    vertex -21.196053607435694 13.859347739200773 14.999999999999998
    vertex -21.196053607435694 -38.72884271182442 14.999999999999998
    vertex -20.696551494912544 -39.93474748631182 14.999999999999998
  endloop
endfacet
facet normal 8.007271955386268e-18 1.2196734856835482e-17 1.0
  outer loop
    vertex -21.196053607435694 13.859347739200773 14.999999999999998
    vertex -20.696551494912544 -39.93474748631182 14.999999999999998
    vertex -20.696551494912544 15.065252513688165 14.999999999999998
  endloop
endfacet
facet normal 8.007271955386268e-18 1.2196734856835482e-17 1.0
  outer loop
    vertex -20.696551494912544 15.065252513688165 14.999999999999998
    vertex -20.696551494912544 -39.93474748631182 14.999999999999998
    vertex -19.901958381923087 -40.97028139224456 14.999999999999998
  endloop
endfacet
facet normal 8.007271955386268e-18 1.2196734856835482e-17 1.0
  outer loop
    vertex -20.696551494912544 15.065252513688165 14.999999999999998
    vertex -19.901958381923087 -40.97028139224456 14.999999999999998
    vertex -19.90195838192309 16.100786419620906 14.999999999999998
  endloop
endfacet
facet normal 8.007271955386268e-18 1.2196734856835482e-17 1.0
  outer loop
    vertex -19.90195838192309 16.100786419620906 14.999999999999998
    vertex -19.901958381923087 -40.97028139224456 14.999999999999998
    vertex -18.86642447599035 16.89537953261036 14.999999999999998
  endloop
endfacet
facet normal 8.007271955386268e-18 1.2196734856835482e-17 1.0
  outer loop
    vertex -18.86642447599035 16.89537953261036 14.999999999999998
    vertex -19.901958381923087 -40.97028139224456 14.999999999999998
    vertex -18.86642447599035 -41.76487450523401 14.999999999999998
  endloop
endfacet
facet normal 8.007271955386268e-18 1.2196734856835482e-17 1.0
  outer loop
    vertex -18.86642447599035 16.89537953261036 14.999999999999998
    vertex -18.86642447599035 -41.76487450523401 14.999999999999998
    vertex -17.660519701502952 -42.26437661775716 14.999999999999998
  endloop
endfacet
facet normal 8.007271955386268e-18 1.2196734856835482e-17 1.0
  outer loop
    vertex -18.86642447599035 16.89537953261036 14.999999999999998
    vertex -17.660519701502952 -42.26437661775716 14.999999999999998
    vertex -17.660519701502952 17.39488164513352 14.999999999999998
  endloop
endfacet
facet normal 8.007271955386268e-18 1.2196734856835482e-17 1.0
  outer loop
    vertex -17.660519701502952 17.39488164513352 14.999999999999998
    vertex -17.660519701502952 -42.26437661775716 14.999999999999998
    vertex -16.36642447599035 17.565252513688172 14.999999999999998
  endloop
endfacet
facet normal 8.007271955386268e-18 1.2196734856835482e-17 1.0
  outer loop
    vertex -16.36642447599035 17.565252513688172 14.999999999999998
    vertex -17.660519701502952 -42.26437661775716 14.999999999999998
    vertex -16.366424475990353 11.065252513688172 14.999999999999998
  endloop
endfacet
facet normal 8.007271955386268e-18 1.2196734856835482e-17 1.0
  outer loop
    vertex -16.366424475990353 11.065252513688172 14.999999999999998
    vertex -17.660519701502952 -42.26437661775716 14.999999999999998
    vertex -16.366424475990353 -35.93474748631181 14.999999999999998
  endloop
endfacet
facet normal 8.007271955386268e-18 1.2196734856835482e-17 1.0
  outer loop
    vertex -16.36642447599035 17.565252513688172 14.999999999999998
    vertex -16.366424475990353 11.065252513688172 14.999999999999998
    vertex -16.315313215423956 11.453481081341952 14.999999999999998
  endloop
endfacet
facet normal 8.007271955386268e-18 1.2196734856835482e-17 1.0
  outer loop
    vertex -16.36642447599035 17.565252513688172 14.999999999999998
    vertex -16.315313215423956 11.453481081341952 14.999999999999998
    vertex -16.165462581667008 11.815252513688172 14.999999999999998
  endloop
endfacet
facet normal 8.007271955386268e-18 1.2196734856835482e-17 1.0
  outer loop
    vertex -16.36642447599035 17.565252513688172 14.999999999999998
    vertex -16.165462581667008 11.815252513688172 14.999999999999998
    vertex -15.92708464777017 12.125912685467997 14.999999999999998
  endloop
endfacet
facet normal 8.007271955386268e-18 1.2196734856835482e-17 1.0
  outer loop
    vertex -16.36642447599035 17.565252513688172 14.999999999999998
    vertex -15.92708464777017 12.125912685467997 14.999999999999998
    vertex -15.616424475990344 12.364290619364834 14.999999999999998
  endloop
endfacet
facet normal 8.007271955386268e-18 1.2196734856835482e-17 1.0
  outer loop
    vertex -16.36642447599035 17.565252513688172 14.999999999999998
    vertex -15.616424475990344 12.364290619364834 14.999999999999998
    vertex -15.254653043644124 12.514141253121775 14.999999999999998
  endloop
endfacet
facet normal 8.007271955386268e-18 1.2196734856835482e-17 1.0
  outer loop
    vertex -16.36642447599035 17.565252513688172 14.999999999999998
    vertex -15.254653043644124 12.514141253121775 14.999999999999998
    vertex -14.86642447599034 12.56525251368817 14.999999999999998
  endloop
endfacet
facet normal 8.007271955386268e-18 1.2196734856835482e-17 1.0
  outer loop
    vertex -16.36642447599035 17.565252513688172 14.999999999999998
    vertex -14.86642447599034 12.56525251368817 14.999999999999998
    vertex 63.63357552400964 17.565252513688172 14.999999999999995
  endloop
endfacet
facet normal 8.007271955386268e-18 1.2196734856835482e-17 1.0
  outer loop
    vertex 63.63357552400964 17.565252513688172 14.999999999999995
    vertex -14.86642447599034 12.56525251368817 14.999999999999998
    vertex 62.13357552400964 12.56525251368817 14.999999999999998
  endloop
endfacet
facet normal 8.007271955386268e-18 1.2196734856835482e-17 1.0
  outer loop
    vertex 63.63357552400964 17.565252513688172 14.999999999999995
    vertex 62.13357552400964 12.56525251368817 14.999999999999998
    vertex 62.52180409166342 12.514141253121775 14.999999999999998
  endloop
endfacet
facet normal 8.007271955386268e-18 1.2196734856835482e-17 1.0
  outer loop
    vertex 63.63357552400964 17.565252513688172 14.999999999999995
    vertex 62.52180409166342 12.514141253121775 14.999999999999998
    vertex 62.88357552400964 12.364290619364823 14.999999999999998
  endloop
endfacet
facet normal 8.007271955386268e-18 1.2196734856835482e-17 1.0
  outer loop
    vertex 63.63357552400964 17.565252513688172 14.999999999999995
    vertex 62.88357552400964 12.364290619364823 14.999999999999998
    vertex 63.194235695789466 12.125912685467986 14.999999999999998
  endloop
endfacet
facet normal 8.007271955386268e-18 1.2196734856835482e-17 1.0
  outer loop
    vertex 63.63357552400964 17.565252513688172 14.999999999999995
    vertex 63.194235695789466 12.125912685467986 14.999999999999998
    vertex 63.4326136296863 11.815252513688172 14.999999999999998
  endloop
endfacet
facet normal 8.007271955386268e-18 1.2196734856835482e-17 1.0
  outer loop
    vertex 63.63357552400964 17.565252513688172 14.999999999999995
    vertex 63.4326136296863 11.815252513688172 14.999999999999998
    vertex 63.58246426344324 11.453481081341952 14.999999999999998
  endloop
endfacet
facet normal 8.007271955386268e-18 1.2196734856835482e-17 1.0
  outer loop
    vertex 63.63357552400964 17.565252513688172 14.999999999999995
    vertex 63.58246426344324 11.453481081341952 14.999999999999998
    vertex 63.63357552400964 11.065252513688172 14.999999999999998
  endloop
endfacet
facet normal -1.0 -4.958182826457841e-16 0.0
  outer loop
    vertex 52.91123593853383 6.769805136256401 17.999999999999996
    vertex 52.91123593853384 -27.2301948637436 6.999999999999998
    vertex 52.91123593853384 -27.2301948637436 17.999999999999996
  endloop
endfacet
facet normal -1.0 -4.958182826457841e-16 0.0
  outer loop
    vertex 52.91123593853384 -27.2301948637436 6.999999999999998
    vertex 52.91123593853383 6.769805136256401 17.999999999999996
    vertex 52.91123593853383 6.769805136256401 6.999999999999998
  endloop
endfacet
facet normal 2.8199664825478977e-16 -1.0 0.0
  outer loop
    vertex 52.91123593853383 6.769805136256401 17.999999999999996
    vertex 32.911235938533835 6.769805136256395 6.999999999999998
    vertex 52.91123593853383 6.769805136256401 6.999999999999998
  endloop
endfacet
facet normal 2.8199664825478977e-16 -1.0 0.0
  outer loop
    vertex 32.911235938533835 6.769805136256395 6.999999999999998
    vertex 52.91123593853383 6.769805136256401 17.999999999999996
    vertex 32.911235938533835 6.769805136256395 17.999999999999996
  endloop
endfacet
facet normal 1.0 3.5129820280891116e-16 -1.46046115017329e-32
  outer loop
    vertex 32.911235938533835 6.769805136256395 6.999999999999998
    vertex 32.91123593853384 -27.230194863743623 17.999999999999996
    vertex 32.91123593853384 -27.230194863743623 6.999999999999998
  endloop
endfacet
facet normal 1.0 3.5129820280891116e-16 -1.46046115017329e-32
  outer loop
    vertex 32.91123593853384 -27.230194863743623 17.999999999999996
    vertex 32.911235938533835 6.769805136256395 6.999999999999998
    vertex 32.911235938533835 6.769805136256395 17.999999999999996
  endloop
endfacet
facet normal -1.0 0.0 0.0
  outer loop
    vertex -21.36642447599035 12.56525251368817 14.999999999999998
    vertex -21.36642447599035 -37.43474748631182 0.0
    vertex -21.36642447599035 -37.43474748631182 14.999999999999998
  endloop
endfacet
facet normal -1.0 0.0 0.0
  outer loop
    vertex -21.36642447599035 -37.43474748631182 0.0
    vertex -21.36642447599035 12.56525251368817 14.999999999999998
    vertex -21.36642447599035 12.56525251368817 0.0
  endloop
endfacet
facet normal 1.0 0.0 0.0
  outer loop
    vertex 68.63357552400964 12.56525251368817 0.0
    vertex 68.63357552400964 -37.43474748631182 14.999999999999998
    vertex 68.63357552400964 -37.43474748631182 0.0
  endloop
endfacet
facet normal 1.0 0.0 0.0
  outer loop
    vertex 68.63357552400964 -37.43474748631182 14.999999999999998
    vertex 68.63357552400964 12.56525251368817 0.0
    vertex 68.63357552400964 12.56525251368817 14.999999999999995
  endloop
endfacet
facet normal 0.0 0.0 1.0
  outer loop
    vertex 32.91123593853384 -27.230194863743623 6.999999999999998
    vertex 52.91123593853383 6.769805136256401 6.999999999999998
    vertex 32.911235938533835 6.769805136256395 6.999999999999998
  endloop
endfacet
facet normal 0.0 0.0 1.0
  outer loop
    vertex 52.91123593853383 6.769805136256401 6.999999999999998
    vertex 32.91123593853384 -27.230194863743623 6.999999999999998
    vertex 52.91123593853384 -27.2301948637436 6.999999999999998
  endloop
endfacet
facet normal 0.0 0.0 1.0
  outer loop
    vertex -0.33537534199925095 -6.230194863743609 6.999999999999998
    vertex -0.33537534199924535 3.769805136256389 6.999999999999998
    vertex -3.085375341999249 -1.2301948637436129 6.999999999999998
  endloop
endfacet
facet normal 0.0 0.0 1.0
  outer loop
    vertex -0.33537534199924535 3.769805136256389 6.999999999999998
    vertex -0.33537534199925095 -6.230194863743609 6.999999999999998
    vertex 6.914624658000736 -6.230194863743615 6.999999999999998
  endloop
endfacet
facet normal 0.0 0.0 1.0
  outer loop
    vertex -0.33537534199924535 3.769805136256389 6.999999999999998
    vertex 6.914624658000736 -6.230194863743615 6.999999999999998
    vertex 11.914624658000754 3.7698051362563834 6.999999999999998
  endloop
endfacet
facet normal 0.0 0.0 1.0
  outer loop
    vertex 11.914624658000754 3.7698051362563834 6.999999999999998
    vertex 6.914624658000736 -6.230194863743615 6.999999999999998
    vertex 6.914624658000747 -27.230194863743616 6.999999999999998
  endloop
endfacet
facet normal 0.0 0.0 1.0
  outer loop
    vertex 11.914624658000754 3.7698051362563834 6.999999999999998
    vertex 6.914624658000747 -27.230194863743616 6.999999999999998
    vertex 21.91462465800073 -27.230194863743623 6.999999999999998
  endloop
endfacet
facet normal 0.0 0.0 1.0
  outer loop
    vertex 11.914624658000754 3.7698051362563834 6.999999999999998
    vertex 21.91462465800073 -27.230194863743623 6.999999999999998
    vertex 21.914624658000736 -6.230194863743621 6.999999999999998
  endloop
endfacet
facet normal 0.0 1.0 0.0
  outer loop
    vertex -16.36642447599035 17.565252513688172 14.999999999999998
    vertex 63.63357552400964 17.565252513688172 0.0
    vertex -16.36642447599035 17.565252513688172 0.0
  endloop
endfacet
facet normal 0.0 1.0 0.0
  outer loop
    vertex 63.63357552400964 17.565252513688172 0.0
    vertex -16.36642447599035 17.565252513688172 14.999999999999998
    vertex 63.63357552400964 17.565252513688172 14.999999999999995
  endloop
endfacet
facet normal -7.049916206369744e-17 -1.0 0.0
  outer loop
    vertex 63.63357552400964 -42.43474748631182 14.999999999999998
    vertex -16.36642447599035 -42.434747486311814 0.0
    vertex 63.63357552400964 -42.43474748631182 0.0
  endloop
endfacet
facet normal -7.049916206369744e-17 -1.0 0.0
  outer loop
    vertex -16.36642447599035 -42.434747486311814 0.0
    vertex 63.63357552400964 -42.43474748631182 14.999999999999998
    vertex -16.36642447599035 -42.434747486311814 14.999999999999998
  endloop
endfacet
facet normal 0.0 0.0 1.0
  outer loop
    vertex -16.315313215423956 -36.32297605396559 17.999999999999996
    vertex -16.366424475990353 11.065252513688172 17.999999999999996
    vertex -16.366424475990353 -35.93474748631181 17.999999999999996
  endloop
endfacet
facet normal 0.0 0.0 1.0
  outer loop
    vertex -16.366424475990353 11.065252513688172 17.999999999999996
    vertex -16.315313215423956 -36.32297605396559 17.999999999999996
    vertex -16.315313215423956 11.453481081341952 17.999999999999996
  endloop
endfacet
facet normal 0.0 0.0 1.0
  outer loop
    vertex -16.315313215423956 11.453481081341952 17.999999999999996
    vertex -16.315313215423956 -36.32297605396559 17.999999999999996
    vertex -16.165462581667015 -36.68474748631181 17.999999999999996
  endloop
endfacet
facet normal 0.0 0.0 1.0
  outer loop
    vertex -16.315313215423956 11.453481081341952 17.999999999999996
    vertex -16.165462581667015 -36.68474748631181 17.999999999999996
    vertex -16.165462581667008 11.815252513688172 17.999999999999996
  endloop
endfacet
facet normal 0.0 0.0 1.0
  outer loop
    vertex -16.165462581667008 11.815252513688172 17.999999999999996
    vertex -16.165462581667015 -36.68474748631181 17.999999999999996
    vertex -15.927084647770176 -36.99540765809163 17.999999999999996
  endloop
endfacet
facet normal 0.0 0.0 1.0
  outer loop
    vertex -16.165462581667008 11.815252513688172 17.999999999999996
    vertex -15.927084647770176 -36.99540765809163 17.999999999999996
    vertex -15.92708464777017 12.125912685467997 17.999999999999996
  endloop
endfacet
facet normal 0.0 0.0 1.0
  outer loop
    vertex -15.92708464777017 12.125912685467997 17.999999999999996
    vertex -15.927084647770176 -36.99540765809163 17.999999999999996
    vertex -15.616424475990355 -37.23378559198847 17.999999999999996
  endloop
endfacet
facet normal 0.0 0.0 1.0
  outer loop
    vertex -15.92708464777017 12.125912685467997 17.999999999999996
    vertex -15.616424475990355 -37.23378559198847 17.999999999999996
    vertex -15.616424475990344 12.364290619364834 17.999999999999996
  endloop
endfacet
facet normal 0.0 0.0 1.0
  outer loop
    vertex -15.616424475990344 12.364290619364834 17.999999999999996
    vertex -15.616424475990355 -37.23378559198847 17.999999999999996
    vertex -15.254653043644138 -37.38363622574542 17.999999999999996
  endloop
endfacet
facet normal 0.0 0.0 1.0
  outer loop
    vertex -15.616424475990344 12.364290619364834 17.999999999999996
    vertex -15.254653043644138 -37.38363622574542 17.999999999999996
    vertex -15.254653043644124 12.514141253121775 17.999999999999996
  endloop
endfacet
facet normal 0.0 0.0 1.0
  outer loop
    vertex -15.254653043644124 12.514141253121775 17.999999999999996
    vertex -15.254653043644138 -37.38363622574542 17.999999999999996
    vertex -14.866424475990357 -37.434747486311814 17.999999999999996
  endloop
endfacet
facet normal 0.0 0.0 1.0
  outer loop
    vertex -15.254653043644124 12.514141253121775 17.999999999999996
    vertex -14.866424475990357 -37.434747486311814 17.999999999999996
    vertex -14.86642447599034 12.56525251368817 17.999999999999996
  endloop
endfacet
facet normal 0.0 0.0 1.0
  outer loop
    vertex -14.86642447599034 12.56525251368817 17.999999999999996
    vertex -14.866424475990357 -37.434747486311814 17.999999999999996
    vertex 6.914624658000747 -27.230194863743616 17.999999999999996
  endloop
endfacet
facet normal 0.0 0.0 1.0
  outer loop
    vertex 6.914624658000747 -27.230194863743616 17.999999999999996
    vertex -14.866424475990357 -37.434747486311814 17.999999999999996
    vertex 62.13357552400964 -37.434747486311814 17.999999999999996
  endloop
endfacet
facet normal 0.0 0.0 1.0
  outer loop
    vertex -14.86642447599034 12.56525251368817 17.999999999999996
    vertex 6.914624658000747 -27.230194863743616 17.999999999999996
    vertex -3.085375341999249 -1.2301948637436129 17.999999999999996
  endloop
endfacet
facet normal 0.0 0.0 1.0
  outer loop
    vertex -3.085375341999249 -1.2301948637436129 17.999999999999996
    vertex 6.914624658000747 -27.230194863743616 17.999999999999996
    vertex -0.33537534199925095 -6.230194863743609 17.999999999999996
  endloop
endfacet
facet normal 0.0 0.0 1.0
  outer loop
    vertex -0.33537534199925095 -6.230194863743609 17.999999999999996
    vertex 6.914624658000747 -27.230194863743616 17.999999999999996
    vertex 6.914624658000736 -6.230194863743615 17.999999999999996
  endloop
endfacet
facet normal 0.0 0.0 1.0
  outer loop
    vertex 6.914624658000747 -27.230194863743616 17.999999999999996
    vertex 62.13357552400964 -37.434747486311814 17.999999999999996
    vertex 21.91462465800073 -27.230194863743623 17.999999999999996
  endloop
endfacet
facet normal 0.0 0.0 1.0
  outer loop
    vertex 21.91462465800073 -27.230194863743623 17.999999999999996
    vertex 62.13357552400964 -37.434747486311814 17.999999999999996
    vertex 32.91123593853384 -27.230194863743623 17.999999999999996
  endloop
endfacet
facet normal 0.0 0.0 1.0
  outer loop
    vertex 21.91462465800073 -27.230194863743623 17.999999999999996
    vertex 32.91123593853384 -27.230194863743623 17.999999999999996
    vertex 21.914624658000736 -6.230194863743621 17.999999999999996
  endloop
endfacet
facet normal 0.0 0.0 1.0
  outer loop
    vertex 21.914624658000736 -6.230194863743621 17.999999999999996
    vertex 32.91123593853384 -27.230194863743623 17.999999999999996
    vertex 32.911235938533835 6.769805136256395 17.999999999999996
  endloop
endfacet
facet normal 0.0 0.0 1.0
  outer loop
    vertex 32.91123593853384 -27.230194863743623 17.999999999999996
    vertex 62.13357552400964 -37.434747486311814 17.999999999999996
    vertex 52.91123593853384 -27.2301948637436 17.999999999999996
  endloop
endfacet
facet normal 0.0 0.0 1.0
  outer loop
    vertex -14.86642447599034 12.56525251368817 17.999999999999996
    vertex -0.33537534199924535 3.769805136256389 17.999999999999996
    vertex 62.13357552400964 12.56525251368817 17.999999999999996
  endloop
endfacet
facet normal 0.0 0.0 1.0
  outer loop
    vertex -0.33537534199924535 3.769805136256389 17.999999999999996
    vertex -14.86642447599034 12.56525251368817 17.999999999999996
    vertex -3.085375341999249 -1.2301948637436129 17.999999999999996
  endloop
endfacet
facet normal 0.0 0.0 1.0
  outer loop
    vertex 62.13357552400964 12.56525251368817 17.999999999999996
    vertex -0.33537534199924535 3.769805136256389 17.999999999999996
    vertex 11.914624658000754 3.7698051362563834 17.999999999999996
  endloop
endfacet
facet normal 0.0 0.0 1.0
  outer loop
    vertex 62.13357552400964 12.56525251368817 17.999999999999996
    vertex 11.914624658000754 3.7698051362563834 17.999999999999996
    vertex 32.911235938533835 6.769805136256395 17.999999999999996
  endloop
endfacet
facet normal 0.0 0.0 1.0
  outer loop
    vertex 32.911235938533835 6.769805136256395 17.999999999999996
    vertex 11.914624658000754 3.7698051362563834 17.999999999999996
    vertex 21.914624658000736 -6.230194863743621 17.999999999999996
  endloop
endfacet
facet normal 0.0 0.0 1.0
  outer loop
    vertex 62.13357552400964 12.56525251368817 17.999999999999996
    vertex 32.911235938533835 6.769805136256395 17.999999999999996
    vertex 52.91123593853383 6.769805136256401 17.999999999999996
  endloop
endfacet
facet normal 0.0 0.0 1.0
  outer loop
    vertex 62.13357552400964 12.56525251368817 17.999999999999996
    vertex 52.91123593853383 6.769805136256401 17.999999999999996
    vertex 52.91123593853384 -27.2301948637436 17.999999999999996
  endloop
endfacet
facet normal 0.0 0.0 1.0
  outer loop
    vertex 62.13357552400964 12.56525251368817 17.999999999999996
    vertex 52.91123593853384 -27.2301948637436 17.999999999999996
    vertex 62.13357552400964 -37.434747486311814 17.999999999999996
  endloop
endfacet
facet normal 0.0 0.0 1.0
  outer loop
    vertex 62.13357552400964 12.56525251368817 17.999999999999996
    vertex 62.13357552400964 -37.434747486311814 17.999999999999996
    vertex 62.52180409166342 -37.38363622574542 17.999999999999996
  endloop
endfacet
facet normal 0.0 0.0 1.0
  outer loop
    vertex 62.13357552400964 12.56525251368817 17.999999999999996
    vertex 62.52180409166342 -37.38363622574542 17.999999999999996
    vertex 62.52180409166342 12.514141253121775 17.999999999999996
  endloop
endfacet
facet normal 0.0 0.0 1.0
  outer loop
    vertex 62.52180409166342 12.514141253121775 17.999999999999996
    vertex 62.52180409166342 -37.38363622574542 17.999999999999996
    vertex 62.88357552400964 -37.23378559198847 17.999999999999996
  endloop
endfacet
facet normal 0.0 0.0 1.0
  outer loop
    vertex 62.52180409166342 12.514141253121775 17.999999999999996
    vertex 62.88357552400964 -37.23378559198847 17.999999999999996
    vertex 62.88357552400964 12.364290619364823 17.999999999999996
  endloop
endfacet
facet normal 0.0 0.0 1.0
  outer loop
    vertex 62.88357552400964 12.364290619364823 17.999999999999996
    vertex 62.88357552400964 -37.23378559198847 17.999999999999996
    vertex 63.194235695789466 -36.99540765809163 17.999999999999996
  endloop
endfacet
facet normal 0.0 0.0 1.0
  outer loop
    vertex 62.88357552400964 12.364290619364823 17.999999999999996
    vertex 63.194235695789466 -36.99540765809163 17.999999999999996
    vertex 63.194235695789466 12.125912685467986 17.999999999999996
  endloop
endfacet
facet normal 0.0 0.0 1.0
  outer loop
    vertex 63.194235695789466 12.125912685467986 17.999999999999996
    vertex 63.194235695789466 -36.99540765809163 17.999999999999996
    vertex 63.432613629686294 -36.684747486311814 17.999999999999996
  endloop
endfacet
facet normal 0.0 0.0 1.0
  outer loop
    vertex 63.194235695789466 12.125912685467986 17.999999999999996
    vertex 63.432613629686294 -36.684747486311814 17.999999999999996
    vertex 63.4326136296863 11.815252513688172 17.999999999999996
  endloop
endfacet
facet normal 0.0 0.0 1.0
  outer loop
    vertex 63.4326136296863 11.815252513688172 17.999999999999996
    vertex 63.432613629686294 -36.684747486311814 17.999999999999996
    vertex 63.58246426344324 -36.32297605396559 17.999999999999996
  endloop
endfacet
facet normal 0.0 0.0 1.0
  outer loop
    vertex 63.4326136296863 11.815252513688172 17.999999999999996
    vertex 63.58246426344324 -36.32297605396559 17.999999999999996
    vertex 63.58246426344324 11.453481081341952 17.999999999999996
  endloop
endfacet
facet normal 0.0 0.0 1.0
  outer loop
    vertex 63.58246426344324 11.453481081341952 17.999999999999996
    vertex 63.58246426344324 -36.32297605396559 17.999999999999996
    vertex 63.63357552400964 -35.934747486311814 17.999999999999996
  endloop
endfacet
facet normal 0.0 0.0 1.0
  outer loop
    vertex 63.58246426344324 11.453481081341952 17.999999999999996
    vertex 63.63357552400964 -35.934747486311814 17.999999999999996
    vertex 63.63357552400964 11.065252513688172 17.999999999999996
  endloop
endfacet
facet normal 0.0 -1.0 0.0
  outer loop
    vertex 62.13357552400964 -37.434747486311814 15.0
    vertex -14.866424475990357 -37.434747486311814 17.999999999999996
    vertex -14.866424475990357 -37.434747486311814 14.999999999999998
  endloop
endfacet
facet normal 0.0 -1.0 0.0
  outer loop
    vertex -14.866424475990357 -37.434747486311814 17.999999999999996
    vertex 62.13357552400964 -37.434747486311814 15.0
    vertex 62.13357552400964 -37.434747486311814 17.999999999999996
  endloop
endfacet
facet normal -1.0 0.0 0.0
  outer loop
    vertex -16.366424475990353 11.065252513688172 17.999999999999996
    vertex -16.366424475990353 -35.93474748631181 14.999999999999998
    vertex -16.366424475990353 -35.93474748631181 17.999999999999996
  endloop
endfacet
facet normal -1.0 0.0 0.0
  outer loop
    vertex -16.366424475990353 -35.93474748631181 14.999999999999998
    vertex -16.366424475990353 11.065252513688172 17.999999999999996
    vertex -16.366424475990353 11.065252513688172 14.999999999999998
  endloop
endfacet
facet normal 1.0 0.0 0.0
  outer loop
    vertex 63.63357552400964 11.065252513688172 14.999999999999998
    vertex 63.63357552400964 -35.934747486311814 17.999999999999996
    vertex 63.63357552400964 -35.934747486311814 15.0
  endloop
endfacet
facet normal 1.0 0.0 0.0
  outer loop
    vertex 63.63357552400964 -35.934747486311814 17.999999999999996
    vertex 63.63357552400964 11.065252513688172 14.999999999999998
    vertex 63.63357552400964 11.065252513688172 17.999999999999996
  endloop
endfacet
facet normal 3.6622941331790884e-17 1.0 0.0
  outer loop
    vertex -14.86642447599034 12.56525251368817 17.999999999999996
    vertex 62.13357552400964 12.56525251368817 14.999999999999998
    vertex -14.86642447599034 12.56525251368817 14.999999999999998
  endloop
endfacet
facet normal 3.6622941331790884e-17 1.0 0.0
  outer loop
    vertex 62.13357552400964 12.56525251368817 14.999999999999998
    vertex -14.86642447599034 12.56525251368817 17.999999999999996
    vertex 62.13357552400964 12.56525251368817 17.999999999999996
  endloop
endfacet
facet normal -0.13052619222004366 0.9914448613738116 0.0
  outer loop
    vertex -15.254653043644124 12.514141253121775 17.999999999999996
    vertex -14.86642447599034 12.56525251368817 14.999999999999998
    vertex -15.254653043644124 12.514141253121775 14.999999999999998
  endloop
endfacet
facet normal -0.13052619222004366 0.9914448613738116 0.0
  outer loop
    vertex -14.86642447599034 12.56525251368817 14.999999999999998
    vertex -15.254653043644124 12.514141253121775 17.999999999999996
    vertex -14.86642447599034 12.56525251368817 17.999999999999996
  endloop
endfacet
facet normal -0.9914448613738105 0.1305261922200512 0.0
  outer loop
    vertex -16.315313215423956 11.453481081341952 17.999999999999996
    vertex -16.366424475990353 11.065252513688172 14.999999999999998
    vertex -16.366424475990353 11.065252513688172 17.999999999999996
  endloop
endfacet
facet normal -0.9914448613738105 0.1305261922200512 0.0
  outer loop
    vertex -16.366424475990353 11.065252513688172 14.999999999999998
    vertex -16.315313215423956 11.453481081341952 17.999999999999996
    vertex -16.315313215423956 11.453481081341952 14.999999999999998
  endloop
endfacet
facet normal -0.9238795325112855 0.38268343236509317 0.0
  outer loop
    vertex -16.165462581667008 11.815252513688172 17.999999999999996
    vertex -16.315313215423956 11.453481081341952 14.999999999999998
    vertex -16.315313215423956 11.453481081341952 17.999999999999996
  endloop
endfacet
facet normal -0.9238795325112855 0.38268343236509317 0.0
  outer loop
    vertex -16.315313215423956 11.453481081341952 14.999999999999998
    vertex -16.165462581667008 11.815252513688172 17.999999999999996
    vertex -16.165462581667008 11.815252513688172 14.999999999999998
  endloop
endfacet
facet normal -0.7933533402912353 0.6087614290087208 0.0
  outer loop
    vertex -15.92708464777017 12.125912685467997 17.999999999999996
    vertex -16.165462581667008 11.815252513688172 14.999999999999998
    vertex -16.165462581667008 11.815252513688172 17.999999999999996
  endloop
endfacet
facet normal -0.7933533402912353 0.6087614290087208 0.0
  outer loop
    vertex -16.165462581667008 11.815252513688172 14.999999999999998
    vertex -15.92708464777017 12.125912685467997 17.999999999999996
    vertex -15.92708464777017 12.125912685467997 14.999999999999998
  endloop
endfacet
facet normal -0.608761429008715 0.7933533402912395 0.0
  outer loop
    vertex -15.92708464777017 12.125912685467997 17.999999999999996
    vertex -15.616424475990344 12.364290619364834 14.999999999999998
    vertex -15.92708464777017 12.125912685467997 14.999999999999998
  endloop
endfacet
facet normal -0.608761429008715 0.7933533402912395 0.0
  outer loop
    vertex -15.616424475990344 12.364290619364834 14.999999999999998
    vertex -15.92708464777017 12.125912685467997 17.999999999999996
    vertex -15.616424475990344 12.364290619364834 17.999999999999996
  endloop
endfacet
facet normal -0.38268343236508695 0.923879532511288 0.0
  outer loop
    vertex -15.616424475990344 12.364290619364834 17.999999999999996
    vertex -15.254653043644124 12.514141253121775 14.999999999999998
    vertex -15.616424475990344 12.364290619364834 14.999999999999998
  endloop
endfacet
facet normal -0.38268343236508695 0.923879532511288 0.0
  outer loop
    vertex -15.254653043644124 12.514141253121775 14.999999999999998
    vertex -15.616424475990344 12.364290619364834 17.999999999999996
    vertex -15.254653043644124 12.514141253121775 17.999999999999996
  endloop
endfacet
facet normal -0.1305261922200446 -0.9914448613738114 0.0
  outer loop
    vertex -14.866424475990357 -37.434747486311814 17.999999999999996
    vertex -15.254653043644138 -37.38363622574542 14.999999999999998
    vertex -14.866424475990357 -37.434747486311814 14.999999999999998
  endloop
endfacet
facet normal -0.1305261922200446 -0.9914448613738114 0.0
  outer loop
    vertex -15.254653043644138 -37.38363622574542 14.999999999999998
    vertex -14.866424475990357 -37.434747486311814 17.999999999999996
    vertex -15.254653043644138 -37.38363622574542 17.999999999999996
  endloop
endfacet
facet normal -0.3826834323650957 -0.9238795325112844 -0.0
  outer loop
    vertex -15.254653043644138 -37.38363622574542 17.999999999999996
    vertex -15.616424475990355 -37.23378559198847 14.999999999999998
    vertex -15.254653043644138 -37.38363622574542 14.999999999999998
  endloop
endfacet
facet normal -0.3826834323650957 -0.9238795325112844 -0.0
  outer loop
    vertex -15.616424475990355 -37.23378559198847 14.999999999999998
    vertex -15.254653043644138 -37.38363622574542 17.999999999999996
    vertex -15.616424475990355 -37.23378559198847 17.999999999999996
  endloop
endfacet
facet normal -0.6087614290087243 -0.7933533402912326 -0.0
  outer loop
    vertex -15.616424475990355 -37.23378559198847 17.999999999999996
    vertex -15.927084647770176 -36.99540765809163 14.999999999999998
    vertex -15.616424475990355 -37.23378559198847 14.999999999999998
  endloop
endfacet
facet normal -0.6087614290087243 -0.7933533402912326 -0.0
  outer loop
    vertex -15.927084647770176 -36.99540765809163 14.999999999999998
    vertex -15.616424475990355 -37.23378559198847 17.999999999999996
    vertex -15.927084647770176 -36.99540765809163 17.999999999999996
  endloop
endfacet
facet normal -0.7933533402912378 -0.6087614290087172 -0.0
  outer loop
    vertex -16.165462581667015 -36.68474748631181 17.999999999999996
    vertex -15.927084647770176 -36.99540765809163 14.999999999999998
    vertex -15.927084647770176 -36.99540765809163 17.999999999999996
  endloop
endfacet
facet normal -0.7933533402912378 -0.6087614290087172 -0.0
  outer loop
    vertex -15.927084647770176 -36.99540765809163 14.999999999999998
    vertex -16.165462581667015 -36.68474748631181 17.999999999999996
    vertex -16.165462581667015 -36.68474748631181 14.999999999999998
  endloop
endfacet
facet normal -0.9238795325112904 -0.38268343236508073 -0.0
  outer loop
    vertex -16.315313215423956 -36.32297605396559 17.999999999999996
    vertex -16.165462581667015 -36.68474748631181 14.999999999999998
    vertex -16.165462581667015 -36.68474748631181 17.999999999999996
  endloop
endfacet
facet normal -0.9238795325112904 -0.38268343236508073 -0.0
  outer loop
    vertex -16.165462581667015 -36.68474748631181 14.999999999999998
    vertex -16.315313215423956 -36.32297605396559 17.999999999999996
    vertex -16.315313215423956 -36.32297605396559 14.999999999999998
  endloop
endfacet
facet normal -0.9914448613738103 -0.13052619222005257 0.0
  outer loop
    vertex -16.366424475990353 -35.93474748631181 17.999999999999996
    vertex -16.315313215423956 -36.32297605396559 14.999999999999998
    vertex -16.315313215423956 -36.32297605396559 17.999999999999996
  endloop
endfacet
facet normal -0.9914448613738103 -0.13052619222005257 0.0
  outer loop
    vertex -16.315313215423956 -36.32297605396559 14.999999999999998
    vertex -16.366424475990353 -35.93474748631181 17.999999999999996
    vertex -16.366424475990353 -35.93474748631181 14.999999999999998
  endloop
endfacet
facet normal 0.9914448613738114 -0.13052619222004555 0.0
  outer loop
    vertex 63.63357552400964 -35.934747486311814 15.0
    vertex 63.58246426344324 -36.32297605396559 17.999999999999996
    vertex 63.58246426344324 -36.32297605396559 15.0
  endloop
endfacet
facet normal 0.9914448613738114 -0.13052619222004555 0.0
  outer loop
    vertex 63.58246426344324 -36.32297605396559 17.999999999999996
    vertex 63.63357552400964 -35.934747486311814 15.0
    vertex 63.63357552400964 -35.934747486311814 17.999999999999996
  endloop
endfacet
facet normal 0.9238795325112803 -0.3826834323651054 0.0
  outer loop
    vertex 63.58246426344324 -36.32297605396559 15.0
    vertex 63.432613629686294 -36.684747486311814 17.999999999999996
    vertex 63.432613629686294 -36.684747486311814 15.0
  endloop
endfacet
facet normal 0.9238795325112803 -0.3826834323651054 0.0
  outer loop
    vertex 63.432613629686294 -36.684747486311814 17.999999999999996
    vertex 63.58246426344324 -36.32297605396559 15.0
    vertex 63.58246426344324 -36.32297605396559 17.999999999999996
  endloop
endfacet
facet normal 0.7933533402912465 -0.6087614290087061 0.0
  outer loop
    vertex 63.432613629686294 -36.684747486311814 15.0
    vertex 63.194235695789466 -36.99540765809163 17.999999999999996
    vertex 63.194235695789466 -36.99540765809163 15.0
  endloop
endfacet
facet normal 0.7933533402912465 -0.6087614290087061 0.0
  outer loop
    vertex 63.194235695789466 -36.99540765809163 17.999999999999996
    vertex 63.432613629686294 -36.684747486311814 15.0
    vertex 63.432613629686294 -36.684747486311814 17.999999999999996
  endloop
endfacet
facet normal 0.6087614290087172 -0.7933533402912378 0.0
  outer loop
    vertex 63.194235695789466 -36.99540765809163 17.999999999999996
    vertex 62.88357552400964 -37.23378559198847 15.0
    vertex 63.194235695789466 -36.99540765809163 15.0
  endloop
endfacet
facet normal 0.6087614290087172 -0.7933533402912378 0.0
  outer loop
    vertex 62.88357552400964 -37.23378559198847 15.0
    vertex 63.194235695789466 -36.99540765809163 17.999999999999996
    vertex 62.88357552400964 -37.23378559198847 17.999999999999996
  endloop
endfacet
facet normal 0.38268343236509317 -0.9238795325112855 0.0
  outer loop
    vertex 62.88357552400964 -37.23378559198847 17.999999999999996
    vertex 62.52180409166342 -37.38363622574542 15.0
    vertex 62.88357552400964 -37.23378559198847 15.0
  endloop
endfacet
facet normal 0.38268343236509317 -0.9238795325112855 0.0
  outer loop
    vertex 62.52180409166342 -37.38363622574542 15.0
    vertex 62.88357552400964 -37.23378559198847 17.999999999999996
    vertex 62.52180409166342 -37.38363622574542 17.999999999999996
  endloop
endfacet
facet normal 0.13052619222004555 -0.9914448613738114 0.0
  outer loop
    vertex 62.52180409166342 -37.38363622574542 17.999999999999996
    vertex 62.13357552400964 -37.434747486311814 15.0
    vertex 62.52180409166342 -37.38363622574542 15.0
  endloop
endfacet
facet normal 0.13052619222004555 -0.9914448613738114 0.0
  outer loop
    vertex 62.13357552400964 -37.434747486311814 15.0
    vertex 62.52180409166342 -37.38363622574542 17.999999999999996
    vertex 62.13357552400964 -37.434747486311814 17.999999999999996
  endloop
endfacet
facet normal 0.13052619222005257 0.9914448613738103 0.0
  outer loop
    vertex 62.13357552400964 12.56525251368817 17.999999999999996
    vertex 62.52180409166342 12.514141253121775 14.999999999999998
    vertex 62.13357552400964 12.56525251368817 14.999999999999998
  endloop
endfacet
facet normal 0.13052619222005257 0.9914448613738103 0.0
  outer loop
    vertex 62.52180409166342 12.514141253121775 14.999999999999998
    vertex 62.13357552400964 12.56525251368817 17.999999999999996
    vertex 62.52180409166342 12.514141253121775 17.999999999999996
  endloop
endfacet
facet normal 0.38268343236508695 0.923879532511288 0.0
  outer loop
    vertex 62.52180409166342 12.514141253121775 17.999999999999996
    vertex 62.88357552400964 12.364290619364823 14.999999999999998
    vertex 62.52180409166342 12.514141253121775 14.999999999999998
  endloop
endfacet
facet normal 0.38268343236508695 0.923879532511288 0.0
  outer loop
    vertex 62.88357552400964 12.364290619364823 14.999999999999998
    vertex 62.52180409166342 12.514141253121775 17.999999999999996
    vertex 62.88357552400964 12.364290619364823 17.999999999999996
  endloop
endfacet
facet normal 0.6087614290087172 0.7933533402912378 0.0
  outer loop
    vertex 62.88357552400964 12.364290619364823 17.999999999999996
    vertex 63.194235695789466 12.125912685467986 14.999999999999998
    vertex 62.88357552400964 12.364290619364823 14.999999999999998
  endloop
endfacet
facet normal 0.6087614290087172 0.7933533402912378 0.0
  outer loop
    vertex 63.194235695789466 12.125912685467986 14.999999999999998
    vertex 62.88357552400964 12.364290619364823 17.999999999999996
    vertex 63.194235695789466 12.125912685467986 17.999999999999996
  endloop
endfacet
facet normal 0.7933533402912326 0.6087614290087243 0.0
  outer loop
    vertex 63.194235695789466 12.125912685467986 14.999999999999998
    vertex 63.4326136296863 11.815252513688172 17.999999999999996
    vertex 63.4326136296863 11.815252513688172 14.999999999999998
  endloop
endfacet
facet normal 0.7933533402912326 0.6087614290087243 0.0
  outer loop
    vertex 63.4326136296863 11.815252513688172 17.999999999999996
    vertex 63.194235695789466 12.125912685467986 14.999999999999998
    vertex 63.194235695789466 12.125912685467986 17.999999999999996
  endloop
endfacet
facet normal 0.92387953251129 0.3826834323650821 0.0
  outer loop
    vertex 63.4326136296863 11.815252513688172 14.999999999999998
    vertex 63.58246426344324 11.453481081341952 17.999999999999996
    vertex 63.58246426344324 11.453481081341952 14.999999999999998
  endloop
endfacet
facet normal 0.92387953251129 0.3826834323650821 0.0
  outer loop
    vertex 63.58246426344324 11.453481081341952 17.999999999999996
    vertex 63.4326136296863 11.815252513688172 14.999999999999998
    vertex 63.4326136296863 11.815252513688172 17.999999999999996
  endloop
endfacet
facet normal 0.9914448613738114 0.1305261922200446 0.0
  outer loop
    vertex 63.58246426344324 11.453481081341952 14.999999999999998
    vertex 63.63357552400964 11.065252513688172 17.999999999999996
    vertex 63.63357552400964 11.065252513688172 14.999999999999998
  endloop
endfacet
facet normal 0.9914448613738114 0.1305261922200446 0.0
  outer loop
    vertex 63.63357552400964 11.065252513688172 17.999999999999996
    vertex 63.58246426344324 11.453481081341952 14.999999999999998
    vertex 63.58246426344324 11.453481081341952 17.999999999999996
  endloop
endfacet
facet normal 0.0 0.0 -1.0
  outer loop
    vertex -21.196053607435694 13.859347739200773 0.0
    vertex -21.36642447599035 -37.43474748631182 0.0
    vertex -21.36642447599035 12.56525251368817 0.0
  endloop
endfacet
facet normal 0.0 0.0 -1.0
  outer loop
    vertex -21.36642447599035 -37.43474748631182 0.0
    vertex -21.196053607435694 13.859347739200773 0.0
    vertex -21.196053607435694 -38.72884271182442 0.0
  endloop
endfacet
facet normal 0.0 0.0 -1.0
  outer loop
    vertex -21.196053607435694 -38.72884271182442 0.0
    vertex -21.196053607435694 13.859347739200773 0.0
    vertex -20.696551494912544 15.065252513688165 0.0
  endloop
endfacet
facet normal 0.0 0.0 -1.0
  outer loop
    vertex -21.196053607435694 -38.72884271182442 0.0
    vertex -20.696551494912544 15.065252513688165 0.0
    vertex -20.696551494912544 -39.93474748631182 0.0
  endloop
endfacet
facet normal 0.0 0.0 -1.0
  outer loop
    vertex -20.696551494912544 -39.93474748631182 0.0
    vertex -20.696551494912544 15.065252513688165 0.0
    vertex -19.90195838192309 16.100786419620906 0.0
  endloop
endfacet
facet normal 0.0 0.0 -1.0
  outer loop
    vertex -20.696551494912544 -39.93474748631182 0.0
    vertex -19.90195838192309 16.100786419620906 0.0
    vertex -19.901958381923087 -40.97028139224456 0.0
  endloop
endfacet
facet normal 0.0 0.0 -1.0
  outer loop
    vertex -19.901958381923087 -40.97028139224456 0.0
    vertex -19.90195838192309 16.100786419620906 0.0
    vertex -18.86642447599035 16.89537953261036 0.0
  endloop
endfacet
facet normal 0.0 0.0 -1.0
  outer loop
    vertex -19.901958381923087 -40.97028139224456 0.0
    vertex -18.86642447599035 16.89537953261036 0.0
    vertex -18.86642447599035 -41.76487450523401 0.0
  endloop
endfacet
facet normal 0.0 0.0 -1.0
  outer loop
    vertex -18.86642447599035 -41.76487450523401 0.0
    vertex -18.86642447599035 16.89537953261036 0.0
    vertex -17.660519701502952 17.39488164513352 0.0
  endloop
endfacet
facet normal 0.0 0.0 -1.0
  outer loop
    vertex -18.86642447599035 -41.76487450523401 0.0
    vertex -17.660519701502952 17.39488164513352 0.0
    vertex -17.660519701502952 -42.26437661775716 0.0
  endloop
endfacet
facet normal 0.0 0.0 -1.0
  outer loop
    vertex -17.660519701502952 -42.26437661775716 0.0
    vertex -17.660519701502952 17.39488164513352 0.0
    vertex -16.36642447599035 17.565252513688172 0.0
  endloop
endfacet
facet normal 0.0 0.0 -1.0
  outer loop
    vertex -17.660519701502952 -42.26437661775716 0.0
    vertex -16.36642447599035 17.565252513688172 0.0
    vertex -16.36642447599035 -42.434747486311814 0.0
  endloop
endfacet
facet normal 0.0 0.0 -1.0
  outer loop
    vertex -16.36642447599035 -42.434747486311814 0.0
    vertex -16.36642447599035 17.565252513688172 0.0
    vertex 63.63357552400964 17.565252513688172 0.0
  endloop
endfacet
facet normal 0.0 0.0 -1.0
  outer loop
    vertex -16.36642447599035 -42.434747486311814 0.0
    vertex 63.63357552400964 17.565252513688172 0.0
    vertex 63.63357552400964 -42.43474748631182 0.0
  endloop
endfacet
facet normal 0.0 0.0 -1.0
  outer loop
    vertex 63.63357552400964 -42.43474748631182 0.0
    vertex 63.63357552400964 17.565252513688172 0.0
    vertex 64.92767074952225 17.39488164513352 0.0
  endloop
endfacet
facet normal 0.0 0.0 -1.0
  outer loop
    vertex 63.63357552400964 -42.43474748631182 0.0
    vertex 64.92767074952225 17.39488164513352 0.0
    vertex 64.92767074952225 -42.26437661775716 0.0
  endloop
endfacet
facet normal 0.0 0.0 -1.0
  outer loop
    vertex 64.92767074952225 -42.26437661775716 0.0
    vertex 64.92767074952225 17.39488164513352 0.0
    vertex 66.13357552400963 16.89537953261036 0.0
  endloop
endfacet
facet normal 0.0 0.0 -1.0
  outer loop
    vertex 64.92767074952225 -42.26437661775716 0.0
    vertex 66.13357552400963 16.89537953261036 0.0
    vertex 66.13357552400963 -41.76487450523401 0.0
  endloop
endfacet
facet normal 0.0 0.0 -1.0
  outer loop
    vertex 66.13357552400963 -41.76487450523401 0.0
    vertex 66.13357552400963 16.89537953261036 0.0
    vertex 67.16910942994238 16.100786419620917 0.0
  endloop
endfacet
facet normal 0.0 0.0 -1.0
  outer loop
    vertex 66.13357552400963 -41.76487450523401 0.0
    vertex 67.16910942994238 16.100786419620917 0.0
    vertex 67.16910942994238 -40.97028139224456 0.0
  endloop
endfacet
facet normal 0.0 0.0 -1.0
  outer loop
    vertex 67.16910942994238 -40.97028139224456 0.0
    vertex 67.16910942994238 16.100786419620917 0.0
    vertex 67.96370254293183 15.065252513688165 0.0
  endloop
endfacet
facet normal 0.0 0.0 -1.0
  outer loop
    vertex 67.16910942994238 -40.97028139224456 0.0
    vertex 67.96370254293183 15.065252513688165 0.0
    vertex 67.96370254293183 -39.93474748631182 0.0
  endloop
endfacet
facet normal 0.0 0.0 -1.0
  outer loop
    vertex 67.96370254293183 -39.93474748631182 0.0
    vertex 67.96370254293183 15.065252513688165 0.0
    vertex 68.46320465545497 13.859347739200773 0.0
  endloop
endfacet
facet normal 0.0 0.0 -1.0
  outer loop
    vertex 67.96370254293183 -39.93474748631182 0.0
    vertex 68.46320465545497 13.859347739200773 0.0
    vertex 68.46320465545497 -38.72884271182443 0.0
  endloop
endfacet
facet normal 0.0 0.0 -1.0
  outer loop
    vertex 68.46320465545497 -38.72884271182443 0.0
    vertex 68.46320465545497 13.859347739200773 0.0
    vertex 68.63357552400964 12.56525251368817 0.0
  endloop
endfacet
facet normal 0.0 0.0 -1.0
  outer loop
    vertex 68.46320465545497 -38.72884271182443 0.0
    vertex 68.63357552400964 12.56525251368817 0.0
    vertex 68.63357552400964 -37.43474748631182 0.0
  endloop
endfacet
facet normal -0.9914448613738105 -0.13052619222005185 0.0
  outer loop
    vertex -21.36642447599035 -37.43474748631182 14.999999999999998
    vertex -21.196053607435694 -38.72884271182442 0.0
    vertex -21.196053607435694 -38.72884271182442 14.999999999999998
  endloop
endfacet
facet normal -0.9914448613738105 -0.13052619222005185 0.0
  outer loop
    vertex -21.196053607435694 -38.72884271182442 0.0
    vertex -21.36642447599035 -37.43474748631182 14.999999999999998
    vertex -21.36642447599035 -37.43474748631182 0.0
  endloop
endfacet
facet normal -0.9238795325112873 -0.3826834323650887 -0.0
  outer loop
    vertex -21.196053607435694 -38.72884271182442 14.999999999999998
    vertex -20.696551494912544 -39.93474748631182 0.0
    vertex -20.696551494912544 -39.93474748631182 14.999999999999998
  endloop
endfacet
facet normal -0.9238795325112873 -0.3826834323650887 -0.0
  outer loop
    vertex -20.696551494912544 -39.93474748631182 0.0
    vertex -21.196053607435694 -38.72884271182442 14.999999999999998
    vertex -21.196053607435694 -38.72884271182442 0.0
  endloop
endfacet
facet normal -0.7933533402912349 -0.608761429008721 -0.0
  outer loop
    vertex -20.696551494912544 -39.93474748631182 14.999999999999998
    vertex -19.901958381923087 -40.97028139224456 0.0
    vertex -19.901958381923087 -40.97028139224456 14.999999999999998
  endloop
endfacet
facet normal -0.7933533402912349 -0.608761429008721 -0.0
  outer loop
    vertex -19.901958381923087 -40.97028139224456 0.0
    vertex -20.696551494912544 -39.93474748631182 14.999999999999998
    vertex -20.696551494912544 -39.93474748631182 0.0
  endloop
endfacet
facet normal -0.6087614290087207 -0.7933533402912354 -0.0
  outer loop
    vertex -18.86642447599035 -41.76487450523401 14.999999999999998
    vertex -19.901958381923087 -40.97028139224456 0.0
    vertex -18.86642447599035 -41.76487450523401 0.0
  endloop
endfacet
facet normal -0.6087614290087207 -0.7933533402912354 -0.0
  outer loop
    vertex -19.901958381923087 -40.97028139224456 0.0
    vertex -18.86642447599035 -41.76487450523401 14.999999999999998
    vertex -19.901958381923087 -40.97028139224456 14.999999999999998
  endloop
endfacet
facet normal -0.3826834323650887 -0.9238795325112873 -0.0
  outer loop
    vertex -17.660519701502952 -42.26437661775716 14.999999999999998
    vertex -18.86642447599035 -41.76487450523401 0.0
    vertex -17.660519701502952 -42.26437661775716 0.0
  endloop
endfacet
facet normal -0.3826834323650887 -0.9238795325112873 -0.0
  outer loop
    vertex -18.86642447599035 -41.76487450523401 0.0
    vertex -17.660519701502952 -42.26437661775716 14.999999999999998
    vertex -18.86642447599035 -41.76487450523401 14.999999999999998
  endloop
endfacet
facet normal -0.13052619222004763 -0.9914448613738109 0.0
  outer loop
    vertex -16.36642447599035 -42.434747486311814 14.999999999999998
    vertex -17.660519701502952 -42.26437661775716 0.0
    vertex -16.36642447599035 -42.434747486311814 0.0
  endloop
endfacet
facet normal -0.13052619222004763 -0.9914448613738109 0.0
  outer loop
    vertex -17.660519701502952 -42.26437661775716 0.0
    vertex -16.36642447599035 -42.434747486311814 14.999999999999998
    vertex -17.660519701502952 -42.26437661775716 14.999999999999998
  endloop
endfacet
facet normal -0.13052619222005157 0.9914448613738105 0.0
  outer loop
    vertex -17.660519701502952 17.39488164513352 14.999999999999998
    vertex -16.36642447599035 17.565252513688172 0.0
    vertex -17.660519701502952 17.39488164513352 0.0
  endloop
endfacet
facet normal -0.13052619222005157 0.9914448613738105 0.0
  outer loop
    vertex -16.36642447599035 17.565252513688172 0.0
    vertex -17.660519701502952 17.39488164513352 14.999999999999998
    vertex -16.36642447599035 17.565252513688172 14.999999999999998
  endloop
endfacet
facet normal -0.3826834323650895 0.923879532511287 0.0
  outer loop
    vertex -18.86642447599035 16.89537953261036 14.999999999999998
    vertex -17.660519701502952 17.39488164513352 0.0
    vertex -18.86642447599035 16.89537953261036 0.0
  endloop
endfacet
facet normal -0.3826834323650895 0.923879532511287 0.0
  outer loop
    vertex -17.660519701502952 17.39488164513352 0.0
    vertex -18.86642447599035 16.89537953261036 14.999999999999998
    vertex -17.660519701502952 17.39488164513352 14.999999999999998
  endloop
endfacet
facet normal -0.608761429008721 0.7933533402912349 0.0
  outer loop
    vertex -19.90195838192309 16.100786419620906 14.999999999999998
    vertex -18.86642447599035 16.89537953261036 0.0
    vertex -19.90195838192309 16.100786419620906 0.0
  endloop
endfacet
facet normal -0.608761429008721 0.7933533402912349 0.0
  outer loop
    vertex -18.86642447599035 16.89537953261036 0.0
    vertex -19.90195838192309 16.100786419620906 14.999999999999998
    vertex -18.86642447599035 16.89537953261036 14.999999999999998
  endloop
endfacet
facet normal -0.7933533402912354 0.6087614290087207 0.0
  outer loop
    vertex -19.90195838192309 16.100786419620906 14.999999999999998
    vertex -20.696551494912544 15.065252513688165 0.0
    vertex -20.696551494912544 15.065252513688165 14.999999999999998
  endloop
endfacet
facet normal -0.7933533402912354 0.6087614290087207 0.0
  outer loop
    vertex -20.696551494912544 15.065252513688165 0.0
    vertex -19.90195838192309 16.100786419620906 14.999999999999998
    vertex -19.90195838192309 16.100786419620906 0.0
  endloop
endfacet
facet normal -0.923879532511287 0.3826834323650895 0.0
  outer loop
    vertex -20.696551494912544 15.065252513688165 14.999999999999998
    vertex -21.196053607435694 13.859347739200773 0.0
    vertex -21.196053607435694 13.859347739200773 14.999999999999998
  endloop
endfacet
facet normal -0.923879532511287 0.3826834323650895 0.0
  outer loop
    vertex -21.196053607435694 13.859347739200773 0.0
    vertex -20.696551494912544 15.065252513688165 14.999999999999998
    vertex -20.696551494912544 15.065252513688165 0.0
  endloop
endfacet
facet normal -0.9914448613738105 0.13052619222005157 0.0
  outer loop
    vertex -21.196053607435694 13.859347739200773 14.999999999999998
    vertex -21.36642447599035 12.56525251368817 0.0
    vertex -21.36642447599035 12.56525251368817 14.999999999999998
  endloop
endfacet
facet normal -0.9914448613738105 0.13052619222005157 0.0
  outer loop
    vertex -21.36642447599035 12.56525251368817 0.0
    vertex -21.196053607435694 13.859347739200773 14.999999999999998
    vertex -21.196053607435694 13.859347739200773 0.0
  endloop
endfacet
facet normal 0.13052619222005188 -0.9914448613738105 0.0
  outer loop
    vertex 64.92767074952225 -42.26437661775716 14.999999999999998
    vertex 63.63357552400964 -42.43474748631182 0.0
    vertex 64.92767074952225 -42.26437661775716 0.0
  endloop
endfacet
facet normal 0.13052619222005188 -0.9914448613738105 0.0
  outer loop
    vertex 63.63357552400964 -42.43474748631182 0.0
    vertex 64.92767074952225 -42.26437661775716 14.999999999999998
    vertex 63.63357552400964 -42.43474748631182 14.999999999999998
  endloop
endfacet
facet normal 0.3826834323650902 -0.9238795325112866 0.0
  outer loop
    vertex 66.13357552400963 -41.76487450523401 14.999999999999998
    vertex 64.92767074952225 -42.26437661775716 0.0
    vertex 66.13357552400963 -41.76487450523401 0.0
  endloop
endfacet
facet normal 0.3826834323650902 -0.9238795325112866 0.0
  outer loop
    vertex 64.92767074952225 -42.26437661775716 0.0
    vertex 66.13357552400963 -41.76487450523401 14.999999999999998
    vertex 64.92767074952225 -42.26437661775716 14.999999999999998
  endloop
endfacet
facet normal 0.6087614290087197 -0.7933533402912362 0.0
  outer loop
    vertex 67.16910942994238 -40.97028139224456 14.999999999999998
    vertex 66.13357552400963 -41.76487450523401 0.0
    vertex 67.16910942994238 -40.97028139224456 0.0
  endloop
endfacet
facet normal 0.6087614290087197 -0.7933533402912362 0.0
  outer loop
    vertex 66.13357552400963 -41.76487450523401 0.0
    vertex 67.16910942994238 -40.97028139224456 14.999999999999998
    vertex 66.13357552400963 -41.76487450523401 14.999999999999998
  endloop
endfacet
facet normal 0.7933533402912362 -0.6087614290087197 0.0
  outer loop
    vertex 67.96370254293183 -39.93474748631182 0.0
    vertex 67.16910942994238 -40.97028139224456 14.999999999999998
    vertex 67.16910942994238 -40.97028139224456 0.0
  endloop
endfacet
facet normal 0.7933533402912362 -0.6087614290087197 0.0
  outer loop
    vertex 67.16910942994238 -40.97028139224456 14.999999999999998
    vertex 67.96370254293183 -39.93474748631182 0.0
    vertex 67.96370254293183 -39.93474748631182 14.999999999999998
  endloop
endfacet
facet normal 0.9238795325112866 -0.3826834323650902 0.0
  outer loop
    vertex 68.46320465545497 -38.72884271182443 0.0
    vertex 67.96370254293183 -39.93474748631182 14.999999999999998
    vertex 67.96370254293183 -39.93474748631182 0.0
  endloop
endfacet
facet normal 0.9238795325112866 -0.3826834323650902 0.0
  outer loop
    vertex 67.96370254293183 -39.93474748631182 14.999999999999998
    vertex 68.46320465545497 -38.72884271182443 0.0
    vertex 68.46320465545497 -38.72884271182443 14.999999999999998
  endloop
endfacet
facet normal 0.99144486137381 -0.13052619222005557 0.0
  outer loop
    vertex 68.63357552400964 -37.43474748631182 0.0
    vertex 68.46320465545497 -38.72884271182443 14.999999999999998
    vertex 68.46320465545497 -38.72884271182443 0.0
  endloop
endfacet
facet normal 0.99144486137381 -0.13052619222005557 0.0
  outer loop
    vertex 68.46320465545497 -38.72884271182443 14.999999999999998
    vertex 68.63357552400964 -37.43474748631182 0.0
    vertex 68.63357552400964 -37.43474748631182 14.999999999999998
  endloop
endfacet
facet normal 0.9914448613738098 0.1305261922200561 0.0
  outer loop
    vertex 68.46320465545497 13.859347739200773 0.0
    vertex 68.63357552400964 12.56525251368817 14.999999999999995
    vertex 68.63357552400964 12.56525251368817 0.0
  endloop
endfacet
facet normal 0.9914448613738098 0.1305261922200561 0.0
  outer loop
    vertex 68.63357552400964 12.56525251368817 14.999999999999995
    vertex 68.46320465545497 13.859347739200773 0.0
    vertex 68.46320465545497 13.859347739200773 14.999999999999995
  endloop
endfacet
facet normal 0.923879532511287 0.3826834323650895 0.0
  outer loop
    vertex 67.96370254293183 15.065252513688165 0.0
    vertex 68.46320465545497 13.859347739200773 14.999999999999995
    vertex 68.46320465545497 13.859347739200773 0.0
  endloop
endfacet
facet normal 0.923879532511287 0.3826834323650895 0.0
  outer loop
    vertex 68.46320465545497 13.859347739200773 14.999999999999995
    vertex 67.96370254293183 15.065252513688165 0.0
    vertex 67.96370254293183 15.065252513688165 14.999999999999995
  endloop
endfacet
facet normal 0.7933533402912362 0.6087614290087197 0.0
  outer loop
    vertex 67.16910942994238 16.100786419620917 0.0
    vertex 67.96370254293183 15.065252513688165 14.999999999999995
    vertex 67.96370254293183 15.065252513688165 0.0
  endloop
endfacet
facet normal 0.7933533402912362 0.6087614290087197 0.0
  outer loop
    vertex 67.96370254293183 15.065252513688165 14.999999999999995
    vertex 67.16910942994238 16.100786419620917 0.0
    vertex 67.16910942994238 16.100786419620917 14.999999999999995
  endloop
endfacet
facet normal 0.6087614290087197 0.7933533402912362 0.0
  outer loop
    vertex 66.13357552400963 16.89537953261036 14.999999999999995
    vertex 67.16910942994238 16.100786419620917 0.0
    vertex 66.13357552400963 16.89537953261036 0.0
  endloop
endfacet
facet normal 0.6087614290087197 0.7933533402912362 0.0
  outer loop
    vertex 67.16910942994238 16.100786419620917 0.0
    vertex 66.13357552400963 16.89537953261036 14.999999999999995
    vertex 67.16910942994238 16.100786419620917 14.999999999999995
  endloop
endfacet
facet normal 0.3826834323650902 0.9238795325112866 0.0
  outer loop
    vertex 64.92767074952225 17.39488164513352 14.999999999999995
    vertex 66.13357552400963 16.89537953261036 0.0
    vertex 64.92767074952225 17.39488164513352 0.0
  endloop
endfacet
facet normal 0.3826834323650902 0.9238795325112866 0.0
  outer loop
    vertex 66.13357552400963 16.89537953261036 0.0
    vertex 64.92767074952225 17.39488164513352 14.999999999999995
    vertex 66.13357552400963 16.89537953261036 14.999999999999995
  endloop
endfacet
facet normal 0.13052619222005185 0.9914448613738105 0.0
  outer loop
    vertex 63.63357552400964 17.565252513688172 14.999999999999995
    vertex 64.92767074952225 17.39488164513352 0.0
    vertex 63.63357552400964 17.565252513688172 0.0
  endloop
endfacet
facet normal 0.13052619222005185 0.9914448613738105 0.0
  outer loop
    vertex 64.92767074952225 17.39488164513352 0.0
    vertex 63.63357552400964 17.565252513688172 14.999999999999995
    vertex 64.92767074952225 17.39488164513352 14.999999999999995
  endloop
endfacet
endsolid AW_Case
